<svg width="20" height="20" viewBox="0 0 20 20" fill="none" xmlns="http://www.w3.org/2000/svg">
<circle cx="10" cy="10" r="7.25" stroke="#2FAC8E" stroke-width="1.5"/>
<mask id="path-2-inside-1_73_2808" fill="white">
<path d="M10 2C7.87827 2 5.84344 2.84285 4.34315 4.34315C2.84285 5.84344 2 7.87827 2 10C2 12.1217 2.84285 14.1566 4.34315 15.6569C5.84344 17.1571 7.87827 18 10 18L10 10L10 2Z"/>
</mask>
<path d="M10 2C7.87827 2 5.84344 2.84285 4.34315 4.34315C2.84285 5.84344 2 7.87827 2 10C2 12.1217 2.84285 14.1566 4.34315 15.6569C5.84344 17.1571 7.87827 18 10 18L10 10L10 2Z" fill="#2FAC8E" stroke="#2FAC8E" stroke-width="3" mask="url(#path-2-inside-1_73_2808)"/>
</svg>
