<svg width="452" height="448" viewBox="0 0 452 448" fill="none" xmlns="http://www.w3.org/2000/svg">
<g clip-path="url(#clip0_12_4273)">
<path d="M440.291 388.151H404.124V388.424H440.291V388.151Z" fill="#EBEBEB"/>
<path d="M310.692 391.121H301.203V391.394H310.692V391.121Z" fill="#EBEBEB"/>
<path d="M403.032 378.017H382.076V378.29H403.032V378.017Z" fill="#EBEBEB"/>
<path d="M53.4496 379.852H6.28613V380.125H53.4496V379.852Z" fill="#EBEBEB"/>
<path d="M70.0921 379.852H63.1797V380.125H70.0921V379.852Z" fill="#EBEBEB"/>
<path d="M194.864 384.46H92.5654V384.733H194.864V384.46Z" fill="#EBEBEB"/>
<path d="M209.333 321.878H-1.53226C-3.18597 321.878 -4.77195 321.221 -5.94129 320.051C-7.11064 318.882 -7.76758 317.296 -7.76758 315.642V19.2407C-7.75318 17.5965 -7.0899 16.0245 -5.9221 14.8669C-4.75431 13.7094 -3.17655 13.0599 -1.53226 13.06H209.333C210.152 13.06 210.963 13.2213 211.719 13.5346C212.476 13.848 213.163 14.3073 213.742 14.8863C214.321 15.4653 214.78 16.1527 215.094 16.9092C215.407 17.6657 215.568 18.4765 215.568 19.2953V315.642C215.568 316.461 215.407 317.272 215.094 318.028C214.78 318.785 214.321 319.472 213.742 320.051C213.163 320.63 212.476 321.09 211.719 321.403C210.963 321.716 210.152 321.878 209.333 321.878ZM-1.53226 13.2784C-3.11268 13.2813 -4.62754 13.9104 -5.74507 15.0279C-6.86259 16.1454 -7.49169 17.6603 -7.49458 19.2407V315.642C-7.49169 317.223 -6.86259 318.738 -5.74507 319.855C-4.62754 320.973 -3.11268 321.602 -1.53226 321.605H209.333C210.913 321.602 212.428 320.973 213.546 319.855C214.663 318.738 215.292 317.223 215.295 315.642V19.2407C215.292 17.6603 214.663 16.1454 213.546 15.0279C212.428 13.9104 210.913 13.2813 209.333 13.2784H-1.53226Z" fill="#EBEBEB"/>
<path d="M445.532 321.878H234.667C233.013 321.878 231.427 321.221 230.258 320.051C229.089 318.882 228.432 317.296 228.432 315.642V19.2407C228.446 17.5965 229.109 16.0245 230.277 14.8669C231.445 13.7094 233.023 13.0599 234.667 13.06H445.532C447.186 13.06 448.772 13.7169 449.941 14.8863C451.111 16.0556 451.767 17.6416 451.767 19.2953V315.642C451.767 317.296 451.111 318.882 449.941 320.051C448.772 321.221 447.186 321.878 445.532 321.878ZM234.667 13.2784C233.087 13.2813 231.572 13.9104 230.454 15.0279C229.337 16.1454 228.708 17.6603 228.705 19.2407V315.642C228.708 317.223 229.337 318.738 230.454 319.855C231.572 320.973 233.087 321.602 234.667 321.605H445.532C447.113 321.602 448.627 320.973 449.745 319.855C450.863 318.738 451.492 317.223 451.494 315.642V19.2407C451.492 17.6603 450.863 16.1454 449.745 15.0279C448.627 13.9104 447.113 13.2813 445.532 13.2784H234.667Z" fill="#EBEBEB"/>
<path d="M452 372H-51V371H452V372Z" fill="#EBEBEB"/>
<path d="M406.461 176.849H328.175L319.188 74.0591H397.473L406.461 176.849Z" fill="#F5F5F5"/>
<path d="M378.211 87.316H338.757C338.505 87.3145 338.264 87.2199 338.078 87.0504C337.893 86.881 337.776 86.6488 337.752 86.3987C337.74 86.2812 337.752 86.1624 337.789 86.0501C337.826 85.9378 337.886 85.8344 337.965 85.7468C338.045 85.6593 338.141 85.5894 338.25 85.5418C338.358 85.4942 338.475 85.4699 338.593 85.4705H378.047C378.299 85.4747 378.541 85.5717 378.726 85.7429C378.912 85.9141 379.027 86.1476 379.052 86.3987C379.066 86.5161 379.054 86.6352 379.018 86.7478C378.982 86.8603 378.922 86.9637 378.842 87.0509C378.762 87.1381 378.665 87.2069 378.556 87.2526C378.446 87.2984 378.329 87.32 378.211 87.316Z" fill="#E0E0E0"/>
<path d="M391.467 137.603H343.212C342.96 137.598 342.718 137.501 342.532 137.33C342.347 137.159 342.231 136.926 342.207 136.674C342.195 136.557 342.208 136.438 342.244 136.326C342.281 136.213 342.341 136.11 342.42 136.023C342.5 135.935 342.597 135.865 342.705 135.817C342.813 135.77 342.93 135.746 343.048 135.746H391.369C391.617 135.763 391.852 135.865 392.035 136.034C392.217 136.202 392.337 136.428 392.374 136.674C392.387 136.798 392.373 136.922 392.332 137.04C392.292 137.157 392.226 137.263 392.139 137.352C392.053 137.441 391.948 137.509 391.831 137.553C391.715 137.596 391.591 137.613 391.467 137.603Z" fill="#E0E0E0"/>
<path d="M391.937 143.008H336.769C336.517 143.004 336.275 142.907 336.09 142.736C335.904 142.564 335.788 142.331 335.764 142.08C335.752 141.962 335.765 141.843 335.801 141.731C335.838 141.619 335.898 141.516 335.977 141.428C336.057 141.34 336.154 141.27 336.262 141.223C336.37 141.175 336.487 141.151 336.605 141.152H391.784C392.032 141.169 392.267 141.27 392.45 141.439C392.632 141.608 392.752 141.834 392.789 142.08C392.801 142.198 392.788 142.318 392.751 142.431C392.713 142.544 392.652 142.648 392.572 142.736C392.491 142.824 392.393 142.893 392.284 142.94C392.174 142.987 392.056 143.01 391.937 143.008Z" fill="#E0E0E0"/>
<path d="M392.417 148.348H337.239C336.986 148.344 336.745 148.247 336.559 148.075C336.374 147.904 336.258 147.671 336.234 147.42C336.222 147.302 336.234 147.183 336.271 147.071C336.308 146.959 336.368 146.855 336.447 146.768C336.527 146.68 336.623 146.61 336.732 146.563C336.84 146.515 336.957 146.491 337.075 146.491H392.254C392.502 146.509 392.737 146.61 392.919 146.779C393.102 146.948 393.222 147.174 393.258 147.42C393.271 147.537 393.258 147.656 393.221 147.768C393.185 147.881 393.125 147.984 393.045 148.072C392.966 148.159 392.869 148.229 392.761 148.277C392.653 148.324 392.536 148.349 392.417 148.348Z" fill="#E0E0E0"/>
<path d="M392.887 153.721H337.752C337.495 153.725 337.244 153.639 337.045 153.477C336.845 153.315 336.709 153.088 336.66 152.836C336.648 152.718 336.66 152.6 336.697 152.487C336.734 152.375 336.794 152.272 336.873 152.184C336.952 152.097 337.049 152.027 337.157 151.979C337.266 151.931 337.382 151.907 337.501 151.908H392.679C392.932 151.912 393.174 152.009 393.359 152.18C393.544 152.351 393.66 152.585 393.684 152.836C393.69 152.946 393.674 153.057 393.637 153.161C393.6 153.266 393.543 153.361 393.469 153.444C393.395 153.526 393.305 153.593 393.206 153.64C393.106 153.688 392.997 153.715 392.887 153.721Z" fill="#E0E0E0"/>
<path d="M393.357 159.093H345.036C344.787 159.076 344.553 158.975 344.37 158.806C344.187 158.637 344.068 158.411 344.031 158.165C344.019 158.047 344.031 157.929 344.068 157.816C344.105 157.704 344.165 157.601 344.244 157.513C344.323 157.425 344.42 157.356 344.528 157.308C344.637 157.26 344.754 157.236 344.872 157.237H393.193C393.445 157.241 393.687 157.338 393.872 157.509C394.058 157.68 394.173 157.914 394.197 158.165C394.21 158.282 394.197 158.401 394.16 158.514C394.124 158.626 394.064 158.729 393.984 158.817C393.905 158.904 393.808 158.974 393.7 159.022C393.592 159.069 393.475 159.094 393.357 159.093Z" fill="#E0E0E0"/>
<path d="M393.826 164.466H338.647C338.399 164.449 338.165 164.347 337.982 164.178C337.799 164.01 337.68 163.784 337.643 163.538C337.63 163.42 337.643 163.3 337.681 163.188C337.718 163.075 337.779 162.972 337.86 162.885C337.941 162.798 338.039 162.73 338.149 162.684C338.258 162.638 338.376 162.617 338.495 162.62H393.662C393.914 162.622 394.156 162.716 394.341 162.886C394.527 163.055 394.643 163.287 394.667 163.538C394.679 163.655 394.667 163.774 394.63 163.886C394.593 163.999 394.533 164.102 394.454 164.189C394.375 164.277 394.278 164.347 394.17 164.395C394.061 164.442 393.944 164.466 393.826 164.466Z" fill="#E0E0E0"/>
<path d="M394.295 169.838H339.117C338.869 169.821 338.634 169.72 338.451 169.551C338.268 169.382 338.149 169.156 338.112 168.91C338.1 168.792 338.112 168.673 338.15 168.56C338.187 168.448 338.248 168.345 338.329 168.258C338.41 168.171 338.508 168.102 338.618 168.057C338.727 168.011 338.845 167.989 338.964 167.993H394.132C394.383 167.994 394.625 168.089 394.81 168.259C394.996 168.428 395.112 168.66 395.136 168.91C395.149 169.028 395.136 169.147 395.099 169.259C395.063 169.371 395.003 169.475 394.923 169.562C394.844 169.65 394.747 169.72 394.639 169.767C394.531 169.815 394.414 169.839 394.295 169.838Z" fill="#E0E0E0"/>
<path d="M374.126 93.4531H343.922C343.669 93.4489 343.427 93.3519 343.242 93.1807C343.057 93.0095 342.941 92.776 342.917 92.5249C342.903 92.407 342.914 92.2875 342.95 92.1744C342.986 92.0613 343.046 91.9572 343.126 91.8692C343.206 91.7813 343.303 91.7114 343.412 91.6644C343.521 91.6174 343.639 91.5943 343.758 91.5967H373.963C374.215 91.6009 374.457 91.6978 374.642 91.8691C374.827 92.0403 374.943 92.2737 374.967 92.5249C374.981 92.6427 374.97 92.7623 374.934 92.8754C374.898 92.9885 374.838 93.0925 374.758 93.1805C374.678 93.2685 374.581 93.3383 374.472 93.3854C374.363 93.4324 374.245 93.4555 374.126 93.4531Z" fill="#E0E0E0"/>
<path d="M369.725 99.5901H349.392C349.14 99.5859 348.898 99.4889 348.713 99.3177C348.528 99.1465 348.412 98.913 348.388 98.6619C348.374 98.5445 348.385 98.4255 348.421 98.3129C348.457 98.2003 348.517 98.0969 348.597 98.0097C348.677 97.9226 348.775 97.8537 348.884 97.808C348.993 97.7622 349.111 97.7406 349.229 97.7446H369.573C369.823 97.7485 370.064 97.844 370.249 98.0129C370.434 98.1819 370.551 98.4127 370.577 98.6619C370.59 98.7803 370.577 98.9001 370.539 99.0132C370.502 99.1263 370.441 99.2301 370.361 99.3179C370.28 99.4057 370.182 99.4753 370.072 99.5222C369.963 99.5692 369.845 99.5923 369.725 99.5901Z" fill="#E0E0E0"/>
<path opacity="0.5" d="M391.61 128.615H334.585L332.674 106.732H389.699L391.61 128.615Z" fill="#E0E0E0"/>
<path d="M90 246H135.749L141 186H95.2514L90 246Z" fill="#F5F5F5"/>
<path d="M106.494 194H129.414C129.56 193.996 129.699 193.943 129.806 193.851C129.913 193.759 129.98 193.635 129.997 193.5C130.005 193.436 129.998 193.372 129.976 193.311C129.955 193.25 129.92 193.194 129.873 193.146C129.827 193.099 129.77 193.061 129.707 193.036C129.643 193.011 129.575 192.999 129.506 193H106.586C106.439 193.001 106.299 193.053 106.191 193.146C106.083 193.238 106.016 193.364 106.003 193.5C105.995 193.564 106.002 193.628 106.024 193.689C106.045 193.75 106.08 193.806 106.127 193.854C106.173 193.901 106.23 193.939 106.293 193.964C106.357 193.989 106.425 194.001 106.494 194Z" fill="#E0E0E0"/>
<path d="M98.491 223H126.416C126.562 222.999 126.702 222.947 126.81 222.855C126.917 222.762 126.984 222.636 126.997 222.5C127.005 222.436 126.998 222.372 126.976 222.311C126.955 222.25 126.92 222.194 126.874 222.146C126.828 222.099 126.771 222.061 126.708 222.036C126.645 222.011 126.577 221.999 126.508 222H98.5903C98.4441 222.003 98.3039 222.055 98.1958 222.147C98.0876 222.239 98.0188 222.364 98.0022 222.5C97.9958 222.564 98.0037 222.628 98.0253 222.688C98.047 222.749 98.082 222.804 98.1281 222.851C98.1741 222.898 98.2302 222.936 98.2927 222.962C98.3552 222.987 98.4228 223 98.491 223Z" fill="#E0E0E0"/>
<path d="M98.4925 226H130.416C130.562 225.999 130.702 225.947 130.809 225.854C130.917 225.762 130.984 225.636 130.997 225.5C131.005 225.436 130.998 225.372 130.976 225.311C130.955 225.25 130.92 225.194 130.874 225.146C130.827 225.099 130.771 225.061 130.708 225.036C130.644 225.011 130.576 224.999 130.508 225H98.5843C98.4387 225.003 98.2993 225.055 98.1923 225.147C98.0852 225.239 98.0179 225.365 98.003 225.5C97.9953 225.564 98.0024 225.628 98.0236 225.689C98.0449 225.75 98.0799 225.806 98.1262 225.854C98.1726 225.901 98.2292 225.939 98.2924 225.964C98.3556 225.989 98.4238 226.001 98.4925 226Z" fill="#E0E0E0"/>
<path d="M97.5073 229H130.398C130.548 228.997 130.692 228.945 130.802 228.853C130.912 228.761 130.982 228.635 130.997 228.5C131.005 228.436 130.998 228.372 130.976 228.311C130.954 228.25 130.918 228.194 130.87 228.146C130.822 228.099 130.764 228.061 130.699 228.036C130.634 228.011 130.563 227.999 130.493 228H97.6018C97.4519 228.003 97.3083 228.055 97.198 228.147C97.0878 228.239 97.0184 228.365 97.0031 228.5C96.9952 228.564 97.0025 228.628 97.0243 228.689C97.0462 228.75 97.0823 228.806 97.13 228.854C97.1778 228.901 97.2361 228.939 97.3012 228.964C97.3663 228.989 97.4365 229.001 97.5073 229Z" fill="#E0E0E0"/>
<path d="M97.4849 232H129.416C129.562 231.999 129.702 231.947 129.809 231.855C129.917 231.762 129.984 231.636 129.997 231.5C130.005 231.436 129.998 231.372 129.976 231.311C129.955 231.25 129.92 231.194 129.874 231.146C129.827 231.099 129.771 231.061 129.708 231.036C129.644 231.011 129.576 230.999 129.507 231H97.5844C97.4388 231.003 97.2994 231.055 97.1923 231.147C97.0852 231.239 97.0179 231.365 97.003 231.5C96.9954 231.563 97.0023 231.627 97.0231 231.688C97.0439 231.748 97.0782 231.804 97.1237 231.851C97.1692 231.898 97.225 231.936 97.2872 231.962C97.3495 231.987 97.4169 232 97.4849 232Z" fill="#E0E0E0"/>
<path d="M97.4918 236H125.417C125.562 235.997 125.701 235.945 125.808 235.853C125.915 235.761 125.982 235.635 125.997 235.5C126.005 235.436 125.998 235.372 125.976 235.311C125.955 235.25 125.92 235.194 125.874 235.146C125.828 235.099 125.771 235.061 125.708 235.036C125.645 235.011 125.577 234.999 125.508 235H97.5835C97.4382 235.003 97.2989 235.055 97.192 235.147C97.0851 235.239 97.0179 235.365 97.003 235.5C96.9954 235.564 97.0024 235.628 97.0236 235.689C97.0448 235.75 97.0798 235.806 97.1261 235.854C97.1724 235.901 97.2289 235.939 97.292 235.964C97.3551 235.989 97.4232 236.001 97.4918 236Z" fill="#E0E0E0"/>
<path d="M96.5 239H129.397C129.548 238.997 129.691 238.945 129.802 238.853C129.912 238.761 129.982 238.635 129.997 238.5C130.005 238.436 129.998 238.372 129.976 238.311C129.954 238.25 129.918 238.194 129.87 238.146C129.822 238.099 129.764 238.061 129.698 238.036C129.633 238.011 129.563 237.999 129.492 238H96.6025C96.4519 238.001 96.3072 238.053 96.1964 238.146C96.0857 238.238 96.0168 238.364 96.0031 238.5C95.9953 238.563 96.0023 238.627 96.0238 238.688C96.0452 238.748 96.0806 238.804 96.1276 238.851C96.1745 238.898 96.232 238.936 96.2961 238.962C96.3603 238.987 96.4298 239 96.5 239Z" fill="#E0E0E0"/>
<path d="M96.4925 242H128.415C128.561 241.999 128.701 241.947 128.809 241.854C128.916 241.762 128.983 241.636 128.996 241.5C129.005 241.437 128.999 241.372 128.979 241.311C128.958 241.25 128.924 241.194 128.878 241.147C128.833 241.099 128.776 241.061 128.713 241.036C128.651 241.011 128.583 240.999 128.514 241H96.5842C96.4382 241.001 96.2979 241.053 96.1905 241.146C96.0831 241.238 96.0163 241.364 96.003 241.5C95.9953 241.564 96.0024 241.628 96.0236 241.689C96.0449 241.75 96.0799 241.806 96.1262 241.854C96.1726 241.901 96.2292 241.939 96.2924 241.964C96.3556 241.989 96.4238 242.001 96.4925 242Z" fill="#E0E0E0"/>
<path d="M108.504 197H126.402C126.551 196.999 126.695 196.947 126.805 196.854C126.915 196.762 126.983 196.636 126.997 196.5C127.005 196.437 126.998 196.373 126.976 196.312C126.955 196.252 126.92 196.196 126.873 196.149C126.827 196.102 126.77 196.064 126.706 196.038C126.642 196.013 126.573 196 126.503 196H108.598C108.449 196.003 108.307 196.055 108.197 196.147C108.087 196.239 108.018 196.365 108.003 196.5C107.995 196.564 108.002 196.628 108.024 196.689C108.046 196.75 108.082 196.806 108.129 196.854C108.177 196.901 108.235 196.939 108.299 196.964C108.364 196.989 108.434 197.001 108.504 197Z" fill="#E0E0E0"/>
<path d="M111.453 201H122.455C122.59 200.996 122.72 200.943 122.82 200.851C122.919 200.759 122.983 200.635 122.998 200.5C123.004 200.436 122.997 200.372 122.976 200.312C122.956 200.251 122.923 200.196 122.88 200.149C122.837 200.102 122.785 200.064 122.726 200.038C122.668 200.013 122.605 200 122.541 200H111.546C111.409 200.001 111.278 200.053 111.178 200.145C111.078 200.238 111.015 200.364 111.003 200.5C110.996 200.563 111.002 200.627 111.022 200.688C111.041 200.748 111.073 200.804 111.116 200.851C111.158 200.898 111.21 200.936 111.268 200.962C111.326 200.987 111.389 201 111.453 201Z" fill="#E0E0E0"/>
<path opacity="0.5" d="M98 218H131.862L133 205H99.1381L98 218Z" fill="#E0E0E0"/>
<path d="M168.492 155.435H251.899L261.487 45.9073H178.069L168.492 155.435Z" fill="#FAFAFA"/>
<path d="M198.587 60.016H240.629C240.901 60.0173 241.164 59.9174 241.365 59.7357C241.567 59.554 241.694 59.3035 241.721 59.0332C241.735 58.9081 241.723 58.7815 241.684 58.6618C241.645 58.5421 241.581 58.4321 241.496 58.339C241.412 58.246 241.308 58.1721 241.192 58.1224C241.077 58.0726 240.952 58.048 240.826 58.0504H198.784C198.512 58.049 198.25 58.149 198.048 58.3307C197.846 58.5124 197.719 58.7629 197.692 59.0332C197.678 59.1582 197.691 59.2849 197.73 59.4046C197.769 59.5243 197.832 59.6343 197.917 59.7273C198.002 59.8204 198.106 59.8942 198.221 59.944C198.337 59.9938 198.462 60.0183 198.587 60.016Z" fill="#E6E6E6"/>
<path d="M184.457 113.611H235.934C236.206 113.613 236.468 113.513 236.67 113.331C236.872 113.149 236.999 112.899 237.026 112.629C237.038 112.503 237.024 112.376 236.984 112.256C236.944 112.137 236.879 112.027 236.793 111.934C236.707 111.841 236.603 111.768 236.487 111.718C236.371 111.668 236.246 111.644 236.12 111.646H184.632C184.36 111.644 184.098 111.744 183.896 111.926C183.694 112.108 183.567 112.358 183.54 112.629C183.525 112.755 183.539 112.884 183.579 113.005C183.619 113.127 183.685 113.238 183.772 113.331C183.859 113.425 183.966 113.498 184.084 113.546C184.202 113.595 184.329 113.617 184.457 113.611Z" fill="#E6E6E6"/>
<path d="M183.966 119.344H242.748C243.021 119.345 243.285 119.244 243.487 119.06C243.69 118.876 243.815 118.623 243.84 118.351C243.852 118.225 243.838 118.098 243.798 117.978C243.758 117.859 243.693 117.749 243.607 117.656C243.522 117.563 243.417 117.49 243.301 117.44C243.185 117.39 243.06 117.366 242.934 117.368H184.129C183.858 117.367 183.595 117.466 183.393 117.648C183.192 117.83 183.065 118.08 183.037 118.351C183.025 118.479 183.04 118.608 183.081 118.73C183.123 118.851 183.189 118.963 183.277 119.057C183.365 119.151 183.472 119.225 183.59 119.275C183.709 119.324 183.837 119.348 183.966 119.344Z" fill="#E6E6E6"/>
<path d="M183.463 125.066H242.246C242.517 125.068 242.78 124.968 242.982 124.786C243.184 124.604 243.311 124.354 243.338 124.084C243.352 123.958 243.339 123.831 243.3 123.711C243.261 123.59 243.197 123.48 243.113 123.386C243.028 123.292 242.925 123.217 242.809 123.166C242.694 123.115 242.569 123.089 242.442 123.09H183.627C183.354 123.089 183.09 123.19 182.888 123.374C182.686 123.558 182.56 123.811 182.535 124.084C182.522 124.211 182.537 124.34 182.579 124.461C182.62 124.582 182.687 124.693 182.775 124.787C182.863 124.88 182.97 124.953 183.089 125.001C183.208 125.05 183.335 125.072 183.463 125.066Z" fill="#E6E6E6"/>
<path d="M182.961 130.789H241.743C242.015 130.79 242.278 130.69 242.479 130.508C242.681 130.326 242.808 130.076 242.835 129.806C242.849 129.681 242.837 129.554 242.798 129.434C242.759 129.315 242.695 129.205 242.61 129.112C242.526 129.019 242.422 128.945 242.306 128.895C242.191 128.845 242.066 128.821 241.94 128.823H183.136C182.864 128.822 182.602 128.921 182.4 129.103C182.198 129.285 182.071 129.535 182.044 129.806C182.031 129.932 182.046 130.06 182.087 130.181C182.128 130.301 182.194 130.411 182.28 130.504C182.367 130.597 182.473 130.671 182.59 130.72C182.708 130.769 182.834 130.792 182.961 130.789Z" fill="#E6E6E6"/>
<path d="M182.459 136.511H233.936C234.207 136.512 234.47 136.412 234.672 136.23C234.874 136.049 235.001 135.798 235.028 135.528C235.042 135.403 235.029 135.276 234.99 135.156C234.951 135.037 234.887 134.927 234.803 134.834C234.718 134.741 234.614 134.667 234.499 134.617C234.383 134.567 234.258 134.543 234.132 134.545H182.688C182.417 134.544 182.154 134.644 181.952 134.825C181.75 135.007 181.623 135.258 181.596 135.528C181.581 135.65 181.592 135.775 181.628 135.893C181.664 136.011 181.725 136.12 181.806 136.213C181.888 136.306 181.988 136.381 182.101 136.432C182.213 136.483 182.335 136.51 182.459 136.511Z" fill="#E6E6E6"/>
<path d="M181.956 142.244H240.739C241.012 142.245 241.276 142.143 241.478 141.959C241.68 141.775 241.806 141.522 241.831 141.25C241.847 141.124 241.835 140.997 241.797 140.877C241.759 140.756 241.695 140.645 241.61 140.552C241.525 140.458 241.42 140.385 241.304 140.335C241.187 140.286 241.062 140.263 240.935 140.267H182.131C181.859 140.266 181.597 140.366 181.395 140.547C181.193 140.729 181.066 140.98 181.039 141.25C181.023 141.378 181.035 141.507 181.074 141.63C181.114 141.753 181.179 141.865 181.267 141.96C181.354 142.055 181.461 142.129 181.58 142.178C181.699 142.227 181.828 142.249 181.956 142.244Z" fill="#E6E6E6"/>
<path d="M181.454 147.966H240.236C240.508 147.967 240.77 147.867 240.972 147.685C241.174 147.504 241.301 147.253 241.328 146.983C241.344 146.857 241.332 146.729 241.294 146.608C241.256 146.487 241.193 146.376 241.108 146.281C241.023 146.187 240.918 146.112 240.802 146.062C240.686 146.011 240.56 145.987 240.433 145.989H181.596C181.322 145.988 181.059 146.089 180.856 146.273C180.654 146.457 180.528 146.711 180.504 146.983C180.489 147.113 180.503 147.244 180.545 147.368C180.587 147.492 180.656 147.605 180.747 147.699C180.837 147.793 180.948 147.865 181.07 147.912C181.193 147.958 181.324 147.976 181.454 147.966Z" fill="#E6E6E6"/>
<path d="M202.945 66.568H235.104C235.376 66.5694 235.638 66.4694 235.84 66.2877C236.042 66.106 236.169 65.8555 236.196 65.5852C236.212 65.4598 236.201 65.3324 236.162 65.2119C236.124 65.0914 236.06 64.9806 235.975 64.8872C235.89 64.7937 235.786 64.7199 235.669 64.6707C235.553 64.6216 235.427 64.5982 235.301 64.6024H203.12C202.848 64.601 202.585 64.701 202.384 64.8827C202.182 65.0644 202.055 65.3149 202.028 65.5852C202.011 65.7125 202.023 65.8419 202.063 65.964C202.102 66.0862 202.168 66.1981 202.255 66.292C202.343 66.3858 202.45 66.4592 202.569 66.5069C202.688 66.5546 202.817 66.5755 202.945 66.568Z" fill="#E6E6E6"/>
<path d="M207.629 73.12H229.305C229.577 73.1214 229.839 73.0215 230.041 72.8397C230.243 72.658 230.37 72.4075 230.397 72.1372C230.41 72.0116 230.395 71.8848 230.355 71.7651C230.315 71.6454 230.25 71.5355 230.164 71.4427C230.079 71.3499 229.975 71.2762 229.859 71.2265C229.742 71.1769 229.617 71.1523 229.491 71.1544H207.804C207.532 71.1531 207.27 71.253 207.068 71.4347C206.866 71.6165 206.739 71.8669 206.712 72.1372C206.699 72.2638 206.714 72.3916 206.755 72.5121C206.796 72.6326 206.862 72.743 206.948 72.8359C207.035 72.9289 207.141 73.0024 207.258 73.0513C207.375 73.1003 207.502 73.1237 207.629 73.12Z" fill="#E6E6E6"/>
<path opacity="0.5" d="M184.315 104.035H245.074L247.105 80.7203H186.357L184.315 104.035Z" fill="#F0F0F0"/>
<path d="M410.763 238.132C410.479 241.408 400.673 243.275 388.923 242.249C377.173 241.222 367.793 237.695 368.088 234.397L369.344 219.972L412.008 223.707L410.763 238.132Z" fill="#EBEBEB"/>
<path opacity="0.6" d="M368.951 224.002C370.578 226.994 379.237 229.909 389.873 230.848C400.509 231.788 409.529 230.412 411.713 227.747L412.063 223.707L369.333 219.972L368.951 224.002Z" fill="#E0E0E0"/>
<path d="M389.764 229.385L355.399 215.419C355.242 215.356 355.108 215.247 355.016 215.105C354.925 214.963 354.88 214.795 354.889 214.627C354.897 214.458 354.958 214.296 355.063 214.164C355.169 214.032 355.313 213.936 355.475 213.89L391.992 203.417C392.174 203.347 392.377 203.347 392.559 203.417L426.706 220.081C426.858 220.155 426.983 220.274 427.063 220.422C427.144 220.57 427.176 220.739 427.156 220.907C427.135 221.074 427.063 221.231 426.949 221.355C426.835 221.479 426.685 221.564 426.521 221.599L390.244 229.385C390.088 229.434 389.92 229.434 389.764 229.385Z" fill="#EBEBEB"/>
<path d="M102.284 294.468H56.147V301.566H102.284V294.468Z" fill="#F0F0F0"/>
<path d="M57.676 298.563H100.788C101.735 298.563 102.643 298.94 103.313 299.609C103.983 300.279 104.359 301.187 104.359 302.134V371.727H54.127V302.134C54.1255 301.665 54.2169 301.2 54.3959 300.766C54.5748 300.332 54.8378 299.938 55.1696 299.606C55.5015 299.274 55.8957 299.011 56.3296 298.832C56.7635 298.653 57.2285 298.562 57.6978 298.563H57.676Z" fill="#E6E6E6"/>
<path d="M100.395 285.732H58.0471C55.8699 285.732 54.105 287.497 54.105 289.675V292.71C54.105 294.887 55.8699 296.652 58.0471 296.652H100.395C102.572 296.652 104.337 294.887 104.337 292.71V289.675C104.337 287.497 102.572 285.732 100.395 285.732Z" fill="#E6E6E6"/>
<path d="M110.834 371.727H87.3564V368.451L110.834 366.267V371.727Z" fill="#F5F5F5"/>
<path d="M294.902 270.237L279.614 236.287H243.774L249.234 268.053C249.352 268.796 249.172 269.556 248.735 270.169C248.298 270.781 247.638 271.198 246.897 271.329H246.439H230.736C230.333 271.329 229.947 271.489 229.662 271.773C229.378 272.058 229.218 272.444 229.218 272.847V274.528C229.218 274.931 229.378 275.317 229.662 275.602C229.947 275.886 230.333 276.046 230.736 276.046H293.777C294.214 276.046 294.634 275.873 294.943 275.563C295.252 275.254 295.426 274.835 295.426 274.397V272.65C295.42 271.818 295.242 270.996 294.902 270.237ZM278.325 266.044H261.126C260.584 266.043 260.06 265.851 259.646 265.502C259.232 265.152 258.956 264.667 258.866 264.133L256.267 249.139C256.215 248.842 256.223 248.537 256.289 248.242C256.356 247.948 256.48 247.669 256.654 247.422C256.829 247.176 257.05 246.966 257.306 246.805C257.562 246.645 257.847 246.536 258.145 246.486H258.538H271.544C271.985 246.484 272.418 246.61 272.79 246.848C273.162 247.086 273.457 247.427 273.64 247.829L280.422 262.822C280.579 263.174 280.647 263.56 280.618 263.945C280.59 264.33 280.466 264.701 280.258 265.026C280.05 265.351 279.764 265.619 279.427 265.806C279.089 265.994 278.711 266.094 278.325 266.098V266.044Z" fill="#263238"/>
<path opacity="0.8" d="M294.902 270.237L279.614 236.287H243.774L249.234 268.053C249.352 268.796 249.172 269.556 248.735 270.169C248.298 270.781 247.638 271.198 246.897 271.329H246.439H230.736C230.333 271.329 229.947 271.489 229.662 271.773C229.378 272.058 229.218 272.444 229.218 272.847V274.528C229.218 274.931 229.378 275.317 229.662 275.602C229.947 275.886 230.333 276.046 230.736 276.046H293.777C294.214 276.046 294.634 275.873 294.943 275.563C295.252 275.254 295.426 274.835 295.426 274.397V272.65C295.42 271.818 295.242 270.996 294.902 270.237ZM278.325 266.044H261.126C260.584 266.043 260.06 265.851 259.646 265.502C259.232 265.152 258.956 264.667 258.866 264.133L256.267 249.139C256.215 248.842 256.223 248.537 256.289 248.242C256.356 247.948 256.48 247.669 256.654 247.422C256.829 247.176 257.05 246.966 257.306 246.805C257.562 246.645 257.847 246.536 258.145 246.486H258.538H271.544C271.985 246.484 272.418 246.61 272.79 246.848C273.162 247.086 273.457 247.427 273.64 247.829L280.422 262.822C280.579 263.174 280.647 263.56 280.618 263.945C280.59 264.33 280.466 264.701 280.258 265.026C280.05 265.351 279.764 265.619 279.427 265.806C279.089 265.994 278.711 266.094 278.325 266.098V266.044Z" fill="white"/>
<path opacity="0.2" d="M278.325 266.044H261.126C260.584 266.043 260.06 265.851 259.646 265.502C259.233 265.152 258.956 264.667 258.866 264.133L256.267 249.139C256.215 248.842 256.223 248.537 256.289 248.242C256.356 247.948 256.48 247.669 256.654 247.422C256.829 247.176 257.05 246.966 257.306 246.805C257.562 246.645 257.847 246.536 258.145 246.486H258.538H271.544C271.985 246.484 272.418 246.61 272.79 246.848C273.162 247.086 273.457 247.427 273.64 247.829L280.422 262.822C280.579 263.174 280.647 263.56 280.618 263.945C280.59 264.33 280.466 264.701 280.258 265.026C280.05 265.351 279.764 265.619 279.427 265.806C279.09 265.994 278.711 266.094 278.325 266.098V266.044Z" fill="white"/>
<path d="M260.558 246.42H258.538C258.236 246.419 257.937 246.477 257.657 246.592C257.378 246.706 257.124 246.875 256.91 247.088C256.696 247.301 256.526 247.555 256.41 247.834C256.294 248.112 256.234 248.412 256.234 248.714C256.223 248.844 256.223 248.976 256.234 249.107L258.833 264.1C258.922 264.634 259.198 265.119 259.612 265.467C260.027 265.816 260.552 266.005 261.094 266H263.125C262.583 266.005 262.058 265.816 261.644 265.467C261.229 265.119 260.953 264.634 260.864 264.1L258.265 249.107C258.212 248.809 258.219 248.504 258.285 248.208C258.35 247.913 258.474 247.634 258.649 247.387C258.824 247.14 259.046 246.93 259.303 246.77C259.559 246.61 259.845 246.502 260.144 246.453C260.281 246.43 260.419 246.419 260.558 246.42Z" fill="#263238"/>
<path d="M296.933 270.237L281.645 236.308H279.625L294.913 270.237C295.273 271.029 295.459 271.889 295.459 272.759V274.518C295.456 274.954 295.281 275.372 294.972 275.68C294.664 275.989 294.246 276.164 293.81 276.166H295.841C296.277 276.164 296.695 275.989 297.004 275.68C297.312 275.372 297.487 274.954 297.49 274.518V272.759C297.486 271.888 297.297 271.028 296.933 270.237Z" fill="#263238"/>
<path opacity="0.2" d="M279.57 236.287H243.764L245.172 244.389H283.239L279.57 236.287Z" fill="black"/>
<path d="M330.938 239.847H178.178C176.846 239.867 175.559 239.36 174.6 238.435C173.64 237.51 173.085 236.243 173.057 234.911C173.04 234.689 173.04 234.466 173.057 234.245L182.71 123.854C182.86 122.34 183.561 120.933 184.681 119.902C185.8 118.871 187.26 118.288 188.781 118.263H341.574C342.235 118.249 342.892 118.365 343.508 118.606C344.124 118.846 344.686 119.207 345.162 119.665C345.638 120.124 346.019 120.673 346.282 121.279C346.545 121.886 346.686 122.538 346.696 123.199C346.712 123.417 346.712 123.636 346.696 123.854L337.031 234.256C336.879 235.773 336.174 237.181 335.05 238.212C333.926 239.243 332.463 239.825 330.938 239.847Z" fill="#263238"/>
<path d="M174.127 222.32L173.035 234.256C172.959 234.912 173.013 235.577 173.195 236.212C173.377 236.847 173.683 237.44 174.095 237.957C174.507 238.473 175.017 238.903 175.596 239.222C176.175 239.541 176.811 239.742 177.468 239.814C177.686 239.836 177.906 239.836 178.123 239.814H330.894C332.416 239.789 333.875 239.206 334.995 238.175C336.114 237.144 336.816 235.737 336.966 234.223L338.058 222.287L174.127 222.32Z" fill="#407BFF"/>
<path opacity="0.7" d="M174.127 222.32L173.035 234.256C172.959 234.912 173.013 235.577 173.195 236.212C173.377 236.847 173.683 237.44 174.095 237.957C174.507 238.473 175.017 238.903 175.596 239.222C176.175 239.541 176.811 239.742 177.468 239.814C177.686 239.836 177.906 239.836 178.123 239.814H330.894C332.416 239.789 333.875 239.206 334.995 238.175C336.114 237.144 336.816 235.737 336.966 234.223L338.058 222.287L174.127 222.32Z" fill="white"/>
<path d="M332.663 218.946H180.1C179.742 218.953 179.386 218.889 179.053 218.759C178.719 218.628 178.415 218.433 178.157 218.184C177.899 217.936 177.693 217.639 177.551 217.31C177.408 216.982 177.332 216.628 177.326 216.27C177.315 216.154 177.315 216.037 177.326 215.921L185.309 124.684C185.391 123.867 185.77 123.108 186.373 122.551C186.977 121.994 187.763 121.677 188.585 121.659H341.181C341.539 121.652 341.895 121.716 342.228 121.846C342.561 121.977 342.866 122.172 343.123 122.421C343.381 122.669 343.587 122.967 343.73 123.295C343.872 123.623 343.949 123.977 343.954 124.335C343.954 124.444 343.954 124.564 343.954 124.684L335.972 215.921C335.886 216.743 335.502 217.505 334.892 218.062C334.283 218.62 333.489 218.934 332.663 218.946Z" fill="#407BFF"/>
<path d="M332.663 218.946H180.1C179.742 218.953 179.386 218.889 179.053 218.759C178.719 218.628 178.415 218.433 178.157 218.184C177.899 217.936 177.693 217.639 177.551 217.31C177.408 216.982 177.332 216.628 177.326 216.27C177.315 216.154 177.315 216.037 177.326 215.921L185.309 124.684C185.391 123.867 185.77 123.108 186.373 122.551C186.977 121.994 187.763 121.677 188.585 121.659H341.181C341.539 121.652 341.895 121.716 342.228 121.846C342.561 121.977 342.866 122.172 343.123 122.421C343.381 122.669 343.587 122.967 343.73 123.295C343.872 123.623 343.949 123.977 343.954 124.335C343.954 124.444 343.954 124.564 343.954 124.684L335.972 215.921C335.886 216.743 335.502 217.505 334.892 218.062C334.283 218.62 333.489 218.934 332.663 218.946Z" fill="#F47E20"/>
<path d="M344.959 118.285H341.574C342.235 118.271 342.892 118.387 343.508 118.628C344.124 118.868 344.686 119.228 345.162 119.687C345.638 120.146 346.018 120.694 346.281 121.301C346.545 121.907 346.685 122.56 346.695 123.221C346.712 123.439 346.712 123.658 346.695 123.876L337.031 234.256C336.881 235.77 336.18 237.177 335.06 238.208C333.941 239.238 332.481 239.822 330.959 239.847H334.345C335.865 239.822 337.323 239.238 338.441 238.207C339.559 237.176 340.258 235.769 340.405 234.256L350.069 123.865C350.142 123.209 350.085 122.545 349.901 121.911C349.717 121.277 349.41 120.686 348.997 120.17C348.584 119.655 348.074 119.226 347.495 118.908C346.917 118.591 346.281 118.39 345.625 118.318L344.959 118.285Z" fill="#407BFF"/>
<path opacity="0.2" d="M344.959 118.285H341.574C342.235 118.271 342.892 118.387 343.508 118.628C344.124 118.868 344.686 119.228 345.162 119.687C345.638 120.146 346.018 120.694 346.281 121.301C346.545 121.907 346.685 122.56 346.695 123.221C346.712 123.439 346.712 123.658 346.695 123.876L337.031 234.256C336.881 235.77 336.18 237.177 335.06 238.208C333.941 239.238 332.481 239.822 330.959 239.847H334.345C335.865 239.822 337.323 239.238 338.441 238.207C339.559 237.176 340.258 235.769 340.405 234.256L350.069 123.865C350.142 123.209 350.085 122.545 349.901 121.911C349.717 121.277 349.41 120.686 348.997 120.17C348.584 119.655 348.074 119.226 347.495 118.908C346.917 118.591 346.281 118.39 345.625 118.318L344.959 118.285Z" fill="white"/>
<path d="M217.872 218.269H287.869L295.906 126.377H225.92L217.872 218.269Z" fill="#407BFF"/>
<path opacity="0.7" d="M217.872 218.269H287.869L295.906 126.377H225.92L217.872 218.269Z" fill="white"/>
<path d="M243.141 138.225H278.402C278.628 138.221 278.845 138.134 279.012 137.982C279.179 137.829 279.284 137.62 279.308 137.395C279.317 137.291 279.304 137.186 279.27 137.087C279.237 136.987 279.183 136.897 279.112 136.819C279.041 136.742 278.955 136.681 278.859 136.639C278.763 136.597 278.659 136.576 278.554 136.576H243.283C243.058 136.58 242.843 136.665 242.676 136.816C242.509 136.966 242.403 137.172 242.376 137.395C242.366 137.501 242.377 137.608 242.411 137.71C242.445 137.811 242.5 137.904 242.572 137.982C242.644 138.061 242.732 138.123 242.83 138.165C242.928 138.207 243.034 138.227 243.141 138.225Z" fill="#263238"/>
<path d="M231.282 183.183H274.471C274.697 183.179 274.914 183.092 275.081 182.939C275.248 182.786 275.353 182.578 275.377 182.353C275.386 182.248 275.373 182.142 275.339 182.042C275.304 181.942 275.249 181.85 275.177 181.773C275.105 181.696 275.018 181.635 274.92 181.593C274.823 181.552 274.718 181.532 274.613 181.534H231.424C231.2 181.535 230.984 181.62 230.819 181.771C230.654 181.923 230.55 182.13 230.529 182.353C230.516 182.458 230.526 182.565 230.559 182.666C230.591 182.768 230.645 182.861 230.716 182.939C230.788 183.018 230.875 183.081 230.973 183.123C231.07 183.164 231.176 183.185 231.282 183.183Z" fill="#263238"/>
<path d="M230.856 187.987H280.182C280.407 187.986 280.624 187.899 280.79 187.746C280.956 187.592 281.058 187.383 281.077 187.158C281.088 187.053 281.076 186.947 281.043 186.847C281.01 186.747 280.956 186.656 280.885 186.578C280.814 186.501 280.727 186.439 280.63 186.398C280.533 186.357 280.429 186.336 280.324 186.339H231.009C230.784 186.342 230.569 186.427 230.402 186.578C230.235 186.729 230.129 186.934 230.103 187.158C230.092 187.263 230.103 187.369 230.136 187.469C230.169 187.57 230.223 187.662 230.294 187.74C230.365 187.819 230.452 187.881 230.549 187.924C230.646 187.966 230.75 187.988 230.856 187.987Z" fill="#263238"/>
<path d="M230.441 192.792H279.767C279.991 192.786 280.206 192.698 280.37 192.545C280.535 192.393 280.639 192.186 280.662 191.962C280.675 191.857 280.665 191.75 280.632 191.649C280.6 191.547 280.546 191.454 280.475 191.376C280.403 191.297 280.316 191.235 280.218 191.193C280.121 191.151 280.015 191.13 279.909 191.132H230.583C230.358 191.137 230.143 191.224 229.977 191.377C229.812 191.53 229.709 191.738 229.688 191.962C229.675 192.068 229.686 192.175 229.718 192.276C229.75 192.377 229.804 192.47 229.875 192.549C229.947 192.628 230.034 192.69 230.132 192.732C230.23 192.774 230.335 192.795 230.441 192.792Z" fill="#263238"/>
<path d="M230.015 197.608H279.341C279.567 197.606 279.784 197.52 279.949 197.366C280.115 197.213 280.217 197.003 280.236 196.778C280.249 196.673 280.239 196.566 280.206 196.464C280.174 196.363 280.12 196.27 280.049 196.191C279.977 196.113 279.89 196.05 279.792 196.008C279.695 195.966 279.589 195.946 279.483 195.948H230.168C229.942 195.952 229.725 196.039 229.558 196.192C229.391 196.344 229.286 196.553 229.262 196.778C229.251 196.883 229.262 196.99 229.296 197.09C229.329 197.19 229.382 197.283 229.453 197.361C229.524 197.439 229.611 197.502 229.708 197.544C229.805 197.587 229.909 197.609 230.015 197.608Z" fill="#263238"/>
<path d="M229.644 202.402H272.833C273.059 202.398 273.276 202.311 273.443 202.158C273.61 202.006 273.715 201.797 273.739 201.572C273.75 201.467 273.738 201.361 273.705 201.26C273.672 201.16 273.618 201.067 273.547 200.989C273.476 200.911 273.389 200.848 273.293 200.806C273.196 200.763 273.091 200.741 272.985 200.742H229.742C229.517 200.746 229.301 200.833 229.136 200.986C228.971 201.139 228.868 201.348 228.847 201.572C228.833 201.681 228.845 201.792 228.879 201.897C228.914 202.001 228.972 202.097 229.048 202.176C229.125 202.256 229.218 202.317 229.321 202.356C229.424 202.395 229.534 202.411 229.644 202.402Z" fill="#263238"/>
<path d="M229.174 207.196H278.5C278.725 207.194 278.942 207.11 279.109 206.959C279.277 206.808 279.382 206.601 279.406 206.377C279.417 206.271 279.405 206.163 279.372 206.062C279.338 205.961 279.283 205.868 279.211 205.79C279.139 205.711 279.051 205.649 278.953 205.607C278.855 205.565 278.749 205.545 278.642 205.547H229.327C229.101 205.551 228.884 205.637 228.717 205.79C228.55 205.943 228.445 206.152 228.421 206.377C228.41 206.481 228.422 206.587 228.455 206.687C228.488 206.787 228.542 206.879 228.613 206.956C228.684 207.034 228.771 207.095 228.868 207.136C228.965 207.178 229.069 207.198 229.174 207.196Z" fill="#263238"/>
<path d="M228.759 212.001H278.085C278.308 211.996 278.523 211.911 278.688 211.76C278.852 211.609 278.957 211.404 278.98 211.182C278.993 211.076 278.983 210.969 278.95 210.868C278.918 210.767 278.864 210.674 278.793 210.595C278.721 210.516 278.634 210.454 278.536 210.412C278.439 210.37 278.333 210.349 278.227 210.352H228.901C228.676 210.356 228.461 210.443 228.296 210.596C228.13 210.749 228.027 210.957 228.006 211.182C227.995 211.286 228.007 211.392 228.04 211.492C228.073 211.592 228.127 211.683 228.198 211.761C228.269 211.838 228.356 211.9 228.453 211.941C228.55 211.982 228.654 212.003 228.759 212.001Z" fill="#263238"/>
<path d="M246.788 143.718H273.794C274.019 143.716 274.236 143.63 274.402 143.476C274.568 143.323 274.67 143.113 274.689 142.888C274.702 142.782 274.691 142.675 274.659 142.574C274.627 142.473 274.573 142.38 274.501 142.301C274.43 142.223 274.343 142.16 274.245 142.118C274.147 142.076 274.042 142.056 273.936 142.058H246.93C246.706 142.065 246.492 142.152 246.327 142.305C246.162 142.458 246.059 142.665 246.035 142.888C246.022 142.993 246.033 143.1 246.065 143.202C246.097 143.303 246.151 143.396 246.223 143.475C246.294 143.553 246.381 143.616 246.479 143.658C246.577 143.7 246.682 143.72 246.788 143.718Z" fill="#263238"/>
<path d="M250.719 149.2H268.956C269.18 149.196 269.396 149.111 269.563 148.96C269.729 148.81 269.836 148.604 269.862 148.381C269.873 148.275 269.861 148.167 269.827 148.066C269.794 147.965 269.739 147.872 269.667 147.794C269.595 147.715 269.506 147.653 269.408 147.611C269.31 147.569 269.204 147.549 269.098 147.551H250.861C250.636 147.553 250.419 147.639 250.253 147.792C250.087 147.946 249.985 148.156 249.966 148.381C249.955 148.485 249.967 148.591 250 148.691C250.033 148.791 250.087 148.883 250.158 148.96C250.229 149.037 250.316 149.099 250.413 149.14C250.51 149.181 250.614 149.202 250.719 149.2Z" fill="#263238"/>
<g opacity="0.4">
<path d="M243.141 138.225H278.402C278.628 138.221 278.845 138.134 279.012 137.982C279.179 137.829 279.284 137.62 279.308 137.395C279.317 137.291 279.304 137.186 279.27 137.087C279.237 136.987 279.183 136.897 279.112 136.819C279.041 136.742 278.955 136.681 278.859 136.639C278.763 136.597 278.659 136.576 278.554 136.576H243.283C243.058 136.58 242.843 136.665 242.676 136.816C242.509 136.966 242.403 137.172 242.376 137.395C242.366 137.501 242.377 137.608 242.411 137.71C242.445 137.811 242.5 137.904 242.572 137.982C242.644 138.061 242.732 138.123 242.83 138.165C242.928 138.207 243.034 138.227 243.141 138.225Z" fill="white"/>
<path d="M231.282 183.183H274.471C274.697 183.179 274.914 183.092 275.081 182.939C275.248 182.786 275.353 182.578 275.377 182.353C275.386 182.248 275.373 182.142 275.339 182.042C275.304 181.942 275.249 181.85 275.177 181.773C275.105 181.696 275.018 181.635 274.92 181.593C274.823 181.552 274.718 181.532 274.613 181.534H231.424C231.2 181.535 230.984 181.62 230.819 181.771C230.654 181.923 230.55 182.13 230.529 182.353C230.516 182.458 230.526 182.565 230.559 182.666C230.591 182.768 230.645 182.861 230.716 182.939C230.788 183.018 230.875 183.081 230.973 183.123C231.07 183.164 231.176 183.185 231.282 183.183Z" fill="white"/>
<path d="M230.856 187.987H280.182C280.407 187.986 280.624 187.899 280.79 187.746C280.956 187.592 281.058 187.383 281.077 187.158C281.088 187.053 281.076 186.947 281.043 186.847C281.01 186.747 280.956 186.656 280.885 186.578C280.814 186.501 280.727 186.439 280.63 186.398C280.533 186.357 280.429 186.336 280.324 186.339H231.009C230.784 186.342 230.569 186.427 230.402 186.578C230.235 186.729 230.129 186.934 230.103 187.158C230.092 187.263 230.103 187.369 230.136 187.469C230.169 187.57 230.223 187.662 230.294 187.74C230.365 187.819 230.452 187.881 230.549 187.924C230.646 187.966 230.75 187.988 230.856 187.987Z" fill="white"/>
<path d="M230.441 192.792H279.767C279.991 192.786 280.206 192.698 280.37 192.545C280.535 192.393 280.639 192.186 280.662 191.962C280.675 191.857 280.665 191.75 280.632 191.649C280.6 191.547 280.546 191.454 280.475 191.376C280.403 191.297 280.316 191.235 280.218 191.193C280.121 191.151 280.015 191.13 279.909 191.132H230.583C230.358 191.137 230.143 191.224 229.977 191.377C229.812 191.53 229.709 191.738 229.688 191.962C229.675 192.068 229.686 192.175 229.718 192.276C229.75 192.377 229.804 192.47 229.875 192.549C229.947 192.628 230.034 192.69 230.132 192.732C230.23 192.774 230.335 192.795 230.441 192.792Z" fill="white"/>
<path d="M230.015 197.608H279.341C279.567 197.606 279.784 197.52 279.949 197.366C280.115 197.213 280.217 197.003 280.236 196.778C280.249 196.673 280.239 196.566 280.206 196.464C280.174 196.363 280.12 196.27 280.049 196.191C279.977 196.113 279.89 196.05 279.792 196.008C279.695 195.966 279.589 195.946 279.483 195.948H230.168C229.942 195.952 229.725 196.039 229.558 196.192C229.391 196.344 229.286 196.553 229.262 196.778C229.251 196.883 229.262 196.99 229.296 197.09C229.329 197.19 229.382 197.283 229.453 197.361C229.524 197.439 229.611 197.502 229.708 197.544C229.805 197.587 229.909 197.609 230.015 197.608Z" fill="white"/>
<path d="M229.644 202.402H272.833C273.059 202.398 273.276 202.311 273.443 202.158C273.61 202.006 273.715 201.797 273.739 201.572C273.75 201.467 273.738 201.361 273.705 201.26C273.672 201.16 273.618 201.067 273.547 200.989C273.476 200.911 273.389 200.848 273.293 200.806C273.196 200.763 273.091 200.741 272.985 200.742H229.742C229.517 200.746 229.301 200.833 229.136 200.986C228.971 201.139 228.868 201.348 228.847 201.572C228.833 201.681 228.845 201.792 228.879 201.897C228.914 202.001 228.972 202.097 229.048 202.176C229.125 202.256 229.218 202.317 229.321 202.356C229.424 202.395 229.534 202.411 229.644 202.402Z" fill="white"/>
<path d="M229.174 207.196H278.5C278.725 207.194 278.942 207.11 279.109 206.959C279.277 206.808 279.382 206.601 279.406 206.377C279.417 206.271 279.405 206.163 279.372 206.062C279.338 205.961 279.283 205.868 279.211 205.79C279.139 205.711 279.051 205.649 278.953 205.607C278.855 205.565 278.749 205.545 278.642 205.547H229.327C229.101 205.551 228.884 205.637 228.717 205.79C228.55 205.943 228.445 206.152 228.421 206.377C228.41 206.481 228.422 206.587 228.455 206.687C228.488 206.787 228.542 206.879 228.613 206.956C228.684 207.034 228.771 207.095 228.868 207.136C228.965 207.178 229.069 207.198 229.174 207.196Z" fill="white"/>
<path d="M228.759 212.001H278.085C278.308 211.996 278.523 211.911 278.688 211.76C278.852 211.609 278.957 211.404 278.98 211.182C278.993 211.076 278.983 210.969 278.95 210.868C278.918 210.767 278.864 210.674 278.793 210.595C278.721 210.516 278.634 210.454 278.536 210.412C278.439 210.37 278.333 210.349 278.227 210.352H228.901C228.676 210.356 228.461 210.443 228.296 210.596C228.13 210.749 228.027 210.957 228.006 211.182C227.995 211.286 228.007 211.392 228.04 211.492C228.073 211.592 228.127 211.683 228.198 211.761C228.269 211.838 228.356 211.9 228.453 211.941C228.55 211.982 228.654 212.003 228.759 212.001Z" fill="white"/>
<path d="M246.788 143.718H273.794C274.019 143.716 274.236 143.63 274.402 143.476C274.568 143.323 274.67 143.113 274.689 142.888C274.702 142.782 274.691 142.675 274.659 142.574C274.627 142.473 274.573 142.38 274.501 142.301C274.43 142.223 274.343 142.16 274.245 142.118C274.147 142.076 274.042 142.056 273.936 142.058H246.93C246.706 142.065 246.492 142.152 246.327 142.305C246.162 142.458 246.059 142.665 246.035 142.888C246.022 142.993 246.033 143.1 246.065 143.202C246.097 143.303 246.151 143.396 246.223 143.475C246.294 143.553 246.381 143.616 246.479 143.658C246.577 143.7 246.682 143.72 246.788 143.718Z" fill="white"/>
<path d="M250.719 149.2H268.956C269.18 149.196 269.396 149.111 269.563 148.96C269.729 148.81 269.836 148.604 269.862 148.381C269.873 148.274 269.861 148.167 269.827 148.066C269.794 147.965 269.739 147.872 269.667 147.794C269.595 147.715 269.506 147.653 269.408 147.611C269.31 147.569 269.204 147.549 269.098 147.551H250.861C250.636 147.553 250.419 147.639 250.253 147.792C250.087 147.946 249.985 148.156 249.966 148.381C249.955 148.485 249.967 148.591 250 148.691C250.033 148.791 250.087 148.882 250.158 148.96C250.229 149.037 250.316 149.099 250.413 149.14C250.51 149.181 250.614 149.202 250.719 149.2Z" fill="white"/>
</g>
<path opacity="0.5" d="M231.162 175.146H282.136L283.84 155.588H232.865L231.162 175.146Z" fill="white"/>
<path d="M325.194 362.369H126.209V403.865H325.259C323.468 390.092 323.446 376.147 325.194 362.369Z" fill="#407BFF"/>
<path opacity="0.7" d="M325.194 362.369H126.209V403.865H325.259C323.468 390.092 323.446 376.147 325.194 362.369Z" fill="white"/>
<path d="M162.464 406.049H99.9252L99.2918 405.405C96.3284 402.443 93.9776 398.927 92.3737 395.057C90.7699 391.187 89.9443 387.039 89.9443 382.849C89.9443 378.66 90.7699 374.512 92.3737 370.642C93.9776 366.772 96.3284 363.255 99.2918 360.294L99.9252 359.661H162.464L158.74 363.385C153.581 368.549 150.683 375.55 150.683 382.849C150.683 390.149 153.581 397.15 158.74 402.314L162.464 406.049Z" fill="#407BFF"/>
<g opacity="0.3">
<path d="M162.464 406.049H99.9252L99.2918 405.405C96.3284 402.443 93.9776 398.927 92.3737 395.057C90.7699 391.187 89.9443 387.039 89.9443 382.849C89.9443 378.66 90.7699 374.512 92.3737 370.642C93.9776 366.772 96.3284 363.255 99.2918 360.294L99.9252 359.661H162.464L158.74 363.385C153.581 368.549 150.683 375.55 150.683 382.849C150.683 390.149 153.581 397.15 158.74 402.314L162.464 406.049Z" fill="black"/>
</g>
<path d="M327.236 406.049H158.325L158.14 405.863C152.23 400.081 148.72 392.281 148.312 384.023C148.151 379.639 148.901 375.269 150.513 371.188C152.126 367.108 154.566 363.406 157.681 360.316L158.325 359.683H327.236C327.815 359.683 328.371 359.913 328.78 360.322C329.19 360.732 329.42 361.287 329.42 361.867C329.42 362.446 329.19 363.001 328.78 363.411C328.371 363.821 327.815 364.051 327.236 364.051H160.16C155.383 369.155 152.725 375.885 152.725 382.877C152.725 389.868 155.383 396.598 160.16 401.703H327.236C327.815 401.703 328.371 401.933 328.78 402.342C329.19 402.752 329.42 403.308 329.42 403.887C329.414 404.462 329.182 405.012 328.773 405.417C328.364 405.822 327.812 406.049 327.236 406.049Z" fill="#407BFF"/>
<path d="M309.578 377.788H300.023C299.589 377.788 299.172 377.615 298.865 377.308C298.558 377.001 298.385 376.584 298.385 376.15C298.385 375.716 298.558 375.299 298.865 374.992C299.172 374.685 299.589 374.512 300.023 374.512H309.578C310.013 374.512 310.429 374.685 310.736 374.992C311.044 375.299 311.216 375.716 311.216 376.15C311.216 376.584 311.044 377.001 310.736 377.308C310.429 377.615 310.013 377.788 309.578 377.788Z" fill="white"/>
<path d="M287.52 377.788H198.74C198.306 377.788 197.889 377.615 197.582 377.308C197.275 377.001 197.102 376.584 197.102 376.15C197.102 375.716 197.275 375.299 197.582 374.992C197.889 374.685 198.306 374.512 198.74 374.512H287.52C287.954 374.512 288.371 374.685 288.678 374.992C288.985 375.299 289.158 375.716 289.158 376.15C289.158 376.584 288.985 377.001 288.678 377.308C288.371 377.615 287.954 377.788 287.52 377.788Z" fill="white"/>
<path d="M186.728 377.788H167.072C166.638 377.788 166.221 377.615 165.914 377.308C165.607 377.001 165.434 376.584 165.434 376.15C165.434 375.716 165.607 375.299 165.914 374.992C166.221 374.685 166.638 374.512 167.072 374.512H186.728C187.163 374.512 187.579 374.685 187.886 374.992C188.194 375.299 188.366 375.716 188.366 376.15C188.366 376.584 188.194 377.001 187.886 377.308C187.579 377.615 187.163 377.788 186.728 377.788Z" fill="white"/>
<path d="M309.578 391.667H225.494C225.06 391.667 224.643 391.495 224.336 391.188C224.029 390.88 223.856 390.464 223.856 390.029C223.856 389.595 224.029 389.178 224.336 388.871C224.643 388.564 225.06 388.391 225.494 388.391H309.578C310.013 388.391 310.429 388.564 310.737 388.871C311.044 389.178 311.216 389.595 311.216 390.029C311.216 390.464 311.044 390.88 310.737 391.188C310.429 391.495 310.013 391.667 309.578 391.667Z" fill="white"/>
<path d="M213.264 391.667H167.072C166.638 391.667 166.221 391.495 165.914 391.188C165.607 390.88 165.434 390.464 165.434 390.029C165.434 389.595 165.607 389.178 165.914 388.871C166.221 388.564 166.638 388.391 167.072 388.391H213.264C213.698 388.391 214.115 388.564 214.422 388.871C214.729 389.178 214.902 389.595 214.902 390.029C214.902 390.464 214.729 390.88 214.422 391.188C214.115 391.495 213.698 391.667 213.264 391.667Z" fill="white"/>
<path d="M319.92 278.602H140.832V315.948H319.985C318.369 303.553 318.347 291.002 319.92 278.602Z" fill="#407BFF"/>
<path opacity="0.8" d="M319.92 278.602H140.832V315.948H319.985C318.369 303.553 318.347 291.002 319.92 278.602Z" fill="white"/>
<path d="M173.46 317.914H117.168L116.589 317.335C113.923 314.67 111.809 311.506 110.366 308.024C108.924 304.542 108.181 300.809 108.181 297.04C108.181 293.271 108.924 289.539 110.366 286.056C111.809 282.574 113.923 279.41 116.589 276.745L117.168 276.167H173.449L170.108 279.508C165.466 284.158 162.859 290.459 162.859 297.029C162.859 303.599 165.466 309.901 170.108 314.55L173.46 317.914Z" fill="#1F61F4"/>
<path d="M321.754 317.914H169.737L169.584 317.728C164.277 312.52 161.133 305.499 160.782 298.072C160.628 294.13 161.294 290.2 162.738 286.529C164.181 282.858 166.371 279.526 169.169 276.745L169.748 276.167H321.754C322.276 276.167 322.775 276.374 323.144 276.742C323.513 277.111 323.72 277.611 323.72 278.132C323.72 278.653 323.513 279.153 323.144 279.522C322.775 279.891 322.276 280.098 321.754 280.098H171.375C167.084 284.689 164.697 290.739 164.697 297.024C164.697 303.308 167.084 309.358 171.375 313.95H321.754C322.276 313.95 322.775 314.157 323.144 314.525C323.513 314.894 323.72 315.394 323.72 315.915C323.724 316.176 323.677 316.435 323.58 316.678C323.483 316.92 323.339 317.14 323.156 317.326C322.973 317.512 322.755 317.66 322.514 317.761C322.273 317.862 322.015 317.914 321.754 317.914Z" fill="#407BFF"/>
<g opacity="0.4">
<path d="M321.754 317.914H169.737L169.584 317.728C164.277 312.52 161.133 305.499 160.782 298.072C160.628 294.13 161.294 290.2 162.738 286.529C164.181 282.858 166.371 279.526 169.169 276.745L169.748 276.167H321.754C322.276 276.167 322.775 276.374 323.144 276.742C323.513 277.111 323.72 277.611 323.72 278.132C323.72 278.653 323.513 279.153 323.144 279.522C322.775 279.891 322.276 280.098 321.754 280.098H171.375C167.084 284.689 164.697 290.739 164.697 297.024C164.697 303.308 167.084 309.358 171.375 313.95H321.754C322.276 313.95 322.775 314.157 323.144 314.525C323.513 314.894 323.72 315.394 323.72 315.915C323.724 316.176 323.677 316.435 323.58 316.678C323.483 316.92 323.339 317.14 323.156 317.326C322.973 317.512 322.755 317.66 322.514 317.761C322.273 317.862 322.015 317.914 321.754 317.914Z" fill="white"/>
</g>
<path d="M305.865 292.525H297.26C296.869 292.525 296.494 292.369 296.218 292.093C295.941 291.816 295.786 291.441 295.786 291.051C295.786 290.857 295.824 290.665 295.898 290.486C295.972 290.307 296.081 290.145 296.218 290.008C296.355 289.871 296.517 289.763 296.696 289.688C296.875 289.614 297.067 289.576 297.26 289.576H305.865C306.059 289.576 306.251 289.614 306.429 289.688C306.608 289.763 306.771 289.871 306.908 290.008C307.045 290.145 307.153 290.307 307.227 290.486C307.301 290.665 307.339 290.857 307.339 291.051C307.339 291.441 307.184 291.816 306.908 292.093C306.631 292.369 306.256 292.525 305.865 292.525Z" fill="white"/>
<path d="M285.958 292.525H206.111C205.917 292.526 205.725 292.489 205.546 292.415C205.366 292.342 205.203 292.233 205.066 292.096C204.929 291.959 204.82 291.796 204.747 291.616C204.673 291.437 204.636 291.244 204.637 291.05C204.636 290.856 204.673 290.664 204.747 290.485C204.82 290.305 204.929 290.142 205.066 290.005C205.203 289.868 205.366 289.759 205.546 289.686C205.725 289.612 205.917 289.575 206.111 289.576H285.958C286.152 289.575 286.345 289.612 286.524 289.686C286.704 289.759 286.867 289.868 287.004 290.005C287.141 290.142 287.25 290.305 287.323 290.485C287.397 290.664 287.434 290.856 287.433 291.05C287.434 291.244 287.397 291.437 287.323 291.616C287.25 291.796 287.141 291.959 287.004 292.096C286.867 292.233 286.704 292.342 286.524 292.415C286.345 292.489 286.152 292.526 285.958 292.525Z" fill="white"/>
<path d="M195.3 292.525H177.61C177.416 292.526 177.224 292.489 177.044 292.415C176.865 292.342 176.702 292.233 176.564 292.096C176.427 291.959 176.319 291.796 176.245 291.616C176.171 291.437 176.134 291.244 176.136 291.05C176.134 290.856 176.171 290.664 176.245 290.485C176.319 290.305 176.427 290.142 176.564 290.005C176.702 289.868 176.865 289.759 177.044 289.686C177.224 289.612 177.416 289.575 177.61 289.576H195.3C195.494 289.575 195.687 289.612 195.866 289.686C196.046 289.759 196.209 289.868 196.346 290.005C196.483 290.142 196.592 290.305 196.665 290.485C196.739 290.664 196.776 290.856 196.775 291.05C196.776 291.244 196.739 291.437 196.665 291.616C196.592 291.796 196.483 291.959 196.346 292.096C196.209 292.233 196.046 292.342 195.866 292.415C195.687 292.489 195.494 292.526 195.3 292.525Z" fill="white"/>
<path d="M305.866 304.973H230.19C229.996 304.975 229.804 304.938 229.624 304.864C229.445 304.791 229.282 304.682 229.144 304.545C229.007 304.408 228.899 304.245 228.825 304.065C228.752 303.886 228.714 303.693 228.716 303.499C228.714 303.305 228.752 303.113 228.825 302.933C228.899 302.754 229.007 302.591 229.144 302.454C229.282 302.316 229.445 302.208 229.624 302.134C229.804 302.061 229.996 302.024 230.19 302.025H305.866C306.257 302.025 306.632 302.18 306.908 302.457C307.185 302.733 307.34 303.108 307.34 303.499C307.34 303.89 307.185 304.265 306.908 304.542C306.632 304.818 306.257 304.973 305.866 304.973Z" fill="white"/>
<path d="M219.128 304.973H177.632C177.439 304.978 177.247 304.944 177.067 304.874C176.887 304.803 176.723 304.698 176.584 304.564C176.445 304.43 176.333 304.27 176.257 304.093C176.18 303.916 176.139 303.725 176.136 303.532C176.134 303.338 176.171 303.146 176.245 302.966C176.319 302.787 176.427 302.624 176.564 302.486C176.702 302.349 176.865 302.241 177.044 302.167C177.224 302.094 177.416 302.056 177.61 302.058H219.106C219.3 302.056 219.492 302.094 219.672 302.167C219.851 302.241 220.014 302.349 220.152 302.486C220.289 302.624 220.397 302.787 220.471 302.966C220.544 303.146 220.582 303.338 220.58 303.532C220.574 303.914 220.419 304.279 220.148 304.549C219.876 304.818 219.51 304.971 219.128 304.973Z" fill="white"/>
<path d="M326.22 320.349H147.132V357.695H326.286C324.67 345.3 324.648 332.749 326.22 320.349Z" fill="#407BFF"/>
<path opacity="0.7" d="M326.22 320.349H147.132V357.695H326.286C324.67 345.3 324.648 332.749 326.22 320.349Z" fill="white"/>
<path d="M179.772 359.661H123.48L122.912 359.082C120.246 356.417 118.132 353.253 116.689 349.771C115.246 346.289 114.504 342.556 114.504 338.787C114.504 335.018 115.246 331.286 116.689 327.804C118.132 324.321 120.246 321.157 122.912 318.492L123.48 317.914H179.772L176.42 321.266C174.117 323.566 172.291 326.298 171.045 329.304C169.799 332.31 169.157 335.533 169.157 338.787C169.157 342.042 169.799 345.264 171.045 348.271C172.291 351.277 174.117 354.008 176.42 356.308L179.772 359.661Z" fill="#407BFF"/>
<path d="M328.066 359.661H176.038L175.874 359.497C170.567 354.289 167.423 347.268 167.072 339.841C166.922 335.9 167.59 331.97 169.033 328.3C170.477 324.629 172.665 321.298 175.459 318.514L176.038 317.935H328.066C328.586 317.938 329.085 318.146 329.453 318.514C329.821 318.882 330.029 319.381 330.032 319.901C330.029 320.421 329.821 320.92 329.453 321.288C329.085 321.656 328.586 321.864 328.066 321.867H177.687C173.388 326.454 170.996 332.506 170.996 338.793C170.996 345.08 173.388 351.131 177.687 355.719H328.066C328.324 355.719 328.58 355.77 328.818 355.868C329.057 355.967 329.273 356.112 329.456 356.294C329.638 356.477 329.783 356.694 329.882 356.932C329.981 357.171 330.032 357.426 330.032 357.684C330.032 358.207 329.825 358.708 329.457 359.078C329.088 359.448 328.588 359.658 328.066 359.661Z" fill="#407BFF"/>
<g opacity="0.3">
<path d="M328.066 359.661H176.038L175.874 359.497C170.567 354.289 167.423 347.268 167.072 339.841C166.922 335.9 167.59 331.97 169.033 328.3C170.477 324.629 172.665 321.298 175.459 318.514L176.038 317.935H328.066C328.586 317.938 329.085 318.146 329.453 318.514C329.821 318.882 330.029 319.381 330.032 319.901C330.029 320.421 329.821 320.92 329.453 321.288C329.085 321.656 328.586 321.864 328.066 321.867H177.687C173.388 326.454 170.996 332.506 170.996 338.793C170.996 345.08 173.388 351.131 177.687 355.719H328.066C328.324 355.719 328.58 355.77 328.818 355.868C329.057 355.967 329.273 356.112 329.456 356.294C329.638 356.477 329.783 356.694 329.882 356.932C329.981 357.171 330.032 357.426 330.032 357.684C330.032 358.207 329.825 358.708 329.457 359.078C329.088 359.448 328.588 359.658 328.066 359.661Z" fill="white"/>
</g>
<path d="M183.911 343.772H192.516C192.907 343.772 193.282 343.928 193.558 344.204C193.835 344.48 193.99 344.855 193.99 345.246C193.987 345.637 193.831 346.01 193.555 346.286C193.279 346.562 192.906 346.718 192.516 346.721H183.911C183.521 346.718 183.147 346.562 182.871 346.286C182.596 346.01 182.439 345.637 182.437 345.246C182.437 344.855 182.592 344.48 182.868 344.204C183.145 343.928 183.52 343.772 183.911 343.772Z" fill="white"/>
<path d="M203.818 343.772H283.665C283.859 343.771 284.051 343.808 284.231 343.881C284.41 343.955 284.573 344.064 284.711 344.201C284.848 344.338 284.956 344.501 285.03 344.681C285.104 344.86 285.141 345.052 285.139 345.246C285.139 345.44 285.101 345.632 285.027 345.811C284.953 345.989 284.844 346.152 284.707 346.289C284.571 346.426 284.408 346.534 284.229 346.608C284.05 346.683 283.859 346.721 283.665 346.721H203.818C203.624 346.721 203.433 346.683 203.254 346.608C203.075 346.534 202.912 346.426 202.776 346.289C202.639 346.152 202.53 345.989 202.456 345.811C202.382 345.632 202.344 345.44 202.344 345.246C202.342 345.052 202.379 344.86 202.453 344.681C202.527 344.501 202.635 344.338 202.772 344.201C202.91 344.064 203.073 343.955 203.252 343.881C203.432 343.808 203.624 343.771 203.818 343.772Z" fill="white"/>
<path d="M294.476 343.772H312.166C312.36 343.771 312.553 343.808 312.732 343.881C312.912 343.955 313.075 344.064 313.212 344.201C313.349 344.338 313.458 344.501 313.531 344.681C313.605 344.86 313.642 345.052 313.641 345.246C313.641 345.44 313.602 345.632 313.528 345.811C313.454 345.989 313.346 346.152 313.209 346.289C313.072 346.426 312.909 346.534 312.731 346.608C312.552 346.683 312.36 346.721 312.166 346.721H294.476C294.281 346.722 294.088 346.685 293.907 346.612C293.726 346.538 293.562 346.43 293.423 346.293C293.284 346.157 293.173 345.994 293.097 345.814C293.021 345.634 292.981 345.441 292.98 345.246C292.98 345.051 293.019 344.857 293.094 344.677C293.17 344.497 293.28 344.333 293.419 344.196C293.559 344.059 293.724 343.951 293.905 343.878C294.087 343.805 294.281 343.769 294.476 343.772Z" fill="white"/>
<path d="M183.911 331.323H259.586C259.78 331.322 259.973 331.359 260.152 331.433C260.332 331.506 260.495 331.615 260.632 331.752C260.769 331.889 260.878 332.052 260.951 332.232C261.025 332.411 261.062 332.604 261.061 332.798C261.061 332.991 261.022 333.183 260.948 333.362C260.874 333.541 260.766 333.703 260.629 333.84C260.492 333.977 260.329 334.086 260.15 334.16C259.972 334.234 259.78 334.272 259.586 334.272H183.911C183.521 334.269 183.147 334.113 182.871 333.837C182.596 333.561 182.439 333.188 182.437 332.798C182.437 332.407 182.592 332.032 182.868 331.755C183.145 331.479 183.52 331.323 183.911 331.323Z" fill="white"/>
<path d="M270.649 331.323H312.145C312.339 331.322 312.531 331.359 312.71 331.433C312.89 331.506 313.053 331.615 313.19 331.752C313.327 331.889 313.436 332.052 313.509 332.232C313.583 332.411 313.62 332.604 313.619 332.798C313.619 333.189 313.463 333.564 313.187 333.84C312.911 334.117 312.536 334.272 312.145 334.272H270.649C270.455 334.272 270.263 334.234 270.084 334.16C269.906 334.086 269.743 333.977 269.606 333.84C269.469 333.703 269.361 333.541 269.287 333.362C269.212 333.183 269.174 332.991 269.174 332.798C269.173 332.604 269.21 332.411 269.284 332.232C269.357 332.052 269.466 331.889 269.603 331.752C269.74 331.615 269.903 331.506 270.083 331.433C270.262 331.359 270.455 331.322 270.649 331.323Z" fill="white"/>
</g>
<defs>
<clipPath id="clip0_12_4273">
<rect width="452" height="448" fill="white"/>
</clipPath>
</defs>
</svg>
