<svg width="48" height="48" viewBox="0 0 48 48" fill="none" xmlns="http://www.w3.org/2000/svg">
<rect width="48" height="48" rx="24" fill="#2F5FAC"/>
<path d="M24.0002 16.3608C19.7813 16.3608 16.3613 19.7808 16.3613 23.9997C16.3613 27.8123 19.1549 30.9725 22.807 31.5462V26.2074H20.8667V23.9997H22.807V22.3169C22.807 20.4026 23.9467 19.3454 25.6922 19.3454C26.5279 19.3454 27.4018 19.4943 27.4018 19.4943V21.3735H26.4393C25.4898 21.3735 25.1942 21.9624 25.1942 22.5667V23.9997H27.3124L26.974 26.2074H25.1942V31.5462C28.8456 30.9733 31.6391 27.8115 31.6391 23.9997C31.6391 19.7808 28.2192 16.3608 24.0002 16.3608Z" fill="white"/>
</svg>
