<svg width="592" height="450" viewBox="0 0 592 450" fill="none" xmlns="http://www.w3.org/2000/svg">
<g opacity="0.8">
<g opacity="0.5">
<g opacity="0.5">
<g opacity="0.5">
<g opacity="0.5">
<path opacity="0.5" d="M584.252 105.135C588.531 105.135 592 101.397 592 96.7866C592 92.1761 588.531 88.4385 584.252 88.4385C579.972 88.4385 576.503 92.1761 576.503 96.7866C576.503 101.397 579.972 105.135 584.252 105.135Z" fill="white" fill-opacity="0.2"/>
</g>
</g>
</g>
</g>
<g opacity="0.8">
<g opacity="0.8">
<path opacity="0.8" d="M573.062 23.8265C573.959 18.3229 570.223 13.135 564.72 12.2389C559.216 11.3428 554.028 15.0779 553.132 20.5815C552.236 26.0851 555.971 31.273 561.475 32.1691C566.978 33.0652 572.166 29.3301 573.062 23.8265Z" fill="white" fill-opacity="0.2"/>
</g>
</g>
<g opacity="0.8">
<g opacity="0.8">
<path opacity="0.8" d="M108.721 33.8596C110.242 39.2802 107.076 44.9181 101.656 46.4387C96.235 47.9594 90.5972 44.7939 89.0765 39.3733C87.5558 33.9528 90.7213 28.3149 96.1419 26.7943C101.562 25.2633 107.2 28.4287 108.721 33.8596Z" fill="white" fill-opacity="0.2"/>
</g>
</g>
<g opacity="0.8">
<g opacity="0.8">
<g opacity="0.8">
<g opacity="0.8">
<path opacity="0.8" d="M512.359 337.796C514.614 336.927 517.221 337.765 518.472 339.845C520.593 343.383 517.727 348.338 512.421 347.365C507.559 345.007 508.397 339.327 512.359 337.796Z" fill="white" fill-opacity="0.2"/>
</g>
</g>
</g>
</g>
<g opacity="0.8">
<g opacity="0.8">
<path opacity="0.8" d="M540.96 324.274C543.463 329.322 541.404 335.446 536.356 337.95C531.308 340.453 525.184 338.395 522.681 333.346C520.177 328.298 522.236 322.174 527.284 319.671C532.332 317.167 538.456 319.226 540.96 324.274Z" fill="white" fill-opacity="0.2"/>
</g>
</g>
<g opacity="0.8">
<g opacity="0.8">
<path opacity="0.8" d="M544.054 12.9628C547.487 12.9628 550.271 10.1793 550.271 6.74569C550.271 3.31207 547.487 0.528564 544.054 0.528564C540.62 0.528564 537.836 3.31207 537.836 6.74569C537.836 10.1793 540.62 12.9628 544.054 12.9628Z" fill="white" fill-opacity="0.2"/>
</g>
</g>
</g>
<path d="M471.309 390.908H449.745V413.25H474.958V394.543C474.958 392.54 473.319 390.908 471.309 390.908Z" fill="#CED3E6"/>
<path d="M409.242 343.029H334.393V390.908H409.242V343.029Z" fill="#CED3E6"/>
<path d="M466.475 413.25H259.983V404.956C259.983 397.199 266.297 390.908 274.081 390.908H452.368C460.152 390.908 466.466 397.199 466.466 404.956V413.25H466.475Z" fill="white"/>
<path d="M400.078 343.029H325.229V390.908H400.078V343.029Z" fill="white"/>
<path d="M325.226 357.73L400.067 351.756L400.085 343.029H325.323L325.226 357.73Z" fill="#CED3E6"/>
<path d="M532.92 145.317V333.084C532.92 338.591 528.439 343.047 522.922 343.047H203.332C197.806 343.047 193.333 338.582 193.333 333.084V145.317C193.333 139.811 197.815 135.355 203.332 135.355H522.922C528.439 135.346 532.92 139.811 532.92 145.317Z" fill="#CED3E6"/>
<path d="M532.921 145.318V319.196H502.005V135.347H522.923C528.44 135.347 532.921 139.812 532.921 145.318Z" fill="#585859"/>
<path d="M520.203 145.317V333.084C520.203 338.591 515.722 343.047 510.205 343.047H203.332C197.806 343.047 193.333 338.582 193.333 333.084V145.317C193.333 139.811 197.815 135.354 203.332 135.354H510.205C510.356 135.354 510.506 135.354 510.648 135.363C510.754 135.372 510.86 135.372 510.976 135.381H510.984C511.064 135.39 511.135 135.39 511.215 135.407C511.348 135.416 511.472 135.434 511.604 135.452C511.693 135.46 511.773 135.478 511.852 135.487C511.897 135.496 511.932 135.496 511.976 135.504C512.056 135.513 512.136 135.531 512.224 135.549C516.776 136.484 520.203 140.499 520.203 145.317Z" fill="white"/>
<path d="M512.215 135.548C512.136 135.53 512.056 135.513 511.967 135.504C511.932 135.495 511.888 135.486 511.844 135.486C511.755 135.469 511.675 135.46 511.596 135.451C511.463 135.433 511.339 135.416 511.206 135.407C511.126 135.398 511.055 135.389 510.976 135.38H510.967C510.86 135.372 510.754 135.363 510.639 135.363C510.489 135.354 510.347 135.354 510.196 135.354H203.332C197.806 135.354 193.333 139.819 193.333 145.316V319.195H520.203V145.316C520.203 140.498 516.776 136.483 512.215 135.548ZM507.238 301.82C507.238 303.32 506.025 304.529 504.52 304.529H209.017C207.512 304.529 206.298 303.32 206.298 301.82V150.973C206.298 149.473 207.512 148.264 209.017 148.264H504.52C506.025 148.264 507.238 149.473 507.238 150.973V301.82Z" fill="#39393B"/>
<path d="M507.24 150.974V301.821C507.24 303.321 506.026 304.53 504.521 304.53H209.019C207.513 304.53 206.3 303.321 206.3 301.821V150.974C206.3 149.474 207.513 148.265 209.019 148.265H504.521C506.018 148.265 507.24 149.482 507.24 150.974Z" fill="#CED3E6"/>
<path d="M507.24 150.974V165.207H206.291V150.974C206.291 149.474 207.504 148.265 209.01 148.265H504.512C506.018 148.265 507.24 149.482 507.24 150.974Z" fill="white"/>
<path d="M483.931 156.515C483.931 157.786 482.895 158.818 481.62 158.818C480.345 158.818 479.309 157.786 479.309 156.515C479.309 155.245 480.345 154.212 481.62 154.212C482.895 154.212 483.931 155.245 483.931 156.515Z" fill="#DF615C"/>
<path d="M489.103 158.818C490.38 158.818 491.415 157.787 491.415 156.515C491.415 155.243 490.38 154.212 489.103 154.212C487.827 154.212 486.792 155.243 486.792 156.515C486.792 157.787 487.827 158.818 489.103 158.818Z" fill="#5392F3"/>
<path d="M469.835 158.95H234.729C233.542 158.95 232.577 157.979 232.577 156.806V156.223C232.577 155.041 233.551 154.079 234.729 154.079H469.826C471.012 154.079 471.978 155.05 471.978 156.223V156.797C471.987 157.979 471.012 158.95 469.835 158.95Z" fill="#D2DCEC"/>
<path d="M217.158 156.515V158.774C217.158 159.091 216.812 159.294 216.538 159.136L214.581 158.006L212.623 156.877C212.349 156.718 212.349 156.321 212.623 156.162L214.581 155.032L216.538 153.903C216.812 153.744 217.158 153.947 217.158 154.265V156.515Z" fill="black"/>
<path d="M220.604 156.515V158.774C220.604 159.091 220.949 159.294 221.223 159.136L223.181 158.006L225.138 156.877C225.412 156.718 225.412 156.321 225.138 156.162L223.181 155.032L221.223 153.903C220.949 153.744 220.604 153.947 220.604 154.265V156.515Z" fill="black"/>
<path d="M494.531 158.44L494.425 158.334C494.194 158.105 494.194 157.743 494.425 157.513L497.524 154.425C497.754 154.196 498.118 154.196 498.348 154.425L498.454 154.531C498.684 154.76 498.684 155.122 498.454 155.352L495.355 158.44C495.124 158.661 494.761 158.661 494.531 158.44Z" fill="#39393B"/>
<path d="M498.348 158.44L498.454 158.334C498.684 158.105 498.684 157.743 498.454 157.513L495.355 154.425C495.124 154.196 494.761 154.196 494.531 154.425L494.425 154.531C494.194 154.76 494.194 155.122 494.425 155.352L497.524 158.44C497.754 158.661 498.126 158.661 498.348 158.44Z" fill="#39393B"/>
<path d="M466.725 298.468H246.001C242.858 298.468 240.316 295.927 240.316 292.803V174.313C240.316 171.181 242.866 168.648 246.001 168.648H466.725C469.869 168.648 472.41 171.19 472.41 174.313V292.794C472.41 295.927 469.869 298.468 466.725 298.468Z" fill="white"/>
<path d="M307.497 235.067H256.611C255.832 235.067 255.194 234.44 255.194 233.655C255.194 232.879 255.823 232.243 256.611 232.243H307.497C308.276 232.243 308.914 232.87 308.914 233.655C308.905 234.44 308.276 235.067 307.497 235.067Z" fill="#CED3E6"/>
<path d="M307.497 223.155H256.611C255.832 223.155 255.194 222.528 255.194 221.743C255.194 220.966 255.823 220.331 256.611 220.331H307.497C308.276 220.331 308.914 220.958 308.914 221.743C308.905 222.519 308.276 223.155 307.497 223.155Z" fill="#CED3E6"/>
<path d="M307.497 246.989H256.611C255.832 246.989 255.194 246.362 255.194 245.577C255.194 244.8 255.823 244.165 256.611 244.165H307.497C308.276 244.165 308.914 244.791 308.914 245.577C308.905 246.362 308.276 246.989 307.497 246.989Z" fill="#CED3E6"/>
<path d="M463.855 235.067H412.969C412.19 235.067 411.552 234.44 411.552 233.655C411.552 232.879 412.181 232.243 412.969 232.243H463.855C464.634 232.243 465.272 232.87 465.272 233.655C465.272 234.44 464.634 235.067 463.855 235.067Z" fill="#CED3E6"/>
<path d="M463.855 223.155H412.969C412.19 223.155 411.552 222.529 411.552 221.743C411.552 220.967 412.181 220.332 412.969 220.332H463.855C464.634 220.332 465.272 220.958 465.272 221.743C465.272 222.52 464.634 223.155 463.855 223.155Z" fill="#CED3E6"/>
<path d="M463.855 246.989H412.969C412.19 246.989 411.552 246.362 411.552 245.577C411.552 244.8 412.181 244.165 412.969 244.165H463.855C464.634 244.165 465.272 244.791 465.272 245.577C465.272 246.362 464.634 246.989 463.855 246.989Z" fill="#CED3E6"/>
<path d="M240.316 278.304H472.419V297.267C472.419 297.929 471.879 298.467 471.215 298.467H241.52C240.856 298.467 240.316 297.929 240.316 297.267V278.304Z" fill="#39393B"/>
<path d="M449.615 285.779V284.067H451.758V282.55H448.844C448.419 282.55 448.083 282.894 448.083 283.308V285.779H449.615Z" fill="white"/>
<path d="M449.615 288.823H448.092V291.427C448.092 291.85 448.437 292.185 448.853 292.185H451.767V290.668H449.624V288.823H449.615Z" fill="white"/>
<path d="M456.231 285.78H457.754V283.309C457.754 282.885 457.409 282.55 456.992 282.55H454.194V284.068H456.231V285.78Z" fill="white"/>
<path d="M456.231 288.823V290.659H454.194V292.176H456.992C457.417 292.176 457.754 291.832 457.754 291.418V288.814H456.231V288.823Z" fill="white"/>
<path d="M253.831 287.693V282.884L258.011 285.293L262.182 287.693L258.011 290.093L253.831 292.493V287.693Z" fill="white"/>
<path d="M276.977 292.116H275.879C275.472 292.116 275.135 291.78 275.135 291.375V284.112C275.135 283.706 275.472 283.371 275.879 283.371H276.977C277.385 283.371 277.721 283.706 277.721 284.112V291.375C277.721 291.78 277.385 292.116 276.977 292.116Z" fill="white"/>
<path d="M282.382 292.116H281.284C280.877 292.116 280.54 291.78 280.54 291.375V284.112C280.54 283.706 280.877 283.371 281.284 283.371H282.382C282.789 283.371 283.126 283.706 283.126 284.112V291.375C283.126 291.78 282.789 292.116 282.382 292.116Z" fill="white"/>
<path d="M472.42 274.51H240.316V278.305H472.42V274.51Z" fill="#CED3E6"/>
<path d="M359.41 274.519H240.316V278.314H359.41V274.519Z" fill="#DF615C"/>
<path d="M284.548 151.156C284.548 151.156 283.148 159.68 276.843 161.207C271.751 162.433 266.96 157.571 265.304 155.648C264.905 155.189 264.693 154.898 264.693 154.898C264.693 154.898 264.312 154.933 263.745 154.924C262.417 154.906 260.061 154.633 259.14 153.009C257.821 150.697 262.612 149.109 262.612 149.109C262.612 149.109 260.159 146.921 260.77 145.332C261.372 143.77 264.666 143.444 264.666 143.444C264.666 143.444 261.115 141.15 262.31 139.147C264.099 136.138 267.766 139.447 268.058 139.632C267.828 139.367 263.231 134.629 265.747 133.782C267.943 133.04 271.547 135.502 273.929 137.938C274.31 138.326 274.523 138.547 274.523 138.547C274.523 138.547 274.664 138.441 274.912 138.273C276.099 137.479 279.748 135.361 282.068 137.294C284.858 139.641 284.548 151.156 284.548 151.156Z" fill="#EA9B7A"/>
<path d="M277.968 156.391C277.809 156.461 277.623 156.461 277.472 156.355C277.242 156.205 277.18 155.897 277.34 155.667C278.172 154.441 278.429 153.179 278.101 151.935C277.269 148.74 272.983 146.534 272.938 146.508C272.69 146.384 272.593 146.084 272.717 145.837C272.841 145.59 273.142 145.493 273.39 145.617C273.585 145.714 278.119 148.052 279.066 151.679C279.465 153.214 279.164 154.741 278.163 156.214C278.119 156.294 278.048 156.355 277.968 156.391Z" fill="#D96C63"/>
<path d="M273.592 144.098C273.592 144.689 273.344 145.157 272.884 145.457C272.787 145.519 272.68 145.572 272.556 145.625C272.3 145.722 271.99 145.792 271.653 145.828C271.901 145.986 272.122 146.163 272.291 146.348C272.468 146.533 272.601 146.728 272.68 146.931C272.787 147.231 272.831 147.681 272.459 148.184C271.653 149.242 269.802 149.675 268.297 149.851C269.377 150.487 270.316 151.351 270.626 152.216C270.821 152.772 270.759 153.302 270.431 153.734C270.201 154.034 269.82 154.299 269.35 154.528C268.173 155.102 266.446 155.455 265.294 155.649C264.896 155.19 264.683 154.899 264.683 154.899C264.683 154.899 264.303 154.943 263.736 154.934C263.807 154.872 263.895 154.837 263.993 154.828C265.844 154.616 269.014 153.963 269.634 153.143C269.714 153.028 269.793 152.869 269.687 152.552C269.342 151.599 267.544 150.337 265.994 149.957C265.746 149.895 265.587 149.666 265.622 149.41C265.649 149.154 265.87 148.969 266.127 148.978C267.367 149.004 270.767 148.792 271.671 147.584C271.804 147.407 271.768 147.31 271.75 147.266C271.671 147.036 271.387 146.807 270.998 146.578C270.201 146.11 268.943 145.686 268.04 145.466C267.934 145.439 267.845 145.386 267.783 145.307C267.677 145.192 267.632 145.025 267.668 144.866C267.73 144.601 268.004 144.433 268.27 144.495C268.438 144.539 268.801 144.627 269.244 144.769C270.086 144.866 270.891 144.91 271.502 144.848C271.866 144.813 272.158 144.733 272.353 144.619C272.468 144.548 272.601 144.416 272.601 144.089C272.609 143.675 272.397 143.136 272.06 142.58C271.954 142.404 271.972 142.183 272.105 142.024L272.114 142.016C272.326 141.742 272.742 141.769 272.919 142.069C273.336 142.757 273.601 143.48 273.592 144.098Z" fill="#D96C63"/>
<path d="M269.925 134.77C270.784 135.299 271.537 135.793 272.272 136.482C272.98 137.152 273.432 137.497 273.919 137.947C273.884 138 273.955 137.894 273.919 137.947L264.302 97.3029C264.16 96.6764 263.221 96.8705 263.336 97.497L269.925 134.77C269.934 134.77 269.925 134.77 269.925 134.77Z" fill="#39393B"/>
<path d="M278.287 157.341C274.957 159.485 274.018 157.897 274.018 157.897L272.327 148.349C272.38 148.296 272.424 148.243 272.468 148.182C272.84 147.679 272.796 147.22 272.69 146.929C272.61 146.717 272.477 146.523 272.3 146.346C272.185 146.223 272.052 146.117 271.91 146.002L271.875 145.79C272.123 145.746 272.362 145.693 272.557 145.614C272.681 145.561 272.787 145.517 272.885 145.446C273.186 145.252 273.398 144.97 273.504 144.643C273.912 145.031 274.408 145.252 275.001 145.314C275.161 145.331 275.32 145.331 275.488 145.331L278.287 157.341Z" fill="#39393B"/>
<path d="M281.185 142.438C281.087 142.527 279.617 143.806 277.899 144.636C276.951 145.094 275.915 145.421 275.003 145.324C274.25 145.244 273.639 144.9 273.197 144.309C271.611 142.191 272.966 139.421 273.923 137.956C274.304 138.344 274.516 138.565 274.516 138.565C274.516 138.565 274.658 138.459 274.906 138.291C274.091 139.5 272.718 141.997 274.002 143.718C274.277 144.089 274.64 144.292 275.109 144.344C276.872 144.53 279.617 142.5 280.52 141.706C280.724 141.521 281.043 141.538 281.229 141.75C281.415 141.935 281.388 142.253 281.185 142.438Z" fill="#D96C63"/>
<path d="M332.654 132.58V132.563C332.654 132.545 332.654 132.563 332.654 132.563L332.645 132.615L332.618 132.739L332.556 133.03L332.423 133.674C332.379 133.895 332.326 134.124 332.282 134.354C332.229 134.583 332.184 134.813 332.122 135.042C331.91 135.969 331.679 136.913 331.423 137.857C330.9 139.745 330.351 141.643 329.713 143.504C329.067 145.366 328.403 147.228 327.65 149.037C327.26 149.937 326.888 150.846 326.472 151.728C326.083 152.628 325.649 153.502 325.232 154.376C324.356 156.114 323.444 157.826 322.452 159.467C322.221 159.891 321.956 160.288 321.699 160.703C321.442 161.108 321.203 161.523 320.928 161.92C320.397 162.714 319.883 163.517 319.317 164.285C318.236 165.856 317.041 167.321 315.854 168.777C314.623 170.197 313.366 171.591 312.028 172.889C311.692 173.215 311.364 173.55 311.028 173.868L309.991 174.803L309.478 175.271L309.345 175.386L309.407 175.324L309.496 175.245C309.62 175.148 309.743 175.059 309.885 174.971C310.434 174.583 311.116 174.283 311.745 174.106C311.904 174.062 312.037 174.018 312.188 174C312.259 173.983 312.338 173.974 312.409 173.965L312.595 173.93C312.719 173.912 312.852 173.903 312.967 173.903C313.064 173.894 313.162 173.886 313.259 173.895C313.304 173.895 313.366 173.903 313.392 173.903C313.428 173.903 313.463 173.903 313.498 173.903C313.56 173.903 313.64 173.921 313.693 173.93C313.737 173.93 313.773 173.939 313.817 173.947L313.87 173.965C313.879 173.965 313.888 173.965 313.897 173.965C314.039 174.009 313.755 173.965 313.321 173.78C312.878 173.594 312.294 173.286 311.656 172.915C311.019 172.536 310.319 172.077 309.611 171.574C308.185 170.568 306.688 169.368 305.2 168.088C303.704 166.8 302.198 165.432 300.702 164.003C299.205 162.582 297.708 161.1 296.238 159.591C294.759 158.082 293.28 156.538 291.837 154.976C291.102 154.199 290.376 153.414 289.667 152.628L287.577 150.352L271.442 162.414L271.982 163.226L272.496 163.976L273.514 165.45C274.205 166.421 274.896 167.382 275.595 168.335C277.012 170.233 278.465 172.112 279.97 173.965C281.493 175.809 283.043 177.645 284.681 179.445C285.505 180.345 286.337 181.245 287.196 182.127C288.055 183.019 288.941 183.901 289.853 184.775C291.686 186.531 293.617 188.251 295.796 189.945C296.885 190.793 298.045 191.622 299.302 192.443C300.569 193.263 301.941 194.066 303.553 194.825C305.165 195.575 307.007 196.308 309.363 196.802L309.797 196.89C309.947 196.917 310.115 196.943 310.275 196.969C310.594 197.014 310.912 197.058 311.231 197.102C311.559 197.137 311.922 197.164 312.267 197.181L312.79 197.208C312.967 197.217 313.162 197.217 313.348 197.217C313.729 197.217 314.109 197.208 314.481 197.19C314.88 197.164 315.287 197.119 315.695 197.067C315.898 197.04 316.093 197.014 316.306 196.987C316.518 196.952 316.731 196.908 316.943 196.864C317.368 196.775 317.785 196.687 318.21 196.564C319.928 196.078 321.628 195.284 323.125 194.278C323.488 194.031 323.833 193.766 324.179 193.493L324.435 193.29L324.666 193.096L324.852 192.928L325.595 192.275L327.074 190.96C327.553 190.51 328.022 190.051 328.5 189.593C330.404 187.775 332.158 185.816 333.867 183.83C335.532 181.81 337.135 179.754 338.587 177.609C340.075 175.483 341.412 173.268 342.687 171.035L343.608 169.341C343.918 168.777 344.193 168.203 344.485 167.629C344.777 167.056 345.061 166.491 345.335 165.909L346.15 164.179C348.258 159.538 349.958 154.764 351.277 149.902C351.924 147.466 352.508 145.013 352.951 142.516C353.173 141.263 353.385 140.01 353.553 138.722C353.598 138.404 353.633 138.078 353.677 137.751C353.713 137.425 353.757 137.098 353.793 136.763C353.828 136.436 353.863 136.083 353.89 135.739L353.987 134.513L332.654 132.58Z" fill="#FAAF3A"/>
<path d="M281.981 159.971C282.043 160.729 282.716 161.303 283.487 161.232C284.248 161.171 284.824 160.5 284.753 159.732C284.691 158.973 284.018 158.4 283.248 158.47C282.486 158.532 281.919 159.203 281.981 159.971Z" fill="#C77E2E"/>
<path d="M310.91 183.795C311.176 183.795 311.415 183.618 311.486 183.345C312.602 178.897 312.46 173.312 312.451 173.073C312.442 172.747 312.168 172.491 311.84 172.5C311.513 172.509 311.256 172.782 311.265 173.109C311.265 173.162 311.406 178.765 310.335 183.053C310.255 183.371 310.45 183.689 310.769 183.768C310.813 183.786 310.866 183.795 310.91 183.795Z" fill="#C77E2E"/>
<path d="M314.722 179.506C314.81 179.506 314.899 179.488 314.988 179.444C315.28 179.294 315.404 178.941 315.253 178.65C315.174 178.491 313.252 174.662 312.34 173.514C312.136 173.259 311.764 173.214 311.507 173.417C311.25 173.62 311.206 173.991 311.41 174.247C312.242 175.288 314.173 179.135 314.191 179.171C314.288 179.382 314.5 179.506 314.722 179.506Z" fill="#C77E2E"/>
<path d="M277.701 171.477C277.861 171.477 278.011 171.416 278.126 171.301C283.103 166.183 294.341 158.109 294.457 158.021C294.722 157.827 294.784 157.456 294.589 157.191C294.395 156.926 294.023 156.865 293.757 157.059C293.642 157.138 282.324 165.283 277.276 170.471C277.046 170.71 277.055 171.08 277.285 171.31C277.409 171.416 277.551 171.477 277.701 171.477Z" fill="#C77E2E"/>
<path d="M282.514 167.1C282.646 167.1 282.779 167.055 282.894 166.958C283.142 166.747 283.178 166.376 282.974 166.12L276.97 158.937C276.757 158.69 276.385 158.655 276.128 158.858C275.881 159.07 275.845 159.44 276.049 159.696L282.053 166.879C282.177 167.029 282.345 167.1 282.514 167.1Z" fill="#C77E2E"/>
<path d="M347.341 306.892L355.4 259.525L356.064 255.651L332.871 247.497L331.551 247.03L326.025 245.088C326.025 245.088 325.582 247.118 324.9 250.595C324.821 251.018 324.732 251.459 324.643 251.918C322.465 263.125 318.391 286.209 317.275 306.883H347.341V306.892Z" fill="#39393B"/>
<path d="M343.237 306.892C346.718 288.008 351.199 260.406 351.464 258.792C351.517 258.448 351.287 258.13 350.942 258.077C350.605 258.024 350.278 258.253 350.224 258.598C350.162 258.995 345.513 287.646 341.962 306.892H343.237Z" fill="#585859"/>
<path d="M394.265 229.961C394.265 229.961 396.01 246.462 392.246 255.648C388.482 264.833 339.713 260.104 327.288 251.836C322.188 248.447 333.045 217.157 333.045 217.157L394.265 229.961Z" fill="#39393B"/>
<path d="M324.637 251.929C325.372 251.796 326.098 251.611 326.798 251.373C327.913 250.993 328.985 250.482 330.003 249.829C331.057 249.149 332.014 248.364 332.864 247.499C338.239 242.099 339.825 233.928 339.895 233.531C339.957 233.195 339.736 232.869 339.391 232.798C339.054 232.736 338.726 232.957 338.656 233.301C338.638 233.398 336.991 241.896 331.535 247.031C330.854 247.676 330.11 248.267 329.313 248.779C328.347 249.396 327.32 249.882 326.248 250.235C325.806 250.376 325.345 250.499 324.885 250.596C324.814 251.02 324.725 251.461 324.637 251.929Z" fill="#585859"/>
<path d="M354.728 256.542C354.711 256.869 354.976 257.151 355.322 257.178C355.322 257.178 355.322 257.178 355.331 257.178C355.676 257.195 355.968 256.94 355.986 256.604C356.092 254.345 356.234 252.042 356.376 249.73C356.402 249.324 356.429 248.918 356.455 248.513C356.951 240.977 357.571 233.573 358.04 228.341C358.076 227.917 358.111 227.511 358.156 227.114C358.262 225.967 358.359 224.952 358.439 224.087C358.023 224.026 357.607 223.955 357.199 223.885C357.119 224.749 357.022 225.773 356.916 226.929C356.88 227.326 356.845 227.732 356.801 228.155C356.331 233.335 355.711 240.677 355.224 248.168C355.198 248.583 355.171 248.998 355.145 249.413C354.976 251.804 354.835 254.204 354.728 256.542Z" fill="#585859"/>
<path d="M352.94 248.578C353.135 248.675 354.012 249.081 355.127 249.417C355.517 249.531 355.933 249.646 356.367 249.726C356.757 249.805 357.155 249.858 357.554 249.876C358.316 249.92 359.042 249.84 359.653 249.549C360.414 249.187 360.91 248.525 361.079 247.643C361.53 245.314 362.487 235.713 363.133 228.918C363.177 228.504 363.213 228.089 363.248 227.701C363.355 226.615 363.443 225.627 363.523 224.789C363.107 224.736 362.69 224.692 362.274 224.63C362.194 225.477 362.106 226.474 362 227.577C361.964 227.974 361.92 228.38 361.885 228.795C361.238 235.572 360.29 245.163 359.848 247.414C359.75 247.934 359.511 248.27 359.095 248.464C358.431 248.781 357.439 248.711 356.447 248.499C356.022 248.411 355.606 248.287 355.216 248.164C354.499 247.934 353.879 247.67 353.498 247.493C353.188 247.343 352.816 247.467 352.657 247.767C352.506 248.067 352.63 248.428 352.94 248.578Z" fill="#585859"/>
<path d="M388.197 306.891C390.128 289.313 392.359 265.779 393.617 252.155C393.661 251.732 393.697 251.317 393.732 250.911C394.29 244.893 394.627 241.107 394.627 241.107C391.633 239.863 386.205 240.719 380.431 242.352C380.014 242.466 379.598 242.59 379.173 242.713C368.918 245.775 358.043 250.946 358.043 250.946V306.891H388.197Z" fill="#39393B"/>
<path d="M385.261 306.889C386.926 287.344 388.901 259.107 388.927 258.736C388.954 258.392 388.688 258.092 388.343 258.065C387.997 258.048 387.696 258.304 387.679 258.648C387.652 259.018 385.668 287.361 384.003 306.889H385.261Z" fill="#585859"/>
<path d="M375.728 233.529C375.781 233.82 376.64 238.241 379.181 242.714C380.678 245.353 382.768 248 385.62 249.827C388.02 251.362 390.694 252.139 393.616 252.156C393.661 251.733 393.696 251.318 393.732 250.912C391.004 250.912 388.516 250.197 386.302 248.785C383.751 247.153 381.847 244.77 380.439 242.361C377.844 237.914 376.967 233.379 376.959 233.308C376.897 232.973 376.569 232.743 376.232 232.805C375.887 232.867 375.666 233.184 375.728 233.529Z" fill="#585859"/>
<path d="M325.582 228.922C339.078 241.478 371.004 248.149 395.605 236.21C398.306 228.86 401.273 202.635 402.07 194.79C402.229 193.228 402.353 191.666 402.46 190.105C402.956 182.586 402.849 175.007 402.486 167.083C402.469 166.65 402.442 166.218 402.424 165.785C402.106 159.264 401.618 152.505 401.167 145.322C400.272 131.107 395.508 122.353 387.237 121.047C383.393 120.438 380.347 119.362 378.106 118.303C377.832 118.171 377.575 118.047 377.318 117.915C374.652 116.556 373.138 115.338 373.138 115.338H354.691C353.106 117.641 351.105 119.097 348.953 120.121C348.714 120.235 348.474 120.341 348.226 120.447C341.682 123.262 334.048 122.706 332.472 130.568C331.48 135.51 335.279 145.666 334.881 166.271C334.854 167.78 334.801 169.35 334.721 170.974C334.65 172.5 334.553 174.071 334.429 175.695C334.314 177.204 334.181 178.774 334.022 180.38C333.88 181.783 333.721 183.231 333.543 184.704C333.357 186.222 333.154 187.775 332.924 189.372C331.701 197.958 328.407 217.909 325.582 228.922Z" fill="#FAAF3A"/>
<path d="M388.803 233.219C388.759 233.219 388.706 233.21 388.652 233.201C388.36 233.122 388.183 232.822 388.263 232.522C398.509 195.09 396.437 157.05 396.419 156.67C396.401 156.37 396.632 156.106 396.941 156.088C397.251 156.07 397.508 156.3 397.526 156.608C397.544 156.988 399.625 195.214 389.334 232.822C389.263 233.051 389.042 233.219 388.803 233.219Z" fill="#C77E2E"/>
<path d="M333.203 184.608C333.504 184.608 333.761 184.387 333.796 184.078C335.018 173.251 335.036 151.72 335.036 151.5C335.036 151.173 334.77 150.908 334.443 150.908C334.115 150.908 333.849 151.173 333.849 151.5C333.849 151.711 333.832 173.189 332.618 183.946C332.583 184.272 332.813 184.563 333.141 184.599C333.159 184.599 333.185 184.608 333.203 184.608Z" fill="#C77E2E"/>
<path d="M358.479 225.376C358.541 226.135 359.214 226.708 359.985 226.638C360.746 226.576 361.322 225.905 361.251 225.138C361.189 224.379 360.516 223.805 359.745 223.876C358.975 223.938 358.408 224.617 358.479 225.376Z" fill="#C77E2E"/>
<path d="M358.259 232.081C358.321 232.84 358.994 233.414 359.764 233.343C360.526 233.281 361.102 232.611 361.031 231.843C360.96 231.075 360.296 230.511 359.525 230.581C358.755 230.643 358.188 231.314 358.259 232.081Z" fill="#C77E2E"/>
<path d="M342.016 158.327C338.394 154.136 339.749 144.809 339.811 144.412C339.855 144.12 340.103 143.909 340.395 143.909H352.678C352.97 143.909 353.218 144.12 353.263 144.412C353.325 144.809 354.679 154.136 351.057 158.327C349.906 159.66 348.383 160.33 346.532 160.33C344.69 160.339 343.167 159.66 342.016 158.327ZM340.917 145.1C340.687 147.068 340.085 154.295 342.91 157.56C343.84 158.636 345.027 159.157 346.532 159.157C348.046 159.157 349.233 158.636 350.154 157.56C352.979 154.295 352.377 147.068 352.147 145.1H340.917Z" fill="#C77E2E"/>
<path d="M374.809 70.0369C371.373 67.822 360.542 66.7102 360.542 66.7102C360.542 66.7102 358.762 62.0511 356.752 60.7187C352.191 57.692 351.625 63.8247 351.625 63.8247C351.625 63.8247 347.17 57.6038 343.158 59.3862C339.147 61.1599 344.274 66.9396 344.274 66.9396C344.274 66.9396 338.261 65.8278 338.925 70.9369C339.589 76.0461 345.39 78.2609 345.39 78.2609C345.39 78.2609 343.61 81.1464 344.496 85.8143C345.39 90.4734 347.391 90.7029 347.391 90.7029L372.356 92.9265C372.356 92.9265 377.484 92.9265 378.821 86.485C380.158 80.0434 375.704 77.3785 375.704 77.3785C375.704 77.3785 378.6 72.4812 374.809 70.0369Z" fill="#39393B"/>
<path d="M354.415 112.222V116.89C354.964 117.331 355.522 117.719 356.071 118.046C364.209 122.917 372.994 116.89 372.994 116.89V100.698L356.637 110.854L354.415 112.222Z" fill="#EA9B7A"/>
<path d="M354.415 112.091V116.9C354.964 117.341 355.522 117.73 356.071 118.056C363.005 115.321 368.053 108.076 368.053 108.076L356.629 110.856L354.415 112.091Z" fill="#39393B"/>
<path d="M372.959 112.154C372.959 112.154 378.44 113.071 379.946 119.319C374.606 124.887 369.886 129.705 362.252 131.117V119.936C362.252 119.936 368.991 118.26 372.959 112.154Z" fill="#FAAF3A"/>
<path d="M354.246 113.769C354.246 113.769 349.348 114.819 347.453 121.057C352.386 127.04 355.025 129.29 362.251 131.117V119.937C362.251 119.937 358.222 119.875 354.246 113.769Z" fill="#FAAF3A"/>
<path d="M351.489 200.641L354.659 208.274L356.085 211.707L360.106 221.387L362.054 217.654L362.736 216.322L364.303 213.33L364.985 211.998L366.544 209.007L367.235 207.683L368.793 204.683V204.674L369.484 203.359L370.945 200.535L370.919 200.227L370.688 197.994L370.166 192.92L369.944 190.688L369.422 185.614L369.192 183.381L368.678 178.308L368.448 176.075L367.925 171.001L367.704 168.76L367.181 163.695L366.951 161.454L366.437 156.389L366.207 154.147L365.694 149.082L365.463 146.841L364.941 141.776L364.711 139.535L364.179 134.293L360.291 134.143L360.176 135.017L359.946 136.79L359.415 140.814L359.176 142.588L358.644 146.611L358.405 148.385L357.874 152.409L357.635 154.183L357.103 158.206L356.873 159.98L356.342 164.004L356.103 165.777L355.571 169.801L355.332 171.575L354.801 175.599L354.571 177.381L354.03 181.405L353.8 183.178L353.269 187.193L353.03 188.976L352.498 193L352.259 194.773L351.728 198.797L351.498 200.571L351.489 200.641Z" fill="#39393B"/>
<path d="M359.945 136.791L364.94 141.776L364.71 139.535L360.176 135.017L359.945 136.791Z" fill="#585859"/>
<path d="M359.181 142.587L365.699 149.081L365.469 146.84L359.42 140.813L359.181 142.587Z" fill="#585859"/>
<path d="M358.409 148.384L366.441 156.388L366.211 154.147L358.648 146.611L358.409 148.384Z" fill="#585859"/>
<path d="M357.637 154.183L367.183 163.695L366.953 161.454L357.876 152.409L357.637 154.183Z" fill="#585859"/>
<path d="M356.875 159.979L367.928 171.001L367.706 168.759L357.106 158.206L356.875 159.979Z" fill="#585859"/>
<path d="M356.105 165.777L368.68 178.307L368.45 176.075L356.344 164.004L356.105 165.777Z" fill="#585859"/>
<path d="M355.334 171.575L369.424 185.614L369.194 183.382L355.574 169.802L355.334 171.575Z" fill="#585859"/>
<path d="M354.568 177.381L370.163 192.92L369.942 190.688L354.798 175.599L354.568 177.381Z" fill="#585859"/>
<path d="M353.804 183.178L370.922 200.227L370.692 197.994L354.034 181.405L353.804 183.178Z" fill="#585859"/>
<path d="M353.033 188.976L368.797 204.674L369.487 203.359L353.272 187.194L353.033 188.976Z" fill="#585859"/>
<path d="M352.258 194.774L366.543 209.008L367.234 207.684L352.497 193.001L352.258 194.774Z" fill="#585859"/>
<path d="M351.498 200.571L364.304 213.33L364.986 211.998L351.728 198.797L351.498 200.571Z" fill="#585859"/>
<path d="M354.662 208.273L356.088 211.706L362.057 217.653L362.739 216.321L354.662 208.273Z" fill="#585859"/>
<path d="M364.181 134.293L362.251 137.16L360.294 134.143L359.957 136.719L362.215 139.022L364.385 136.296L364.181 134.293Z" fill="#585859"/>
<path d="M367.431 129.485L362.25 137.162L357.282 129.485L362.25 123.07L367.431 129.485Z" fill="#39393B"/>
<path d="M370.446 134.734C370.579 134.734 370.711 134.69 370.818 134.602C375.954 130.525 380.32 119.98 380.506 119.53C380.63 119.23 380.488 118.877 380.178 118.754C379.877 118.63 379.523 118.771 379.399 119.08C379.355 119.186 375.237 129.113 370.543 133.269L362.732 122.698C362.617 122.548 362.44 122.451 362.245 122.46C362.05 122.46 361.873 122.557 361.767 122.707L354.479 133.013C353.363 131.01 350.44 125.698 347.987 120.774C347.846 120.483 347.483 120.36 347.19 120.51C346.898 120.651 346.774 121.013 346.925 121.304C350.024 127.525 353.868 134.355 353.903 134.425C354 134.602 354.186 134.716 354.39 134.725C354.594 134.734 354.789 134.637 354.904 134.478L362.263 124.074L369.959 134.487C370.056 134.619 370.198 134.699 370.357 134.725C370.402 134.734 370.428 134.734 370.446 134.734Z" fill="#C77E2E"/>
<path d="M362.263 123.659C362.591 123.659 362.857 123.395 362.857 123.068V120.421C362.857 120.094 362.591 119.83 362.263 119.83C361.936 119.83 361.67 120.094 361.67 120.421V123.068C361.67 123.395 361.936 123.659 362.263 123.659Z" fill="#C77E2E"/>
<path d="M348.568 91.5226C348.568 91.5226 345.902 88.3901 344.397 91.5226C342.891 94.6552 344.052 101 348.099 99.9673L348.568 91.5226Z" fill="#D96C63"/>
<path d="M345.717 102.518C345.717 102.518 345.699 112.18 355.786 112.154C365.811 112.136 372.639 104.292 372.993 103.93C373.002 103.921 373.002 103.921 373.002 103.921L373.108 101.891L373.675 91.3554L373.976 85.7257C373.976 85.7257 375.26 75.5868 365.58 73.7338C358.514 72.3837 351.889 73.5485 348.542 77.2281C348.436 77.3428 348.329 77.4664 348.232 77.5899C347.178 78.8782 346.505 80.4577 346.328 82.3108L346.018 92.4232L345.938 94.9027L345.717 102.518Z" fill="#EA9B7A"/>
<path d="M357.291 85.1692C357.291 85.1692 361.525 88.3106 364.04 86.3075C366.555 84.3044 360.692 82.1249 358.761 82.2925C356.84 82.4514 356.034 84.4544 357.291 85.1692Z" fill="#39393B"/>
<path d="M352.688 85.1692C352.688 85.1692 348.455 88.3106 345.94 86.3075C343.425 84.3044 349.288 82.1249 351.218 82.2925C353.149 82.4514 353.946 84.4544 352.688 85.1692Z" fill="#39393B"/>
<path d="M356.027 103.78C357.639 103.921 358.852 102.915 358.914 102.862C359.1 102.704 359.118 102.421 358.958 102.236C358.799 102.051 358.515 102.033 358.329 102.192C358.267 102.245 356.868 103.401 355.23 102.668C355.009 102.571 354.743 102.668 354.645 102.898C354.548 103.118 354.645 103.383 354.876 103.48C355.265 103.657 355.655 103.745 356.027 103.78Z" fill="#D96C63"/>
<path d="M360.393 96.8796C360.393 96.8796 354.238 98.115 351.129 97.8326C351.129 97.8326 352.289 102.395 356.868 101.248C360.437 100.356 360.393 96.8796 360.393 96.8796Z" fill="white"/>
<path d="M348.251 77.5904C349.836 77.0345 350.979 77.5551 353.44 78.6316C357.001 80.1935 360.986 78.7905 364.51 76.9903C368.035 75.1991 370.143 77.6963 368.947 79.3287C367.752 80.97 367.876 82.2936 369.213 84.3761C370.541 86.4586 366.698 87.4381 368.823 89.0705C369.718 89.7588 369.664 90.7912 369.301 91.753C368.903 92.8031 369.833 93.8708 370.931 93.6678C372.082 93.3767 373.694 91.3559 373.694 91.3559L373.995 85.7262C373.995 85.7262 375.279 75.5873 365.6 73.7343C358.533 72.3842 351.908 73.549 348.561 77.2286C348.455 77.3433 348.348 77.4668 348.251 77.5904Z" fill="#39393B"/>
<path d="M359.172 93.6664C359.172 94.3723 360.625 94.9371 362.422 94.9371C364.211 94.9371 365.673 94.3635 365.673 93.6664C365.673 92.9605 364.22 92.3958 362.422 92.3958C360.634 92.3958 359.172 92.9693 359.172 93.6664Z" fill="#D96C63"/>
<path d="M345.954 94.9018C346.202 94.9283 346.467 94.9371 346.733 94.9371C348.522 94.9371 349.974 94.3635 349.974 93.6664C349.974 92.9605 348.522 92.3958 346.733 92.3958C346.494 92.3958 346.255 92.4046 346.024 92.431L345.954 94.9018Z" fill="#D96C63"/>
<path d="M357.781 89.801C357.781 90.7628 358.224 91.5481 358.764 91.5481C359.304 91.5481 359.747 90.7628 359.747 89.801C359.747 88.8391 359.304 88.0538 358.764 88.0538C358.215 88.045 357.781 88.8303 357.781 89.801Z" fill="#39393B"/>
<path d="M348.036 89.8007C348.036 90.7625 348.479 91.5479 349.019 91.5479C349.559 91.5479 350.002 90.7625 350.002 89.8007C350.002 88.8389 349.559 88.0535 349.019 88.0535C348.47 88.0447 348.036 88.8301 348.036 89.8007Z" fill="#39393B"/>
<path d="M369.84 100.01C369.885 100.116 371.16 103.063 372.993 103.928C373.002 103.919 373.002 103.919 373.002 103.919L373.108 101.89C373.108 101.89 371.523 101.616 369.84 100.01Z" fill="#39393B"/>
<path d="M371.609 93.3029C371.609 93.3029 375.488 88.1143 378.322 92.191C380.66 95.553 376.241 104.306 371.609 101.306V93.3029Z" fill="#EA9B7A"/>
<path d="M372.14 99.7437C372.344 99.7437 372.512 99.5936 372.539 99.3907C372.973 95.464 376.267 94.0962 376.409 94.0433C376.612 93.9639 376.71 93.7345 376.63 93.5227C376.55 93.3197 376.32 93.2227 376.116 93.3021C375.957 93.3638 372.229 94.8904 371.75 99.3024C371.724 99.523 371.883 99.7172 372.105 99.7437C372.114 99.7437 372.122 99.7437 372.14 99.7437Z" fill="#39393B"/>
<path d="M375.86 97.337C375.975 97.337 376.091 97.2841 376.17 97.187C376.312 97.0193 376.285 96.7634 376.108 96.6311C375.949 96.4987 374.523 95.3781 373.319 95.6869C373.106 95.7399 372.973 95.9605 373.035 96.1722C373.088 96.384 373.31 96.5164 373.522 96.4546C374.213 96.2781 375.258 96.9664 375.612 97.2488C375.683 97.3017 375.772 97.337 375.86 97.337Z" fill="#39393B"/>
<path d="M354.631 94.6668C354.853 94.6668 355.03 94.4903 355.03 94.2697C355.03 94.0491 354.853 93.8726 354.631 93.8726C353.161 93.8726 352.479 93.0961 352.249 92.7696C353.843 89.5047 355.419 86.2045 355.437 86.178C355.535 85.9839 355.446 85.7456 355.251 85.6486C355.056 85.5515 354.817 85.6398 354.72 85.8339C354.702 85.8692 353.064 89.2841 351.443 92.6196C351.39 92.7255 351.39 92.849 351.443 92.9637C351.47 93.0167 352.267 94.6668 354.631 94.6668Z" fill="#39393B"/>
<path d="M451.115 130.475C451.115 130.475 456.482 135.876 461.786 133.775C466.064 132.072 467.011 126.143 467.224 123.928C467.277 123.398 467.277 123.081 467.277 123.081C467.277 123.081 467.569 122.913 467.968 122.622C468.907 121.933 470.465 120.539 470.297 118.907C470.058 116.577 465.807 117.874 465.807 117.874C465.807 117.874 466.454 115.06 465.196 114.23C463.965 113.418 461.432 114.857 461.432 114.857C461.432 114.857 462.805 111.406 460.927 110.577C458.102 109.324 457.173 113.568 457.049 113.842C457.075 113.533 458.421 100.535 456.181 101.206C454.224 101.788 452.426 112.651 451.965 115.607C451.895 116.074 451.859 116.339 451.859 116.339C451.859 116.339 451.7 116.33 451.434 116.339C450.176 116.374 446.484 116.71 445.802 119.269C444.996 122.375 451.115 130.475 451.115 130.475Z" fill="#EA9B7A"/>
<path d="M462.105 121.294C461.653 122.3 461.423 123.394 461.644 124.171C461.786 124.674 462.105 125.018 462.565 125.159C462.884 125.256 463.291 125.256 463.743 125.177C464.885 124.991 466.302 124.365 467.232 123.915C467.285 123.385 467.285 123.068 467.285 123.068C467.285 123.068 467.578 122.9 467.985 122.609C467.905 122.6 467.817 122.626 467.746 122.662C466.311 123.447 463.708 124.594 462.831 124.321C462.716 124.285 462.574 124.206 462.494 123.924C462.255 123.068 462.902 121.25 463.814 120.182C463.964 120.014 463.956 119.759 463.805 119.6C463.654 119.432 463.398 119.406 463.221 119.547C462.344 120.191 459.802 121.77 458.536 121.365C458.35 121.303 458.323 121.223 458.314 121.179C458.261 120.976 458.341 120.659 458.509 120.297C458.846 119.556 459.528 118.611 460.068 117.994C460.13 117.923 460.165 117.835 460.174 117.756C460.192 117.614 460.139 117.473 460.032 117.376C459.846 117.217 459.572 117.235 459.412 117.42C459.173 117.694 458.332 118.682 457.827 119.706C457.641 120.076 457.508 120.456 457.455 120.8C457.42 121.02 457.429 121.232 457.482 121.418C457.562 121.682 457.756 122.035 458.288 122.203C459.377 122.565 460.927 121.929 462.105 121.294Z" fill="#D96C63"/>
<path d="M455.375 117.596C455.552 117.649 455.676 117.79 455.694 117.975C455.738 118.549 455.871 119.043 456.084 119.334C456.252 119.563 456.411 119.59 456.535 119.59C456.73 119.581 456.978 119.484 457.261 119.325C457.961 118.928 458.847 118.143 459.617 117.375C459.608 117.463 459.573 117.543 459.511 117.613C458.971 118.231 458.289 119.175 457.952 119.916C457.864 119.969 457.775 120.031 457.687 120.075C457.403 120.234 457.138 120.349 456.89 120.419C456.774 120.446 456.677 120.463 456.571 120.463C456.092 120.481 455.676 120.269 455.366 119.846C455.047 119.405 454.87 118.752 454.808 118.037C454.782 117.737 455.065 117.507 455.357 117.587C455.366 117.596 455.366 117.596 455.375 117.596Z" fill="#D96C63"/>
<path d="M449.066 122.512C449.181 122.521 450.89 122.698 452.546 122.415C453.467 122.265 454.371 121.974 454.973 121.436C455.469 120.995 455.735 120.439 455.752 119.786C455.805 117.456 453.414 116.159 451.98 115.594C451.909 116.062 451.873 116.327 451.873 116.327C451.873 116.327 451.714 116.318 451.448 116.327C452.653 116.777 454.911 117.871 454.876 119.759C454.867 120.165 454.707 120.492 454.397 120.774C453.228 121.806 450.217 121.745 449.164 121.63C448.924 121.603 448.703 121.78 448.676 122.018C448.65 122.274 448.827 122.486 449.066 122.512Z" fill="#D96C63"/>
<path d="M458.509 130.885C458.66 130.859 458.792 130.762 458.846 130.612C458.934 130.382 458.819 130.135 458.589 130.047C457.367 129.588 456.534 128.812 456.136 127.762C455.1 125.053 457.039 121.285 457.065 121.249C457.181 121.038 457.092 120.773 456.88 120.658C456.667 120.544 456.401 120.632 456.286 120.844C456.198 121.011 454.143 125 455.321 128.07C455.817 129.376 456.818 130.312 458.288 130.868C458.358 130.894 458.438 130.903 458.509 130.885Z" fill="#D96C63"/>
<path d="M393.175 124.172L402.35 132.114C403.82 133.482 405.29 134.832 406.769 136.182C408.239 137.532 409.709 138.873 411.188 140.197C412.667 141.52 414.137 142.835 415.607 144.123C417.077 145.412 418.556 146.674 420.017 147.882C421.469 149.1 422.931 150.274 424.294 151.28C424.967 151.783 425.632 152.241 426.163 152.586L426.517 152.815L426.659 152.903C426.694 152.921 426.694 152.93 426.712 152.947C426.765 153 426.801 153.036 426.827 153.071C426.871 153.133 426.871 153.186 426.925 153.23C426.978 153.283 427.119 153.318 427.376 153.3C427.89 153.265 428.846 152.939 429.953 152.303C431.051 151.668 432.273 150.75 433.478 149.674C434.682 148.588 435.913 147.371 437.1 146.047C439.482 143.391 441.776 140.4 443.945 137.267C446.124 134.134 447.665 131.717 449.631 128.381C452.81 132.211 457.699 134.108 463.003 133.473C461.507 137.523 459.78 141.458 457.831 145.368C455.857 149.259 453.678 153.115 451.03 156.892C449.702 158.78 448.267 160.66 446.611 162.495C444.955 164.33 443.113 166.139 440.864 167.851C439.739 168.698 438.508 169.528 437.118 170.278C435.727 171.019 434.186 171.699 432.468 172.21C430.75 172.713 428.846 173.057 426.863 173.093C424.879 173.137 422.824 172.872 420.92 172.334C419.964 172.069 419.043 171.743 418.175 171.363L417.537 171.072L416.997 170.807C416.811 170.719 416.661 170.64 416.492 170.551C416.333 170.463 416.156 170.375 416.005 170.296C414.765 169.625 413.703 168.981 412.684 168.337C410.665 167.057 408.85 165.786 407.07 164.498C405.299 163.21 403.598 161.904 401.916 160.598C400.242 159.292 398.586 157.968 396.965 156.636C395.345 155.295 393.733 153.962 392.148 152.603C390.562 151.244 388.995 149.877 387.427 148.5C385.878 147.115 384.328 145.729 382.796 144.326L380.502 142.209L379.369 141.132C378.988 140.77 378.616 140.417 378.217 140.029L393.175 124.172Z" fill="#FAAF3A"/>
<path d="M401.933 161.683C401.827 161.683 401.712 161.648 401.614 161.586C395.557 157.36 384.779 148.456 384.673 148.368C384.434 148.174 384.407 147.83 384.602 147.591C384.797 147.353 385.142 147.327 385.381 147.521C385.488 147.609 396.23 156.486 402.252 160.686C402.5 160.863 402.562 161.207 402.385 161.454C402.278 161.604 402.11 161.683 401.933 161.683Z" fill="#C77E2E"/>
<path d="M389.402 152.047C389.375 152.047 389.349 152.047 389.322 152.038L385.054 151.421C384.753 151.376 384.54 151.094 384.584 150.794C384.629 150.494 384.912 150.282 385.213 150.326L389.482 150.944C389.783 150.988 389.995 151.271 389.951 151.571C389.907 151.853 389.668 152.047 389.402 152.047Z" fill="#C77E2E"/>
<path d="M460.026 140.337C460.247 140.222 460.371 139.975 460.318 139.719C460.256 139.419 459.955 139.225 459.645 139.287C451.604 141.034 447.601 133.392 447.565 133.313C447.424 133.039 447.087 132.924 446.804 133.066C446.804 133.066 446.804 133.066 446.795 133.066C446.52 133.207 446.414 133.542 446.556 133.816C446.6 133.904 451.002 142.304 459.884 140.372C459.937 140.381 459.981 140.363 460.026 140.337Z" fill="#C77E2E"/>
<path d="M455.902 140.487C456.017 140.425 456.106 140.337 456.159 140.213L458.807 134.054C458.931 133.772 458.798 133.436 458.514 133.313C458.231 133.189 457.895 133.322 457.771 133.604L455.123 139.763C454.999 140.045 455.132 140.381 455.415 140.504C455.583 140.575 455.751 140.557 455.902 140.487Z" fill="#C77E2E"/>
<path d="M451.163 134.566C451.411 135.043 452.004 135.228 452.482 134.981C452.96 134.734 453.146 134.143 452.898 133.666C452.65 133.19 452.057 133.004 451.579 133.252C451.101 133.507 450.906 134.09 451.163 134.566Z" fill="#C77E2E"/>
<path d="M425.648 160.147C425.798 160.068 425.913 159.918 425.94 159.741C425.949 159.706 426.542 156.194 427.587 154.147C427.729 153.873 427.623 153.529 427.339 153.388C427.065 153.247 426.719 153.361 426.578 153.635C425.453 155.841 424.851 159.406 424.824 159.556C424.771 159.865 424.983 160.147 425.285 160.2C425.426 160.226 425.55 160.2 425.648 160.147Z" fill="#C77E2E"/>
<path d="M429.315 158.885C429.35 158.867 429.386 158.841 429.421 158.815C429.66 158.612 429.687 158.259 429.492 158.02C429.474 158.003 427.907 156.114 427.535 154.279C427.473 153.979 427.172 153.776 426.87 153.838C426.569 153.9 426.366 154.2 426.428 154.5C426.862 156.617 428.553 158.647 428.633 158.735C428.792 158.947 429.084 159 429.315 158.885Z" fill="#C77E2E"/>
<path d="M103.448 230.963L116.404 278.172L111.781 272.869C113.49 273.778 115.474 274.475 117.661 274.96C119.849 275.454 122.24 275.737 124.737 275.86C127.234 275.993 129.838 275.966 132.504 275.86C135.169 275.746 137.888 275.551 140.651 275.313H140.669C144.742 274.969 148.329 277.978 148.674 282.037C149.002 285.911 146.248 289.335 142.466 289.952C139.615 290.402 136.719 290.835 133.752 291.179C130.777 291.523 127.73 291.779 124.578 291.85C121.425 291.92 118.157 291.797 114.774 291.311C111.4 290.826 107.902 289.944 104.484 288.479C102.296 287.535 100.738 285.752 100.029 283.661L99.8609 283.167L84.3188 236.743C82.5742 231.528 85.3993 225.881 90.6419 224.142C95.8757 222.404 101.543 225.219 103.288 230.443C103.35 230.61 103.403 230.805 103.448 230.963Z" fill="#EA9B7A"/>
<path d="M108.438 402.094C108.243 402.094 108.048 402.059 107.853 401.988L39.982 377.607C39.0964 377.29 38.627 376.31 38.9547 375.428C39.2735 374.545 40.2565 374.078 41.1421 374.404L109.013 398.785C109.899 399.103 110.368 400.082 110.041 400.965C109.793 401.662 109.137 402.094 108.438 402.094Z" fill="#CED3E6"/>
<path d="M37.7446 402.098C37.045 402.098 36.3896 401.666 36.1328 400.968C35.814 400.086 36.2745 399.107 37.1601 398.78L105.837 373.993C106.723 373.676 107.706 374.134 108.034 375.017C108.352 375.899 107.892 376.879 107.006 377.205L38.3291 401.992C38.1342 402.063 37.9394 402.098 37.7446 402.098Z" fill="#CED3E6"/>
<path d="M114.474 445.674C113.03 445.674 111.773 444.606 111.569 443.141L99.3125 351.927H48.0194L35.9488 443.141C35.7363 444.739 34.2662 445.868 32.6633 445.656C31.0604 445.444 29.9268 443.98 30.1394 442.383L42.5465 348.644C42.7413 347.188 43.9811 346.103 45.4512 346.103H101.89C103.36 346.103 104.599 347.188 104.794 348.636L117.396 442.374C117.609 443.971 116.484 445.444 114.881 445.656C114.739 445.665 114.607 445.674 114.474 445.674Z" fill="white"/>
<path d="M85.5284 349.012H48.8828C37.2728 349.012 24.8392 342.676 23.0503 331.249C20.6681 315.957 20.0747 301.159 20.7389 287.57C21.4917 272.207 28.8597 257.912 40.9746 248.382C40.9746 248.382 48.2984 280.175 39.0883 324.057C42.6129 340.726 85.5284 349.012 85.5284 349.012Z" fill="white"/>
<path d="M77.899 162.552C77.899 162.552 73.5419 152.086 62.0027 154.063C53.9439 155.439 50.5078 165.446 50.9772 180.906C51.6679 203.398 44.0342 216.952 44.0342 216.952L54.1653 219.246C54.1741 219.238 79.9713 180.685 77.899 162.552Z" fill="#39393B"/>
<path d="M170.335 406.593H153.961C153.961 406.593 150.171 388.486 148.904 378.338C147.629 368.182 146.974 344.119 146.974 344.119C146.974 344.119 133.929 348.345 106.618 346.748C46.1054 343.227 69.0509 298.93 69.0509 298.93C71.0966 301.745 83.6188 299.795 92.1824 301.136C118.458 303.651 141.235 313.923 154.909 319.799C158.203 321.211 161.125 322.711 163.694 324.291C166.988 326.312 169.051 332.462 170.3 340.536C174.028 364.82 170.335 406.593 170.335 406.593Z" fill="#39393B"/>
<path d="M155.983 397.873C155.709 397.873 155.47 397.679 155.408 397.405C153.043 385.757 152.255 371.26 151.617 359.612C151.086 349.949 150.59 340.825 149.341 339.731C148.332 338.84 144.143 339.537 138.847 340.411C128.3 342.158 112.359 344.787 94.7893 340.719C85.2161 338.496 78.1757 333.863 73.8717 326.945C66.4417 315.015 69.8334 300.217 69.8689 300.067C69.9397 299.749 70.2585 299.555 70.5773 299.634C70.8962 299.705 71.091 300.023 71.0113 300.34C70.9759 300.482 67.708 314.821 74.8813 326.336C79.017 332.981 85.8094 337.437 95.0638 339.581C112.412 343.605 128.211 340.993 138.67 339.263C144.931 338.231 148.713 337.604 150.138 338.858C151.679 340.216 152.113 346.887 152.804 359.55C153.442 371.162 154.23 385.607 156.577 397.176C156.639 397.493 156.435 397.802 156.116 397.864C156.063 397.864 156.028 397.864 155.983 397.873Z" fill="#585859"/>
<path d="M170.641 398.169H170.632L152.424 397.781C152.096 397.772 151.84 397.507 151.848 397.181C151.857 396.854 152.123 396.598 152.451 396.607L170.658 396.995C170.986 397.004 171.243 397.269 171.234 397.595C171.216 397.922 170.959 398.169 170.641 398.169Z" fill="#585859"/>
<path d="M169.881 427.494H158.324L156.101 413.984L154.879 406.589H169.234L169.464 413.984L169.881 427.494Z" fill="#EA9B7A"/>
<path d="M169.886 427.493H158.329L156.673 417.433L156.106 413.983H169.47L169.576 417.557L169.886 427.493Z" fill="#FAAF3A"/>
<path d="M169.576 417.557L156.673 417.433L156.106 413.983H169.47L169.576 417.557Z" fill="#C77E2E"/>
<path d="M198.405 445.673H154.701C154.373 445.082 154.196 444.253 154.125 443.255C153.851 439.567 155.029 433.69 155.604 429.984C155.675 429.552 155.737 429.146 155.781 428.784C155.861 428.166 155.914 427.646 155.914 427.266C155.914 424.24 158.598 424.76 158.598 424.76C163.017 429.084 168.029 422.598 170.951 424.725C170.951 424.725 171.067 424.813 171.341 425.016C171.589 425.21 171.961 425.51 172.475 425.943C173.219 426.56 174.264 427.46 175.68 428.731C179.152 431.846 185.05 433.893 190.071 435.984C190.709 436.249 191.302 436.514 191.86 436.787C192.276 436.99 192.675 437.193 193.047 437.387C197.156 439.594 198.458 441.711 198.759 443.247C199.042 444.729 198.405 445.673 198.405 445.673Z" fill="#0875F7"/>
<path d="M193.047 437.405C191.923 438.297 189.417 440.088 187.406 440.088C187.318 440.088 187.229 440.088 187.141 440.079C185.724 439.964 180.516 437.414 176.274 435.094C173.848 433.761 171.625 432.455 170.031 431.405C167.419 429.684 166.958 429.031 166.861 428.573C166.48 426.852 169.331 425.661 171.333 425.034C171.581 425.228 171.953 425.528 172.466 425.961C169.987 426.631 167.941 427.69 168.039 428.299C168.286 428.811 170.872 430.77 177.054 434.149C181.774 436.726 186.246 438.8 187.238 438.888C188.584 438.994 190.559 437.776 191.852 436.814C192.286 437 192.676 437.203 193.047 437.405Z" fill="#084FC7"/>
<path d="M198.401 445.671H154.697C154.37 445.08 154.192 444.251 154.122 443.253H198.764C199.039 444.727 198.401 445.671 198.401 445.671Z" fill="#084FC7"/>
<path d="M159.144 445.674H157.842C159.135 444.2 160.348 441.933 160.189 438.703C159.977 434.397 157.391 431.502 155.584 429.985C155.655 429.552 155.717 429.146 155.761 428.785C157.701 430.258 160.968 433.497 161.225 438.65C161.385 441.747 160.366 444.05 159.144 445.674Z" fill="#084FC7"/>
<path d="M174.934 431.309C174.615 431.309 174.314 431.088 174.235 430.762C174.137 430.374 174.376 429.985 174.757 429.888L177.485 429.209C177.874 429.112 178.264 429.35 178.362 429.729C178.459 430.118 178.22 430.506 177.839 430.603L175.111 431.282C175.058 431.309 174.996 431.309 174.934 431.309Z" fill="white"/>
<path d="M172.225 429.045C171.906 429.045 171.605 428.825 171.525 428.498C171.428 428.11 171.667 427.722 172.048 427.625L174.775 426.945C175.165 426.848 175.555 427.086 175.652 427.466C175.749 427.854 175.51 428.242 175.13 428.339L172.402 429.019C172.34 429.036 172.287 429.045 172.225 429.045Z" fill="white"/>
<path d="M177.67 432.896C177.351 432.896 177.05 432.676 176.971 432.349C176.873 431.961 177.112 431.573 177.493 431.476L180.221 430.796C180.61 430.699 181 430.937 181.097 431.317C181.195 431.705 180.956 432.093 180.575 432.19L177.847 432.87C177.785 432.887 177.723 432.896 177.67 432.896Z" fill="white"/>
<path d="M180.401 434.411C180.082 434.411 179.781 434.191 179.701 433.864C179.604 433.476 179.843 433.088 180.223 432.991L182.951 432.311C183.341 432.214 183.73 432.452 183.828 432.832C183.925 433.22 183.686 433.608 183.305 433.705L180.578 434.385C180.516 434.403 180.463 434.411 180.401 434.411Z" fill="white"/>
<path d="M183.367 435.818C183.049 435.818 182.747 435.597 182.668 435.271C182.57 434.883 182.809 434.494 183.19 434.406L185.918 433.727C186.308 433.63 186.697 433.868 186.795 434.247C186.892 434.636 186.653 435.024 186.272 435.121L183.545 435.8C183.483 435.809 183.429 435.818 183.367 435.818Z" fill="white"/>
<path d="M186.602 437.02C186.283 437.02 185.982 436.799 185.902 436.473C185.805 436.084 186.044 435.696 186.425 435.599L189.152 434.92C189.542 434.823 189.932 435.061 190.029 435.44C190.126 435.829 189.887 436.217 189.506 436.305L186.779 436.984C186.717 437.011 186.655 437.02 186.602 437.02Z" fill="white"/>
<path d="M38.7463 284.878C38.7463 284.878 38.2327 288.399 42.9617 289.387L92.2712 291.029C92.2712 291.029 95.601 289.361 94.9988 285.249C94.9899 285.24 74.1698 273.592 38.7463 284.878Z" fill="#084FC7"/>
<path d="M92.9371 301.124C67.3436 315.154 39.3945 303.859 39.3945 303.859C40.7583 300.144 41.7768 295.953 42.5118 292.141C43.362 287.702 43.8402 283.784 44.0616 281.728C54.9454 281.137 81.637 279.999 92.0958 282.47L92.1755 286.643L92.9371 301.124Z" fill="#EA9B7A"/>
<path d="M74.0274 294.403C73.8415 295.717 73.2393 296.723 72.699 296.644C72.15 296.564 71.8666 295.435 72.0526 294.12C72.2385 292.805 72.8407 291.799 73.3809 291.879C73.93 291.958 74.2223 293.088 74.0274 294.403Z" fill="#D96C63"/>
<path d="M92.173 286.644C81.2714 285.982 59.8313 285.752 42.5093 292.132C43.3594 287.694 43.8377 283.776 44.0591 281.72C54.9429 281.129 81.6345 279.99 92.0933 282.461L92.173 286.644Z" fill="#D96C63"/>
<path d="M104.333 266.471C104.227 266.789 104.103 267.08 103.97 267.354C103.917 267.46 103.864 267.565 103.811 267.663C102.438 270.195 100.322 272.392 98.5417 273.954C98.1698 274.281 97.8155 274.572 97.4879 274.836C96.8325 275.366 96.2746 275.781 95.8938 276.054C95.5396 276.301 95.3359 276.434 95.3359 276.434C95.3359 276.46 95.3359 276.478 95.327 276.513C95.3093 276.698 95.2916 276.901 95.2739 277.113C95.2119 277.916 95.1588 278.869 95.1234 279.963C95.0879 280.837 95.0614 281.799 95.0437 282.84C95.0348 283.608 95.0171 284.411 95.0082 285.24C80.5466 278.799 50.7555 282.866 38.7558 284.878C38.9772 283.846 39.172 282.831 39.358 281.843C40.2081 277.281 40.6864 273.178 40.8723 269.498C41.1557 264.027 40.6775 255.803 39.5085 247.305C39.4377 246.749 39.358 246.202 39.2783 245.655C39.2251 245.293 39.172 244.941 39.11 244.579C38.7026 241.914 38.2244 239.24 37.6842 236.646C35.3197 225.333 36.9757 213.465 48.4884 212.062C49.3208 211.956 50.1444 211.868 50.9503 211.78C56.3701 211.206 60.8335 211.003 62.0733 210.959C62.3035 210.95 62.4186 210.95 62.4186 210.95L84.6646 217.392L86.7811 218.001C87.9944 218.389 89.1191 218.768 90.1641 219.139C90.6069 219.298 91.0408 219.457 91.4482 219.607C92.5286 220.013 93.5027 220.401 94.3972 220.798C96.1772 221.583 97.5941 222.351 98.7011 223.136C103.581 226.586 102.828 230.487 102.704 238.19C102.704 238.225 102.704 238.261 102.704 238.296C102.704 238.393 102.704 238.49 102.704 238.596C102.704 238.64 102.704 238.684 102.704 238.728C102.704 239.046 102.704 239.355 102.704 239.673C102.713 240.67 102.748 241.658 102.81 242.646C102.89 244.102 103.023 245.549 103.182 246.961C103.244 247.526 103.306 248.091 103.377 248.655C103.439 249.185 103.51 249.706 103.581 250.226C104.44 256.959 105.547 262.871 104.333 266.471Z" fill="#0875F7"/>
<path d="M102.679 238.297C102.679 238.394 102.679 238.491 102.679 238.597C102.679 238.641 102.679 238.685 102.679 238.729C102.679 239.047 102.679 239.356 102.679 239.673L98.0033 242.594C97.8616 242.682 97.7022 242.709 97.5428 242.682C97.3657 242.656 97.2063 242.55 97.1 242.391C96.9052 242.082 97.0026 241.685 97.3037 241.491L102.263 238.394C102.396 238.305 102.537 238.279 102.679 238.297Z" fill="#084FC7"/>
<path d="M71.86 263.243C71.6829 263.243 71.5058 263.172 71.3729 263.031C71.1338 262.766 71.1515 262.351 71.4172 262.113L75.7655 258.213C76.0311 257.975 76.4474 257.992 76.6865 258.257C76.9256 258.522 76.9079 258.937 76.6422 259.175L72.294 263.075C72.17 263.19 72.0194 263.243 71.86 263.243Z" fill="#084FC7"/>
<path d="M103.545 250.218L100.57 252.892C100.446 253.006 100.286 253.059 100.136 253.059C99.9588 253.059 99.7817 252.989 99.6488 252.847C99.4097 252.583 99.4274 252.168 99.6931 251.93L103.342 248.656C103.413 249.177 103.483 249.697 103.545 250.218Z" fill="#084FC7"/>
<path d="M63.037 247.561C62.9396 247.411 62.8953 247.226 62.9396 247.041C63.0193 246.688 63.3735 246.476 63.7277 246.555L69.4221 247.897C69.7763 247.976 69.9888 248.329 69.9091 248.682C69.8294 249.035 69.4752 249.247 69.121 249.167L63.4266 247.826C63.2584 247.782 63.1255 247.685 63.037 247.561Z" fill="#084FC7"/>
<path d="M42.7238 258.689C42.5467 258.689 42.3696 258.619 42.2367 258.477C41.9976 258.213 42.0153 257.798 42.281 257.56L46.6292 253.659C46.8949 253.421 47.3111 253.439 47.5502 253.704C47.7893 253.968 47.7716 254.383 47.5059 254.621L43.1577 258.522C43.0337 258.636 42.8743 258.689 42.7238 258.689Z" fill="#084FC7"/>
<path d="M93.3435 257.762C93.3966 257.595 93.5295 257.444 93.6977 257.374C94.0254 257.233 94.415 257.383 94.5567 257.709L96.8947 263.057C97.0364 263.383 96.8858 263.771 96.5581 263.913C96.2305 264.054 95.8408 263.904 95.6991 263.577L93.3612 258.23C93.2992 258.071 93.2903 257.912 93.3435 257.762Z" fill="#084FC7"/>
<path d="M104.332 266.472C104.226 266.79 104.102 267.081 103.969 267.354C103.916 267.46 103.863 267.566 103.81 267.663L100.631 266.666C100.471 266.613 100.347 266.507 100.268 266.375C100.179 266.225 100.144 266.031 100.206 265.854C100.312 265.51 100.684 265.325 101.02 265.431L104.332 266.472Z" fill="#084FC7"/>
<path d="M86.3716 266.94C86.5487 266.923 86.7346 266.976 86.8763 267.108C87.142 267.346 87.1597 267.761 86.9206 268.026L82.9886 272.341C82.7495 272.605 82.3333 272.623 82.0676 272.385C81.8019 272.147 81.7842 271.732 82.0233 271.467L85.9553 267.152C86.0705 267.02 86.221 266.949 86.3716 266.94Z" fill="#084FC7"/>
<path d="M84.0633 256.978C83.8862 256.952 83.7268 256.846 83.6205 256.687C83.4257 256.387 83.5231 255.981 83.8242 255.787L88.7835 252.69C89.0846 252.496 89.4919 252.593 89.6868 252.893C89.8816 253.193 89.7842 253.599 89.4831 253.793L84.5238 256.89C84.3732 256.978 84.2138 257.005 84.0633 256.978Z" fill="#084FC7"/>
<path d="M87.216 238.199C87.3311 238.331 87.4019 238.508 87.3754 238.702C87.3399 239.055 87.0123 239.32 86.658 239.276L80.8397 238.64C80.4855 238.605 80.2198 238.279 80.2641 237.926C80.2995 237.573 80.6272 237.308 80.9814 237.352L86.7997 237.987C86.968 238.005 87.1097 238.084 87.216 238.199Z" fill="#084FC7"/>
<path d="M78.7562 225.634C78.8004 225.457 78.9156 225.307 79.0838 225.219C79.4026 225.052 79.8012 225.166 79.9694 225.484L82.7413 230.62C82.9096 230.937 82.7944 231.334 82.4756 231.502C82.1568 231.67 81.7583 231.555 81.59 231.237L78.8182 226.102C78.7385 225.943 78.7207 225.784 78.7562 225.634Z" fill="#084FC7"/>
<path d="M98.5314 273.955C98.1594 274.282 97.8052 274.573 97.4775 274.838L96.7159 272.896C96.6539 272.738 96.6539 272.579 96.7159 272.429C96.7779 272.261 96.9108 272.12 97.0879 272.049C97.4244 271.917 97.8052 272.085 97.938 272.411L98.5314 273.955Z" fill="#084FC7"/>
<path d="M45.0435 264.08C44.9549 263.922 44.9372 263.736 45.0081 263.551C45.1321 263.216 45.504 263.039 45.8405 263.163L51.3489 265.139C51.6854 265.263 51.8625 265.634 51.7385 265.969C51.6146 266.304 51.2426 266.481 50.9061 266.357L45.3977 264.38C45.2383 264.328 45.1232 264.213 45.0435 264.08Z" fill="#084FC7"/>
<path d="M47.7417 271.493C47.9188 271.493 48.0959 271.573 48.2287 271.714C48.4678 271.979 48.4413 272.393 48.1756 272.632L43.7919 276.497C43.5263 276.735 43.11 276.708 42.8709 276.444C42.6318 276.179 42.6584 275.764 42.9241 275.526L47.3077 271.661C47.4317 271.546 47.5823 271.493 47.7417 271.493Z" fill="#084FC7"/>
<path d="M55.684 277.626C55.7992 277.767 55.8523 277.952 55.8169 278.138C55.7549 278.491 55.4184 278.729 55.0641 278.667L49.299 277.688C48.9447 277.626 48.7056 277.291 48.7676 276.938C48.8296 276.585 49.1661 276.346 49.5204 276.408L55.2855 277.388C55.4449 277.423 55.5866 277.511 55.684 277.626Z" fill="#084FC7"/>
<path d="M60.5041 223.04C60.4598 222.872 60.4775 222.678 60.5838 222.519C60.7786 222.219 61.186 222.131 61.4871 222.325L66.4021 225.484C66.7032 225.678 66.7917 226.084 66.5969 226.384C66.4021 226.684 65.9947 226.772 65.6936 226.578L60.7786 223.419C60.6458 223.331 60.5484 223.19 60.5041 223.04Z" fill="#084FC7"/>
<path d="M94.0609 226.764C94.2203 226.676 94.4063 226.658 94.5923 226.72C94.9288 226.843 95.1059 227.214 94.9908 227.549L93.0336 233.047C92.9097 233.382 92.5377 233.558 92.2012 233.444C91.8647 233.32 91.6876 232.949 91.8027 232.614L93.7598 227.117C93.813 226.967 93.9192 226.843 94.0609 226.764Z" fill="#084FC7"/>
<path d="M91.4287 219.607L88.4089 223.472C88.1875 223.754 87.7801 223.807 87.4967 223.586C87.2133 223.366 87.1602 222.96 87.3816 222.677L90.1446 219.148C90.5874 219.298 91.0125 219.448 91.4287 219.607Z" fill="#084FC7"/>
<path d="M61.8789 272.942C61.9409 273.127 62.1003 273.26 62.2774 273.295C62.366 273.313 62.4634 273.313 62.5519 273.278C62.6494 273.242 72.1163 270.189 82.0703 274.301C87.127 276.392 91.6257 277.187 95.2655 277.116C95.2832 276.904 95.3009 276.71 95.3186 276.516C95.3186 276.489 95.3275 276.463 95.3275 276.445C95.3275 276.445 95.5312 276.313 95.8854 276.066C92.3076 276.242 87.7292 275.484 82.4776 273.322C72.1428 269.051 62.6139 272.139 62.2154 272.272C61.9409 272.36 61.7903 272.66 61.8789 272.942Z" fill="#084FC7"/>
<path d="M84.6449 217.393C83.3963 219.316 80.8281 221.496 75.6208 221.125C68.4387 220.605 63.7097 213.775 62.0625 210.969C62.2839 210.96 62.4079 210.96 62.4079 210.96L84.6449 217.393Z" fill="#084FC7"/>
<path d="M77.0035 230.054C77.216 230.099 77.4286 230.125 77.6411 230.143C79.6248 230.302 81.2366 229.728 82.4233 228.44C85.8771 224.681 84.4601 216.104 84.3981 215.742C84.345 215.451 84.0705 215.256 83.7871 215.309C83.4948 215.362 83.3 215.636 83.3531 215.918C83.3708 216.007 84.7435 224.345 81.644 227.725C80.6787 228.775 79.3946 229.225 77.7385 229.093C70.7778 228.537 62.9758 210.915 62.8961 210.739C62.781 210.474 62.4622 210.35 62.1965 210.465C61.9308 210.58 61.8068 210.897 61.922 211.162C62.2319 211.895 69.6265 228.572 77.0035 230.054Z" fill="white"/>
<path d="M98.6861 223.136C98.2256 228.219 99.4831 236.61 102.777 242.646C102.698 241.34 102.662 240.034 102.68 238.728C102.68 238.684 102.68 238.64 102.68 238.596C102.68 238.463 102.689 238.331 102.689 238.199C102.813 230.486 103.566 226.586 98.6861 223.136Z" fill="#EA9B7A"/>
<path d="M57.7709 232.085C55.2205 241.898 45.8864 249.769 39.5102 247.316C39.4304 246.769 39.3596 246.213 39.2799 245.666C39.2268 245.304 39.1736 244.951 39.1205 244.589C38.7131 241.924 38.2349 239.251 37.6947 236.656C35.3302 225.344 36.9951 213.475 48.4989 212.072C49.3313 211.967 50.1549 211.878 50.9608 211.79C56.6994 214.234 60.7022 220.782 57.7709 232.085Z" fill="#EA9B7A"/>
<path d="M59.0807 224.603L74.0294 279.083L68.6981 272.959C70.673 274 72.9578 274.812 75.4906 275.377C78.0145 275.941 80.7775 276.268 83.6557 276.418C86.5427 276.568 89.5448 276.541 92.6178 276.418C95.6908 276.294 98.8346 276.065 102.023 275.791H102.04C106.743 275.394 110.879 278.862 111.277 283.548C111.658 288.013 108.479 291.975 104.104 292.681C100.818 293.201 97.4708 293.695 94.0436 294.092C90.6164 294.489 87.1006 294.781 83.452 294.869C79.8122 294.948 76.0396 294.816 72.1431 294.251C68.2553 293.687 64.2171 292.681 60.2674 290.978C57.7434 289.892 55.9457 287.827 55.1221 285.418L54.9361 284.854L36.9941 231.274C34.975 225.256 38.2428 218.744 44.2825 216.732C50.3222 214.72 56.8578 217.976 58.877 223.994C58.9567 224.179 59.0275 224.409 59.0807 224.603Z" fill="#EA9B7A"/>
<path d="M65.7745 277.334C65.624 277.334 65.4734 277.254 65.3937 277.113C65.2698 276.901 65.3495 276.637 65.562 276.513C65.7037 276.434 68.9715 274.598 72.3899 274.333C72.6378 274.316 72.8504 274.492 72.8681 274.739C72.8858 274.986 72.7087 275.198 72.4607 275.216C69.246 275.463 66.0314 277.263 66.0048 277.281C65.9251 277.316 65.8454 277.334 65.7745 277.334Z" fill="#D96C63"/>
<path d="M71.2037 275.366C71.124 275.366 71.0443 275.348 70.9735 275.304C68.91 274.06 66.4127 273.866 66.3861 273.866C66.1382 273.848 65.961 273.636 65.9788 273.398C65.9965 273.151 66.2002 272.975 66.4481 272.992C66.5544 273.001 69.1846 273.195 71.4251 274.554C71.6377 274.678 71.6996 274.951 71.5757 275.163C71.5048 275.286 71.3543 275.366 71.2037 275.366Z" fill="#D96C63"/>
<path d="M84.54 246.654C91.1554 247.987 94.0512 241.175 94.0778 241.104C94.1929 240.831 94.0601 240.522 93.7856 240.416C93.511 240.301 93.2011 240.433 93.0948 240.707C92.9885 240.963 90.4912 246.778 84.7526 245.622C78.7217 244.404 67.4748 232.589 67.3685 232.465C67.1648 232.254 66.8283 232.245 66.6158 232.448C66.4032 232.651 66.3944 232.986 66.5981 233.198C67.0586 233.683 78.1815 245.366 84.54 246.654Z" fill="#084FC7"/>
<path d="M74.132 203.742C74.132 203.742 63.5139 201.748 60.5206 191.071C57.669 180.905 59.8652 175.628 62.832 170.14C65.0636 166.001 72.1483 160.416 82.0757 162.419C92.1006 164.439 99.6015 169.575 100.708 177.79C102.781 193.162 90.3294 211.913 74.132 203.742Z" fill="#39393B"/>
<path d="M61.0261 192.72C60.8313 192.72 60.6453 192.622 60.5479 192.437C60.353 192.102 55.8897 184.098 59.6003 173.562C61.9205 166.98 66.4813 164.041 69.9085 162.726C73.6103 161.306 76.7187 161.447 76.8515 161.447C77.1526 161.465 77.3917 161.721 77.374 162.029C77.3563 162.329 77.1083 162.568 76.7984 162.55C76.7718 162.55 73.752 162.426 70.2628 163.768C65.6223 165.559 62.3899 168.974 60.6453 173.924C57.1118 183.966 61.4689 191.811 61.5132 191.89C61.6637 192.155 61.5752 192.49 61.3095 192.64C61.2121 192.693 61.1147 192.72 61.0261 192.72Z" fill="#FAAF3A"/>
<path d="M94.7384 192.899C94.7384 192.899 98.1922 190.181 99.1043 193.781C100.016 197.381 97.4483 203.779 93.4277 201.838L94.7384 192.899Z" fill="#D96C63"/>
<path d="M91.3586 199.503C89.6406 200.068 88.1262 201.586 87.7365 203.465C87.1698 206.271 88.9941 209.007 91.8014 209.58C94.6175 210.145 97.3629 208.327 97.9385 205.53C98.3636 203.43 97.4514 201.365 95.7777 200.227C95.2197 199.839 94.5733 199.565 93.8648 199.424C93.8471 199.424 93.8294 199.415 93.8117 199.415C93.7142 199.768 93.7497 200.05 93.9534 200.271C94.5201 200.421 95.0338 200.677 95.4854 201.012C96.7872 202 97.4868 203.668 97.1415 205.371C96.6632 207.736 94.3342 209.272 91.9608 208.795C89.5874 208.319 88.0465 205.998 88.5247 203.633C88.8789 201.912 90.1542 200.695 91.7571 200.306L91.3586 199.503Z" fill="#FAAF3A"/>
<path d="M84.2637 208.32L82.8202 217.338C82.8202 217.338 76.0455 224.23 63.6738 211.867C66.9948 209.405 68.2612 203.687 67.8715 199.999C67.8715 199.999 68.8457 200.581 70.3511 201.94C70.6434 202.205 71.0242 202.408 71.3873 202.664C74.6551 204.87 79.6675 207.755 84.2637 208.32Z" fill="#EA9B7A"/>
<path d="M84.2636 208.317L83.5817 212.588C79.8711 210.938 73.3089 207.417 70.3511 201.929C70.6699 202.158 71.0241 202.396 71.3872 202.652C74.655 204.867 79.6674 207.753 84.2636 208.317Z" fill="#39393B"/>
<path d="M98.0822 190.716C97.8873 191.669 97.7102 192.578 97.5242 193.442C97.3294 194.378 97.1434 195.26 96.9575 196.09C95.5848 202.328 94.4601 205.673 92.6358 206.926C83.3991 213.253 68.3707 200.44 67.8837 200.025C67.8748 200.016 67.8748 200.016 67.8748 200.016C67.866 199.284 67.866 198.552 67.8748 197.837C67.9899 191.766 69.0261 186.313 70.6733 181.274C71.4969 175.768 75.7831 171.356 81.3003 170.526C87.0212 169.67 91.3251 172.971 94.0173 174.427C98.0822 176.633 99.6674 182.765 98.0822 190.716Z" fill="#EA9B7A"/>
<path d="M70.9818 175.609C70.9818 175.609 77.4466 163.22 90.3407 166.679C103.235 170.138 103.917 176.103 104.147 179.086C104.377 182.068 97.4697 176.783 97.4697 176.783C97.4697 176.783 97.2306 182.748 94.9281 180.912C92.103 178.653 88.9504 173.791 88.9504 173.791C88.9504 173.791 81.2723 181.309 73.9751 179.28C69.8305 178.133 70.9818 175.609 70.9818 175.609Z" fill="#39393B"/>
<path d="M86.8283 202.867C85.1545 202.867 84.0032 201.711 83.9501 201.649C83.773 201.464 83.773 201.173 83.959 200.996C84.1449 200.82 84.4283 200.82 84.6054 201.005C84.6674 201.067 85.9958 202.381 87.7493 201.781C87.9884 201.702 88.2541 201.825 88.3338 202.064C88.4135 202.302 88.2895 202.567 88.0504 202.646C87.6164 202.805 87.2091 202.867 86.8283 202.867Z" fill="#D96C63"/>
<path d="M82.9639 195.366C82.9639 195.366 89.1807 197.201 92.4043 197.201C92.4043 197.201 90.7925 201.79 86.1874 200.184C82.6008 198.94 82.9639 195.366 82.9639 195.366Z" fill="white"/>
<path d="M94.5213 182.473C94.5213 182.473 92.9096 182.306 93.1664 183.867C93.4321 185.429 96.9301 184.476 98.6659 187.6C98.657 187.6 100.331 184.317 94.5213 182.473Z" fill="#39393B"/>
<path d="M87.3361 181.019C87.3361 181.019 88.8859 181.496 88.0357 182.828C87.1856 184.16 84.334 181.928 81.5178 184.134C81.5178 184.134 81.2522 180.472 87.3361 181.019Z" fill="#39393B"/>
<path d="M84.5248 192.209C84.3742 192.942 82.7271 193.233 80.8496 192.853C78.9722 192.474 77.5729 191.574 77.7235 190.833C77.874 190.1 79.5124 189.809 81.3987 190.189C83.2761 190.568 84.6753 191.468 84.5248 192.209Z" fill="#D96C63"/>
<path d="M102.883 192.696L97.862 191.84C97.8355 192.051 97.7823 192.263 97.7381 192.466C97.7292 192.501 97.7203 192.537 97.7026 192.563L102.759 193.419C102.963 193.454 103.158 193.313 103.193 193.11C103.22 192.916 103.096 192.722 102.883 192.696Z" fill="white"/>
<path d="M89.4708 188.409C89.4708 188.154 89.462 187.898 89.4265 187.651C89.2583 186.292 88.6561 185.039 87.7351 184.068C86.8849 183.177 85.7779 182.524 84.4938 182.241C84.4761 182.233 84.4495 182.233 84.4318 182.224C81.4917 181.624 78.5958 183.159 77.4003 185.771C77.294 186 77.2054 186.23 77.1257 186.468C77.0549 186.68 77.0018 186.901 76.9486 187.121C76.6121 188.762 76.9398 190.386 77.7634 191.71C78.0379 192.16 78.3833 192.574 78.7641 192.936C79.5965 193.739 80.6504 194.322 81.8636 194.569C83.9093 194.992 85.9196 194.375 87.3631 193.086C88.3373 192.221 89.0546 191.039 89.338 189.671C89.338 189.662 89.338 189.662 89.338 189.654C89.4265 189.239 89.4708 188.824 89.4708 188.409ZM82.0142 193.845C81.9788 193.836 81.9522 193.836 81.9256 193.827C80.3404 193.474 79.0563 192.469 78.3036 191.154C77.6571 190.015 77.4003 188.657 77.6837 187.28C77.7457 186.998 77.8254 186.724 77.9228 186.459C77.9316 186.442 77.9405 186.424 77.9405 186.406C78.7287 184.368 80.6504 182.983 82.8112 182.859C83.2894 182.833 83.7765 182.859 84.2724 182.965C85.3351 183.186 86.2561 183.689 86.9912 184.386C88.3373 185.665 89.0103 187.589 88.6118 189.53C87.983 192.521 85.0252 194.463 82.0142 193.845Z" fill="white"/>
<path d="M100.728 185.833C100.56 185.745 100.383 185.665 100.197 185.586C99.984 185.498 99.7627 185.427 99.5413 185.356C99.3819 185.312 99.2313 185.268 99.063 185.242C98.7619 185.18 98.4697 185.145 98.1774 185.127C97.8232 185.1 97.469 185.109 97.1236 185.153C96.1583 185.259 95.2462 185.577 94.4403 186.08C93.5547 186.627 92.8019 187.395 92.2883 188.321C92.1466 188.56 92.0315 188.807 91.9252 189.054C91.9163 189.071 91.9163 189.08 91.9075 189.098C91.7747 189.433 91.6684 189.786 91.5887 190.148C91.0839 192.583 92.0669 194.983 93.9178 196.413C94.52 196.881 95.2107 197.242 95.9723 197.463C96.0875 197.498 96.2026 197.534 96.3266 197.551C96.3886 197.569 96.4417 197.578 96.5037 197.595C97.1147 197.719 97.7258 197.754 98.3191 197.701C98.4166 197.692 98.514 197.684 98.6025 197.675C98.8594 197.639 99.1162 197.595 99.373 197.525C99.8424 197.401 100.303 197.225 100.728 197.004C102.349 196.157 103.588 194.622 103.987 192.698C104.563 189.883 103.163 187.112 100.728 185.833ZM103.252 192.539C103.225 192.663 103.199 192.777 103.163 192.892C103.119 193.06 103.066 193.219 103.004 193.386C102.561 194.56 101.746 195.513 100.719 196.139C100.347 196.369 99.9398 196.554 99.5147 196.695C99.249 196.784 98.9833 196.845 98.6999 196.889C98.6202 196.907 98.5405 196.916 98.4608 196.925C97.8764 196.995 97.2653 196.978 96.6542 196.854C96.6011 196.845 96.5391 196.828 96.486 196.819C96.4506 196.81 96.4151 196.801 96.3886 196.792C95.4941 196.563 94.6971 196.122 94.0506 195.531C93.9532 195.442 93.8646 195.354 93.7761 195.266C92.5451 193.995 91.9429 192.151 92.3237 190.289C92.4123 189.874 92.5451 189.468 92.7134 189.098C93.2713 187.88 94.2454 186.936 95.4233 186.38C96.1495 186.036 96.9553 185.851 97.7878 185.851C97.9206 185.851 98.0535 185.859 98.1952 185.868C98.4343 185.886 98.6734 185.921 98.9125 185.965C99.0896 186.001 99.2579 186.045 99.4261 186.098C99.6564 186.168 99.8778 186.256 100.099 186.353C100.267 186.433 100.436 186.521 100.604 186.609C102.605 187.792 103.748 190.148 103.252 192.539Z" fill="white"/>
<path d="M69.4007 186.913C69.3564 186.904 69.3121 186.886 69.2767 186.86C69.0996 186.745 69.0553 186.516 69.1616 186.348C71.6766 182.43 77.7252 185.951 77.7783 185.986C77.9554 186.092 78.0174 186.322 77.9112 186.498C77.8049 186.675 77.5746 186.736 77.3975 186.631C77.3444 186.595 71.9157 183.445 69.7903 186.754C69.7018 186.886 69.5424 186.939 69.4007 186.913Z" fill="white"/>
<path d="M92.1921 189.27C92.0947 189.253 92.015 189.191 91.953 189.111C91.1471 187.876 89.4291 188.432 89.4113 188.432C89.2165 188.494 89.004 188.388 88.942 188.194C88.88 188 88.9863 187.788 89.1811 187.726C89.9693 187.461 91.6962 187.329 92.5906 188.705C92.7057 188.882 92.6526 189.111 92.4755 189.217C92.3869 189.27 92.2806 189.288 92.1921 189.27Z" fill="white"/>
<g opacity="0.8">
<g opacity="0.8">
<g opacity="0.8">
<g opacity="0.8">
<g opacity="0.8">
<g opacity="0.8">
<g opacity="0.8">
<path opacity="0.8" d="M97.5184 193.445C97.3236 194.38 97.1376 195.263 96.9516 196.092C95.2425 195.677 94.0115 194.839 94.1532 194.142C94.2949 193.454 95.7738 193.163 97.5184 193.445Z" fill="#D96C63"/>
</g>
</g>
</g>
</g>
</g>
</g>
</g>
<path d="M85.841 188.501C85.6374 189.516 85.0086 190.24 84.4418 190.125C83.875 190.01 83.5828 189.101 83.7865 188.087C83.9902 187.072 84.6189 186.348 85.1857 186.463C85.7525 186.578 86.0536 187.495 85.841 188.501Z" fill="#39393B"/>
<path d="M95.8889 190.532C95.6852 191.547 95.0564 192.27 94.4897 192.156C93.9229 192.041 93.6307 191.132 93.8343 190.117C94.038 189.103 94.6668 188.379 95.2336 188.494C95.8003 188.608 96.1014 189.517 95.8889 190.532Z" fill="#39393B"/>
<path d="M90.7061 193.249C91.1932 193.346 91.5386 193.328 91.5651 193.328C91.6802 193.319 91.7954 193.267 91.8751 193.178C91.9548 193.09 91.9813 192.966 91.9725 192.852L91.326 188.131C91.2906 187.901 91.078 187.734 90.8478 187.769C90.6175 187.804 90.4493 188.016 90.4847 188.246L91.0603 192.455C90.6353 192.393 89.9976 192.216 89.422 191.74C89.2449 191.59 88.9703 191.616 88.8198 191.793C88.6692 191.969 88.6958 192.243 88.8729 192.393C89.5017 192.905 90.1836 193.143 90.7061 193.249Z" fill="#39393B"/>
<path d="M72.019 196.594C71.9482 196.7 69.9822 199.515 67.8833 200.027C67.8745 200.018 67.8745 200.018 67.8745 200.018C67.8568 199.285 67.8656 198.553 67.8745 197.838C67.9453 197.838 69.9556 197.891 72.019 196.594Z" fill="#39393B"/>
<path d="M71.5949 189.189C71.5949 189.189 68.6371 182.942 64.8025 186.604C61.641 189.63 64.404 199.725 69.8946 197.563L71.5949 189.189Z" fill="#EA9B7A"/>
<path d="M64.3278 194.581C62.6098 195.145 61.0954 196.663 60.7058 198.543C60.139 201.349 61.9633 204.084 64.7706 204.658C67.5868 205.223 70.3321 203.405 70.9077 200.608C71.3328 198.507 70.4206 196.443 68.7469 195.304C68.189 194.916 67.5425 194.642 66.834 194.501C66.8163 194.501 66.7986 194.492 66.7809 194.492C66.6835 194.845 66.7278 195.128 66.9226 195.348C67.4894 195.498 68.003 195.754 68.4546 196.09C69.7565 197.078 70.4561 198.746 70.1107 200.449C69.6325 202.814 67.3034 204.349 64.93 203.872C62.5567 203.396 61.0157 201.075 61.4939 198.71C61.8393 196.99 63.1234 195.772 64.7263 195.384L64.3278 194.581Z" fill="#FAAF3A"/>
<path d="M69.664 195.825C69.6817 195.825 69.6906 195.834 69.7083 195.834C69.9385 195.852 70.1511 195.684 70.1688 195.446C70.6027 190.725 67.0249 188.334 66.8744 188.237C66.6796 188.104 66.4139 188.166 66.2811 188.36C66.1482 188.554 66.2102 188.819 66.405 188.951C66.5379 189.04 69.7083 191.175 69.3186 195.375C69.3009 195.587 69.4515 195.781 69.664 195.825Z" fill="#39393B"/>
<path d="M66.2834 192.517C66.372 192.535 66.4782 192.526 66.5668 192.473C66.9919 192.253 68.2405 191.759 68.9224 192.085C69.135 192.191 69.3918 192.103 69.4892 191.891C69.5955 191.679 69.5069 191.423 69.2944 191.326C68.1077 190.753 66.372 191.626 66.1771 191.732C65.9646 191.838 65.8849 192.094 66 192.306C66.0531 192.411 66.1594 192.491 66.2834 192.517Z" fill="#39393B"/>
<path d="M75.3982 178.591C75.3982 178.591 71.4219 189.348 71.2094 191.519C70.9171 194.475 66.994 184.345 70.9348 175.697L75.3982 178.591Z" fill="#39393B"/>
<path d="M141.829 406.65H125.454C125.454 406.65 121.664 388.543 120.397 378.396C119.122 368.239 118.467 344.176 118.467 344.176C118.467 344.176 105.422 348.403 78.1107 346.805C17.5985 343.285 40.5441 298.988 40.5441 298.988C42.5898 301.803 57.9281 305.676 66.4829 307.027C92.7582 309.541 112.728 313.989 126.402 319.866C129.696 321.277 132.618 322.778 135.187 324.357C138.481 326.378 140.544 332.528 141.793 340.602C145.521 364.868 141.829 406.65 141.829 406.65Z" fill="#39393B"/>
<path d="M127.488 397.925C127.214 397.925 126.974 397.731 126.913 397.457C124.548 385.809 123.76 371.311 123.122 359.663C122.591 350.001 122.095 340.877 120.846 339.783C119.837 338.892 115.648 339.589 110.352 340.462C99.8047 342.209 83.8642 344.839 66.2941 340.771C56.721 338.547 49.6806 333.915 45.3766 326.997C37.9465 315.067 41.3383 300.269 41.3738 300.119C41.4446 299.801 41.7634 299.607 42.0822 299.686C42.401 299.757 42.5959 300.074 42.5162 300.392C42.4807 300.533 39.2129 314.872 46.3862 326.388C50.5219 333.032 57.3143 337.489 66.5687 339.633C83.9173 343.657 99.7162 341.045 110.175 339.315C116.436 338.283 120.217 337.656 121.643 338.909C123.184 340.268 123.618 346.939 124.309 359.602C124.947 371.214 125.735 385.659 128.081 397.228C128.143 397.545 127.94 397.854 127.621 397.916C127.568 397.916 127.524 397.925 127.488 397.925Z" fill="#585859"/>
<path d="M142.147 398.231H142.138L123.93 397.843C123.603 397.834 123.346 397.57 123.355 397.243C123.364 396.917 123.629 396.661 123.957 396.67L142.165 397.058C142.492 397.067 142.749 397.331 142.74 397.658C142.722 397.976 142.457 398.231 142.147 398.231Z" fill="#585859"/>
<path d="M141.381 427.55H129.833L127.601 414.04L126.388 406.654H140.743L140.964 414.04L141.381 427.55Z" fill="#EA9B7A"/>
<path d="M141.376 427.548H129.828L128.163 417.488L127.597 414.038H140.96L141.075 417.621L141.376 427.548Z" fill="#FAAF3A"/>
<path d="M141.075 417.621L128.163 417.488L127.597 414.038H140.96L141.075 417.621Z" fill="#C77E2E"/>
<path d="M169.895 445.734H126.191C125.864 445.143 125.686 444.313 125.616 443.316C125.341 439.628 126.519 433.751 127.094 430.045C127.165 429.612 127.227 429.206 127.272 428.845C127.351 428.227 127.404 427.706 127.404 427.327C127.404 424.3 130.088 424.821 130.088 424.821C134.507 429.145 139.519 422.668 142.442 424.786C142.442 424.786 142.557 424.874 142.831 425.077C143.079 425.271 143.451 425.571 143.965 426.003C144.709 426.621 145.754 427.521 147.171 428.792C150.642 431.907 156.54 433.954 161.562 436.045C162.199 436.31 162.792 436.575 163.35 436.848C163.767 437.051 164.165 437.254 164.537 437.448C168.646 439.654 169.948 441.772 170.249 443.307C170.541 444.79 169.895 445.734 169.895 445.734Z" fill="#0875F7"/>
<path d="M164.55 437.458C163.426 438.349 160.919 440.14 158.909 440.14C158.821 440.14 158.732 440.14 158.644 440.131C157.227 440.017 152.019 437.467 147.777 435.146C145.351 433.813 143.128 432.507 141.534 431.457C138.922 429.737 138.461 429.084 138.364 428.625C137.983 426.904 140.834 425.713 142.836 425.086C143.084 425.281 143.456 425.581 143.969 426.013C141.49 426.684 139.444 427.742 139.541 428.343C139.789 428.854 142.375 430.813 148.557 434.193C153.277 436.769 157.749 438.843 158.741 438.931C160.087 439.037 162.062 437.82 163.355 436.858C163.78 437.052 164.178 437.255 164.55 437.458Z" fill="#084FC7"/>
<path d="M169.891 445.735H126.187C125.859 445.144 125.682 444.314 125.611 443.317H170.254C170.537 444.791 169.891 445.735 169.891 445.735Z" fill="#084FC7"/>
<path d="M130.661 445.735H129.359C130.652 444.262 131.865 441.994 131.706 438.764C131.493 434.458 128.907 431.564 127.101 430.046C127.171 429.614 127.233 429.208 127.278 428.846C129.217 430.32 132.485 433.558 132.742 438.712C132.901 441.8 131.883 444.103 130.661 445.735Z" fill="#084FC7"/>
<path d="M146.44 431.366C146.121 431.366 145.82 431.146 145.741 430.819C145.643 430.431 145.882 430.043 146.263 429.946L148.991 429.266C149.38 429.169 149.77 429.408 149.867 429.787C149.965 430.175 149.726 430.563 149.345 430.661L146.617 431.34C146.555 431.358 146.502 431.366 146.44 431.366Z" fill="white"/>
<path d="M143.728 429.099C143.401 429.099 143.108 428.879 143.029 428.552C142.931 428.164 143.17 427.776 143.551 427.679L146.279 426.999C146.668 426.902 147.058 427.14 147.155 427.52C147.253 427.908 147.014 428.296 146.633 428.393L143.905 429.073C143.843 429.091 143.781 429.099 143.728 429.099Z" fill="white"/>
<path d="M149.167 432.946C148.848 432.946 148.547 432.725 148.467 432.399C148.37 432.011 148.609 431.622 148.99 431.525L151.717 430.846C152.107 430.749 152.496 430.987 152.594 431.367C152.691 431.755 152.452 432.143 152.071 432.24L149.344 432.92C149.291 432.937 149.229 432.946 149.167 432.946Z" fill="white"/>
<path d="M151.893 434.464C151.574 434.464 151.273 434.244 151.194 433.917C151.096 433.529 151.335 433.14 151.716 433.052L154.444 432.373C154.833 432.276 155.223 432.514 155.32 432.893C155.418 433.282 155.179 433.67 154.798 433.767L152.07 434.446C152.008 434.464 151.946 434.464 151.893 434.464Z" fill="white"/>
<path d="M154.869 435.877C154.551 435.877 154.249 435.657 154.17 435.33C154.072 434.942 154.311 434.554 154.692 434.465L157.42 433.786C157.809 433.689 158.199 433.927 158.297 434.306C158.394 434.695 158.155 435.083 157.774 435.18L155.046 435.86C154.984 435.868 154.922 435.877 154.869 435.877Z" fill="white"/>
<path d="M158.099 437.068C157.771 437.068 157.479 436.847 157.399 436.521C157.302 436.132 157.541 435.744 157.922 435.647L160.649 434.968C161.039 434.87 161.429 435.109 161.526 435.488C161.623 435.876 161.384 436.265 161.004 436.362L158.276 437.041C158.214 437.068 158.161 437.068 158.099 437.068Z" fill="white"/>
<path d="M202.142 298.326V301.944C202.142 304.027 200.884 305.712 199.326 305.712H3.19507C1.63644 305.712 0.378906 304.027 0.378906 301.944V298.326C0.378906 296.244 1.63644 294.558 3.19507 294.558H199.317C200.884 294.558 202.142 296.244 202.142 298.326Z" fill="#F47E20"/>
<path d="M202.142 299.476H0.378906V301.135H202.142V299.476Z" fill="#FBAA1C"/>
<path d="M196.25 315.003H11.8882C11.0646 315.003 10.3916 314.333 10.3916 313.512V305.659H197.737V313.512C197.737 314.333 197.073 315.003 196.25 315.003Z" fill="#FBAA1C"/>
<path d="M187.965 361.102H23.0952V367.508H187.965V361.102Z" fill="#FBAA1C"/>
<path d="M11.2115 446.873L43.1281 315.006H31.9165L0 446.873H11.2115Z" fill="#F47E20"/>
<path d="M199.637 446.873L167.72 315.006H178.932L210.848 446.873H199.637Z" fill="#F47E20"/>
<path d="M18.2855 264.251L14.8276 264.778L18.8245 290.78L22.2823 290.253L18.2855 264.251Z" fill="#FAAF3A"/>
<path d="M18.2903 264.241L14.8276 264.77L15.5892 262.141L15.9878 260.773L16.7759 261.955L18.2903 264.241Z" fill="#EA9B7A"/>
<path d="M21.9896 288.357L18.5317 288.885L18.8227 290.778L22.2805 290.25L21.9896 288.357Z" fill="#39393B"/>
<path d="M22.2825 291.78L19.2803 292.239C19.1563 292.257 19.0324 292.169 19.0147 292.045L18.8198 290.766L22.2825 290.236L22.4773 291.516C22.5039 291.648 22.4153 291.763 22.2825 291.78Z" fill="#DF615C"/>
<path d="M16.778 261.955L15.5913 262.141L15.9898 260.773L16.778 261.955Z" fill="#39393B"/>
<path d="M21.785 287.004L18.3271 287.531L18.535 288.883L21.9928 288.356L21.785 287.004Z" fill="#C77E2E"/>
<path d="M15.8901 265.926L18.848 285.18C18.8745 285.321 19.0074 285.427 19.1491 285.4C19.2908 285.374 19.397 285.242 19.3705 285.1L16.4126 265.846C16.386 265.705 16.2532 265.599 16.1115 265.626C15.961 265.643 15.8635 265.776 15.8901 265.926Z" fill="#C77E2E"/>
<path d="M17.2384 265.714L20.1963 284.968C20.2228 285.109 20.3557 285.215 20.4974 285.188C20.6479 285.162 20.7453 285.029 20.7188 284.888L17.7609 265.634C17.7343 265.493 17.6015 265.387 17.4598 265.413C17.3181 265.431 17.2207 265.572 17.2384 265.714Z" fill="#C77E2E"/>
<path d="M24.5401 264.368L21.042 264.38L21.1288 290.684L24.6269 290.673L24.5401 264.368Z" fill="#21B573"/>
<path d="M24.5474 264.364L21.0405 264.373L22.1918 261.884L22.7851 260.596L23.3785 261.876L24.5474 264.364Z" fill="#EA9B7A"/>
<path d="M24.6255 288.759L21.1274 288.77L21.1338 290.685L24.6318 290.673L24.6255 288.759Z" fill="#39393B"/>
<path d="M24.4075 292.186L21.3699 292.195C21.2371 292.195 21.1396 292.089 21.1396 291.966V290.678L24.6377 290.669V291.957C24.6377 292.089 24.5314 292.186 24.4075 292.186Z" fill="#DF615C"/>
<path d="M23.382 261.876L22.1953 261.884L22.7887 260.596L23.382 261.876Z" fill="#39393B"/>
<path d="M24.6201 287.391L21.1221 287.402L21.1266 288.77L24.6246 288.758L24.6201 287.391Z" fill="#217C58"/>
<path d="M21.9214 265.669L21.9834 285.144C21.9834 285.294 22.1074 285.408 22.2491 285.408C22.3996 285.408 22.5147 285.285 22.5147 285.144L22.4527 265.669C22.4527 265.519 22.3288 265.404 22.1871 265.404C22.0365 265.404 21.9214 265.519 21.9214 265.669Z" fill="#217C58"/>
<path d="M23.2949 265.661L23.3569 285.136C23.3569 285.286 23.4809 285.4 23.6226 285.4C23.7731 285.4 23.8883 285.277 23.8883 285.136L23.8263 265.661C23.8263 265.511 23.7023 265.396 23.5606 265.396C23.41 265.396 23.2949 265.511 23.2949 265.661Z" fill="#217C58"/>
<path d="M27.1243 264.232L23.4126 290.277L26.876 290.767L30.5877 264.723L27.1243 264.232Z" fill="#0875F7"/>
<path d="M30.5911 264.736L27.1196 264.242L28.6163 261.939L29.3867 260.747L29.803 262.106L30.5911 264.736Z" fill="#EA9B7A"/>
<path d="M27.1534 288.89L23.6899 288.4L23.4197 290.296L26.8832 290.786L27.1534 288.89Z" fill="#39393B"/>
<path d="M26.4292 292.248L23.4271 291.824C23.3031 291.807 23.2145 291.692 23.2322 291.56L23.4182 290.28L26.8809 290.774L26.6949 292.054C26.6772 292.177 26.562 292.266 26.4292 292.248Z" fill="#DF615C"/>
<path d="M29.8053 262.106L28.6187 261.939L29.3891 260.747L29.8053 262.106Z" fill="#39393B"/>
<path d="M23.8806 287.031L23.6875 288.385L27.1509 288.875L27.344 287.521L23.8806 287.031Z" fill="#084FC7"/>
<path d="M27.8045 265.653L25.0592 284.933C25.0415 285.084 25.1389 285.216 25.2895 285.234C25.44 285.251 25.5728 285.154 25.5906 285.004L28.3359 265.723C28.3536 265.573 28.2562 265.441 28.1056 265.423C27.9639 265.406 27.8222 265.503 27.8045 265.653Z" fill="#084FC7"/>
<path d="M29.1532 265.836L26.4078 285.116C26.3901 285.266 26.4875 285.399 26.6381 285.416C26.7886 285.434 26.9215 285.337 26.9392 285.187L29.6845 265.906C29.7022 265.756 29.6048 265.624 29.4542 265.606C29.3126 265.589 29.1709 265.695 29.1532 265.836Z" fill="#084FC7"/>
<path d="M31.7221 274.766L31.545 276.177L31.3767 277.457L31.1199 279.407L30.9605 280.669L30.7037 282.637L30.5442 283.881L30.2874 285.857L30.128 287.093L29.8712 289.087L29.7118 290.305L29.4461 292.317L29.2956 293.517L29.1627 294.558H15.4007L15.2679 293.517L15.1085 292.317L14.8517 290.305L14.6923 289.087L14.4354 287.093L14.276 285.857L14.0192 283.881L13.8509 282.637L13.603 280.669L13.4347 279.407L13.1868 277.457L13.0185 276.177L12.8325 274.766H31.7221Z" fill="#DF615C"/>
<path d="M31.546 276.178L31.3777 277.457H13.1878L13.0195 276.178H31.546Z" fill="#B11722"/>
<path d="M31.1222 279.406L30.9628 280.668H13.6053L13.437 279.406H31.1222Z" fill="#B11722"/>
<path d="M30.7043 282.637L30.5449 283.881H14.0198L13.8516 282.637H30.7043Z" fill="#B11722"/>
<path d="M30.2902 285.859L30.1308 287.094H14.4382L14.2788 285.859H30.2902Z" fill="#B11722"/>
<path d="M29.8699 289.087L29.7105 290.305H14.8503L14.6909 289.087H29.8699Z" fill="#B11722"/>
<path d="M29.446 292.318L29.2955 293.518H15.2678L15.1084 292.318H29.446Z" fill="#B11722"/>
<path d="M200.995 224.628L189.261 274.078L188.951 275.375L188.163 278.702C187.818 280.149 186.534 281.164 185.046 281.164H105.999C103.926 281.164 102.403 279.24 102.881 277.237L115.713 223.163C116.059 221.725 117.343 220.71 118.831 220.71H197.878C199.942 220.701 201.474 222.625 200.995 224.628Z" fill="#39393B"/>
<path d="M189.264 274.078L188.954 275.375H106.877V274.078H189.264Z" fill="#585859"/>
<path d="M137.86 232.939C137.205 236.442 133.822 239.283 130.306 239.283C126.79 239.283 124.47 236.442 125.125 232.939C125.781 229.436 129.164 226.594 132.679 226.594C136.195 226.594 138.515 229.436 137.86 232.939Z" fill="#FAAF3A"/>
<path d="M130.668 231.722C130.535 232.419 130.18 232.993 129.879 232.993C129.569 232.993 129.428 232.428 129.561 231.722C129.693 231.025 130.048 230.452 130.349 230.452C130.65 230.452 130.792 231.025 130.668 231.722Z" fill="#39393B"/>
<path d="M133.984 231.722C133.851 232.419 133.497 232.993 133.196 232.993C132.886 232.993 132.744 232.428 132.877 231.722C133.01 231.025 133.364 230.452 133.665 230.452C133.975 230.452 134.117 231.025 133.984 231.722Z" fill="#39393B"/>
<path d="M130.957 236.026C128.22 236.026 128.105 233.3 128.105 233.273C128.096 233.123 128.22 232.973 128.379 232.947C128.539 232.911 128.663 233.008 128.672 233.158C128.672 233.256 128.778 235.479 131.072 235.479C133.356 235.479 134.295 233.256 134.339 233.158C134.401 233.008 134.57 232.92 134.711 232.947C134.853 232.982 134.924 233.123 134.862 233.273C134.827 233.3 133.693 236.026 130.957 236.026Z" fill="#39393B"/>
<path d="M174.391 262.563C174.462 265.845 180.041 269.957 180.041 269.957C180.041 269.957 186.524 265.845 187.312 262.563C188.162 259.006 184.088 257.912 181.068 260.595C178.633 257.912 174.32 259.006 174.391 262.563Z" fill="#DF615C"/>
<path d="M162.59 253.05C162.209 256.456 159.136 259.21 155.727 259.21C152.317 259.21 149.846 256.448 150.227 253.05C150.608 249.644 153.681 246.891 157.09 246.891C160.5 246.882 162.962 249.644 162.59 253.05Z" fill="#585859"/>
<path d="M121.958 220.699L108.294 281.161H105.991C103.919 281.161 102.396 279.238 102.874 277.235L115.706 223.161C116.052 221.722 117.336 220.699 118.823 220.699H121.958Z" fill="#585859"/>
<path d="M144.86 281.163L142.46 294.602H150.378L152.778 281.163H144.86Z" fill="white"/>
<path d="M130.601 292.291L132.222 290.024C132.798 289.212 133.736 288.735 134.737 288.735H156.452C157.603 288.735 158.657 289.371 159.188 290.385L160.277 292.468C160.791 293.439 160.083 294.612 158.976 294.612H131.797C130.61 294.603 129.911 293.262 130.601 292.291Z" fill="white"/>
<path d="M85.356 294.594H150.588L151.297 292.141C151.74 290.597 150.579 289.062 148.968 289.062H88.7743C87.6939 289.062 86.7463 289.776 86.4452 290.809L85.356 294.594Z" fill="white"/>
<path d="M561.022 412.837H498.995C497.817 412.837 496.861 411.884 496.861 410.71V409.731C496.861 408.557 497.817 407.604 498.995 407.604H561.022C562.199 407.604 563.156 408.557 563.156 409.731V410.71C563.156 411.884 562.199 412.837 561.022 412.837Z" fill="#39393B"/>
<path d="M499.782 349.639H560.383C561.393 349.639 562.207 350.451 562.207 351.457V358.878C562.207 359.884 561.393 360.696 560.383 360.696H499.782C498.773 360.696 497.958 359.884 497.958 358.878V351.457C497.958 350.451 498.773 349.639 499.782 349.639Z" fill="#585859"/>
<path d="M514.08 302.605C514.08 302.605 488.531 297.576 481.402 279.813C474.273 262.05 500.345 248.726 514.08 258.264C528.781 268.474 514.08 302.605 514.08 302.605Z" fill="#21B573"/>
<path d="M529.278 349.277C529.057 349.277 528.853 349.109 528.818 348.88C526.373 332.379 516.499 308.642 508.662 291.638C500.151 273.196 492.128 258.477 492.048 258.327C491.924 258.106 492.013 257.824 492.234 257.7C492.455 257.577 492.739 257.665 492.863 257.886C492.943 258.036 500.984 272.781 509.512 291.25C517.385 308.315 527.286 332.14 529.747 348.747C529.783 349.003 529.615 349.233 529.358 349.268C529.322 349.277 529.305 349.277 529.278 349.277Z" fill="#39393B"/>
<path d="M513.127 300.894C512.959 300.894 512.799 300.806 512.72 300.647C501.606 280.025 483.557 265.06 483.38 264.91C483.185 264.751 483.159 264.46 483.318 264.265C483.478 264.071 483.77 264.045 483.965 264.204C484.151 264.354 502.332 279.425 513.534 300.215C513.658 300.435 513.57 300.718 513.348 300.841C513.278 300.876 513.198 300.894 513.127 300.894Z" fill="#39393B"/>
<path d="M513.633 302.368C513.5 302.368 513.376 302.315 513.279 302.209C505.175 292.706 496.869 286.794 491.334 283.511C485.329 279.955 481.194 278.623 481.158 278.614C480.919 278.534 480.778 278.278 480.857 278.031C480.937 277.784 481.194 277.652 481.442 277.731C481.61 277.784 485.701 279.09 491.785 282.699C497.391 286.017 505.795 292 513.987 301.609C514.155 301.803 514.129 302.095 513.934 302.262C513.845 302.333 513.739 302.368 513.633 302.368Z" fill="#39393B"/>
<path d="M511.381 296.96C511.186 296.96 511.009 296.836 510.947 296.651C504.713 278.429 507.006 256.29 507.033 256.069C507.059 255.813 507.29 255.637 507.538 255.663C507.794 255.69 507.971 255.919 507.945 256.166C507.918 256.387 505.651 278.332 511.815 296.351C511.895 296.589 511.771 296.854 511.523 296.933C511.478 296.951 511.434 296.96 511.381 296.96Z" fill="#39393B"/>
<path d="M512.951 300.568C512.729 300.568 512.534 300.409 512.499 300.18C510.595 288.646 512.056 279.24 513.624 273.381C515.324 267.019 517.449 263.436 517.538 263.286C517.671 263.065 517.954 262.995 518.175 263.127C518.397 263.26 518.468 263.542 518.335 263.763C518.317 263.798 516.174 267.416 514.509 273.663C512.977 279.425 511.542 288.691 513.411 300.038C513.455 300.285 513.278 300.524 513.03 300.568C513.004 300.568 512.977 300.568 512.951 300.568Z" fill="#39393B"/>
<path d="M541.039 307.249C541.039 307.249 566.845 303.729 575.019 286.425C583.193 269.112 557.953 254.279 543.678 262.988C528.393 272.306 541.039 307.249 541.039 307.249Z" fill="#21B573"/>
<path d="M531.255 347.769C531.246 347.769 531.255 347.769 531.255 347.769C530.998 347.769 530.786 347.557 530.795 347.301C530.892 338.804 532.752 329.124 536.321 318.535C539.172 310.073 543.104 301.01 548.028 291.604C556.397 275.588 564.828 263.949 564.916 263.835C565.067 263.632 565.359 263.579 565.563 263.729C565.766 263.879 565.82 264.17 565.669 264.373C565.589 264.487 557.194 276.082 548.852 292.036C541.165 306.746 531.955 328.268 531.733 347.31C531.716 347.566 531.503 347.769 531.255 347.769Z" fill="#39393B"/>
<path d="M542.13 305.59C542.05 305.59 541.962 305.573 541.891 305.52C541.669 305.387 541.607 305.105 541.74 304.884C554.156 284.792 573.205 270.815 573.4 270.673C573.604 270.523 573.896 270.567 574.047 270.77C574.197 270.973 574.153 271.265 573.949 271.415C573.763 271.556 554.856 285.427 542.537 305.361C542.431 305.52 542.28 305.59 542.13 305.59Z" fill="#39393B"/>
<path d="M541.538 307.037C541.423 307.037 541.308 306.992 541.219 306.913C541.033 306.737 541.025 306.445 541.202 306.26C549.96 297.145 558.701 291.674 564.493 288.691C570.78 285.453 574.934 284.385 575.111 284.341C575.359 284.279 575.607 284.429 575.669 284.676C575.731 284.923 575.58 285.171 575.332 285.232C575.288 285.241 571.081 286.326 564.882 289.521C559.161 292.468 550.527 297.886 541.866 306.895C541.777 306.992 541.662 307.037 541.538 307.037Z" fill="#39393B"/>
<path d="M544.107 301.77C544.045 301.77 543.992 301.761 543.93 301.735C543.691 301.638 543.584 301.373 543.673 301.135C550.899 283.504 549.934 261.47 549.925 261.25C549.916 260.994 550.111 260.782 550.368 260.764C550.616 260.747 550.837 260.95 550.855 261.206C550.864 261.426 551.838 283.663 544.541 301.488C544.461 301.664 544.284 301.77 544.107 301.77Z" fill="#39393B"/>
<path d="M542.324 305.281C542.288 305.281 542.253 305.281 542.217 305.272C541.969 305.219 541.81 304.972 541.872 304.725C544.423 293.501 543.537 284.174 542.35 278.332C541.057 271.996 539.144 268.264 539.127 268.22C539.012 267.99 539.1 267.717 539.322 267.602C539.552 267.487 539.826 267.576 539.941 267.796C540.021 267.955 541.925 271.652 543.245 278.112C544.458 284.059 545.361 293.536 542.775 304.928C542.722 305.131 542.536 305.281 542.324 305.281Z" fill="#39393B"/>
<path d="M531.107 273.754C531.107 273.754 509.242 259.653 509.215 240.522C509.189 221.392 538.36 218.638 547.579 232.563C557.453 247.467 531.107 273.754 531.107 273.754Z" fill="#21B573"/>
<path d="M528.051 322.744C528.016 322.744 527.981 322.744 527.945 322.735C527.697 322.673 527.547 322.426 527.6 322.179C531.461 305.952 531.115 280.256 530.15 261.567C529.105 241.298 527.113 224.656 527.095 224.497C527.068 224.241 527.245 224.012 527.502 223.985C527.75 223.959 527.989 224.135 528.016 224.391C528.034 224.559 530.026 241.227 531.08 261.523C532.054 280.274 532.391 306.058 528.512 322.391C528.45 322.603 528.264 322.744 528.051 322.744Z" fill="#39393B"/>
<path d="M531.025 271.838C530.795 271.838 530.591 271.661 530.564 271.432C527.908 248.171 516.705 227.611 516.59 227.408C516.466 227.188 516.546 226.905 516.776 226.782C516.997 226.658 517.281 226.738 517.405 226.967C517.52 227.17 528.811 247.889 531.485 271.335C531.512 271.591 531.335 271.82 531.078 271.846C531.06 271.838 531.043 271.838 531.025 271.838Z" fill="#39393B"/>
<path d="M530.947 273.39C530.752 273.39 530.575 273.267 530.513 273.073C526.519 261.248 521.001 252.698 517.078 247.606C512.827 242.082 509.48 239.329 509.444 239.303C509.25 239.144 509.214 238.853 509.382 238.659C509.542 238.465 509.834 238.429 510.029 238.597C510.171 238.712 513.474 241.429 517.787 247.024C521.763 252.177 527.342 260.825 531.38 272.781C531.46 273.02 531.336 273.284 531.088 273.364C531.044 273.39 530.991 273.39 530.947 273.39Z" fill="#39393B"/>
<path d="M530.867 267.541C530.858 267.541 530.849 267.541 530.84 267.541C530.583 267.532 530.389 267.311 530.406 267.055C531.389 247.836 541.751 228.115 541.848 227.912C541.972 227.691 542.247 227.603 542.477 227.718C542.707 227.832 542.787 228.115 542.672 228.344C542.566 228.538 532.302 248.084 531.336 267.099C531.319 267.355 531.115 267.541 530.867 267.541Z" fill="#39393B"/>
<path d="M530.98 271.467C530.945 271.467 530.918 271.467 530.883 271.458C530.635 271.405 530.476 271.158 530.529 270.911C533.044 259.493 537.915 251.234 541.563 246.31C545.522 240.962 548.834 238.359 548.976 238.253C549.179 238.095 549.472 238.13 549.622 238.333C549.781 238.536 549.746 238.827 549.542 238.977C549.507 239.003 546.168 241.633 542.281 246.883C538.694 251.728 533.903 259.864 531.432 271.105C531.388 271.326 531.193 271.467 530.98 271.467Z" fill="#39393B"/>
<path d="M557.822 320.264L557.06 322.276L556.582 323.555L555.201 327.208L554.714 328.488L553.297 332.247L552.818 333.518L546.726 349.63H513.445L507.352 333.518L506.874 332.247L505.457 328.488L504.97 327.208L503.589 323.555L503.11 322.276L502.349 320.264C501.826 318.878 502.854 317.405 504.333 317.405H555.847C557.317 317.405 558.336 318.878 557.822 320.264Z" fill="#0875F7"/>
<path d="M557.053 322.277L556.575 323.556H503.581L503.103 322.277H557.053Z" fill="#084FC7"/>
<path d="M555.194 327.217L554.707 328.487H505.45L504.963 327.217H555.194Z" fill="#084FC7"/>
<path d="M553.291 332.247L552.812 333.517H507.355L506.868 332.247H553.291Z" fill="#084FC7"/>
<path d="M521.17 360.687L519.319 366.617L493.628 449.122H488.607L504.902 368.302L506.434 360.687H521.17Z" fill="#39393B"/>
<path d="M571.702 449.122H566.68L540.228 364.181L539.147 360.687H553.866L554.238 362.54H554.247L571.702 449.122Z" fill="#39393B"/>
<path d="M561.022 401.462H498.995C497.817 401.462 496.861 400.509 496.861 399.336V398.356C496.861 397.182 497.817 396.229 498.995 396.229H561.013C562.191 396.229 563.147 397.182 563.147 398.356V399.336C563.156 400.509 562.199 401.462 561.022 401.462Z" fill="#585859"/>
<path d="M156.579 148.67C169.843 148.67 180.596 138.091 180.596 125.04C180.596 111.989 169.843 101.409 156.579 101.409C143.315 101.409 132.562 111.989 132.562 125.04C132.562 138.091 143.315 148.67 156.579 148.67Z" fill="#CED3E6"/>
<path d="M156.58 145.599C169.844 145.599 180.597 135.019 180.597 121.968C180.597 108.917 169.844 98.3374 156.58 98.3374C143.315 98.3374 132.562 108.917 132.562 121.968C132.562 135.019 143.315 145.599 156.58 145.599Z" fill="#0875F7"/>
<path d="M156.581 141.179C167.361 141.179 176.1 132.578 176.1 121.969C176.1 111.36 167.361 102.759 156.581 102.759C145.802 102.759 137.063 111.36 137.063 121.969C137.063 132.578 145.802 141.179 156.581 141.179Z" fill="white"/>
<path d="M176.11 121.969C176.11 122.48 176.092 122.983 176.048 123.486C175.259 113.603 166.829 105.794 156.582 105.794C146.336 105.794 137.914 113.603 137.117 123.486C137.082 122.983 137.055 122.48 137.055 121.969C137.055 111.371 145.814 102.759 156.574 102.759C167.351 102.759 176.11 111.371 176.11 121.969Z" fill="#CED3E6"/>
<path d="M156.581 123.964C156.43 123.964 156.28 123.893 156.191 123.77L146.618 111.081C146.458 110.869 146.503 110.569 146.715 110.41C146.928 110.251 147.238 110.295 147.397 110.507L156.74 122.887L167.358 118.299C167.606 118.193 167.89 118.299 168.005 118.546C168.111 118.793 168.005 119.075 167.757 119.181L156.775 123.928C156.713 123.955 156.651 123.964 156.581 123.964Z" fill="#39393B"/>
</svg>
