<svg width="24" height="24" viewBox="0 0 24 24" fill="none" xmlns="http://www.w3.org/2000/svg">
<g id="search">
<path id="Vector" fill-rule="evenodd" clip-rule="evenodd" d="M10.7994 4.20005C9.04899 4.20005 7.37025 4.89541 6.13251 6.13315C4.89477 7.37089 4.19941 9.04962 4.19941 10.8C4.19941 12.5505 4.89477 14.2292 6.13251 15.467C7.37025 16.7047 9.04899 17.4001 10.7994 17.4001C12.5498 17.4001 14.2286 16.7047 15.4663 15.467C16.7041 14.2292 17.3994 12.5505 17.3994 10.8C17.3994 9.04962 16.7041 7.37089 15.4663 6.13315C14.2286 4.89541 12.5498 4.20005 10.7994 4.20005ZM2.39941 10.8C2.39953 9.45685 2.72175 8.13327 3.33905 6.94032C3.95635 5.74738 4.85073 4.71986 5.94716 3.94397C7.04359 3.16807 8.3101 2.66642 9.64045 2.48109C10.9708 2.29577 12.3262 2.43218 13.5929 2.87888C14.8597 3.32557 16.0008 4.06953 16.9207 5.04835C17.8405 6.02716 18.5122 7.21229 18.8794 8.50432C19.2466 9.79635 19.2986 11.1576 19.0311 12.4739C18.7636 13.7902 18.1843 15.0231 17.3418 16.0693L21.3354 20.064C21.4238 20.1464 21.4948 20.2458 21.544 20.3562C21.5931 20.4666 21.6196 20.5858 21.6217 20.7066C21.6239 20.8275 21.6016 20.9475 21.5564 21.0596C21.5111 21.1716 21.4437 21.2734 21.3583 21.3589C21.2728 21.4444 21.171 21.5117 21.0589 21.557C20.9469 21.6023 20.8268 21.6245 20.706 21.6224C20.5851 21.6202 20.466 21.5938 20.3556 21.5446C20.2452 21.4954 20.1458 21.4245 20.0634 21.3361L16.0686 17.3425C14.8345 18.3365 13.3443 18.9612 11.7702 19.1443C10.1961 19.3275 8.60236 19.0616 7.17295 18.3775C5.74354 17.6933 4.53682 16.6188 3.69214 15.278C2.84747 13.9372 2.39931 12.3847 2.39941 10.8Z" fill="#646D89"/>
</g>
</svg>
