<svg width="16" height="17" viewBox="0 0 16 17" fill="none" xmlns="http://www.w3.org/2000/svg">
<path d="M7.65311 2.83268C7.6813 2.7639 7.72932 2.70506 7.79105 2.66365C7.85279 2.62224 7.92544 2.60013 7.99977 2.60013C8.07411 2.60013 8.14676 2.62224 8.2085 2.66365C8.27023 2.70506 8.31825 2.7639 8.34644 2.83268L9.76311 6.24001C9.78963 6.30377 9.83322 6.35897 9.88909 6.39955C9.94496 6.44013 10.0109 6.46451 10.0798 6.47001L13.7584 6.76468C14.0911 6.79134 14.2258 7.20668 13.9724 7.42334L11.1698 9.82468C11.1174 9.86947 11.0784 9.92782 11.057 9.99331C11.0356 10.0588 11.0326 10.1289 11.0484 10.196L11.9051 13.786C11.9223 13.858 11.9178 13.9335 11.8921 14.003C11.8665 14.0725 11.8208 14.1328 11.7609 14.1763C11.7009 14.2198 11.6295 14.2446 11.5555 14.2475C11.4815 14.2504 11.4083 14.2313 11.3451 14.1927L8.19511 12.2693C8.13627 12.2335 8.06868 12.2145 7.99977 12.2145C7.93086 12.2145 7.86328 12.2335 7.80444 12.2693L4.65444 14.1933C4.59128 14.232 4.51808 14.2511 4.44408 14.2482C4.37008 14.2452 4.29861 14.2205 4.23869 14.177C4.17877 14.1334 4.13308 14.0731 4.10741 14.0037C4.08174 13.9342 4.07722 13.8587 4.09444 13.7867L4.95111 10.196C4.967 10.1289 4.96408 10.0588 4.94267 9.99328C4.92126 9.92776 4.8822 9.86942 4.82977 9.82468L2.02711 7.42334C1.97098 7.37509 1.93038 7.31131 1.91041 7.24003C1.89043 7.16876 1.89198 7.09317 1.91485 7.02278C1.93772 6.95238 1.9809 6.89031 2.03895 6.84439C2.097 6.79847 2.16734 6.77073 2.24111 6.76468L5.91978 6.47001C5.98861 6.46451 6.05459 6.44013 6.11046 6.39955C6.16633 6.35897 6.20992 6.30377 6.23644 6.24001L7.65311 2.83334V2.83268Z" stroke="#8DADE0" stroke-linecap="round" stroke-linejoin="round"/>
</svg>
