<svg width="16" height="17" viewBox="0 0 16 17" fill="none" xmlns="http://www.w3.org/2000/svg">
<path d="M7.56667 3.05733C7.52333 3.19733 7.5 3.346 7.5 3.5C7.5 3.776 7.724 4 8 4H11C11.1326 4 11.2598 3.94732 11.3536 3.85355C11.4473 3.75979 11.5 3.63261 11.5 3.5C11.5 3.34994 11.4776 3.20072 11.4333 3.05733M7.56667 3.05733C7.66135 2.75113 7.85158 2.48329 8.10951 2.29303C8.36743 2.10276 8.67949 2.00008 9 2H10C10.6747 2 11.2447 2.44533 11.4333 3.05733M7.56667 3.05733C7.316 3.07267 7.06667 3.09067 6.81733 3.11067C6.06333 3.17333 5.5 3.81533 5.5 4.572V6M11.4333 3.05733C11.684 3.07267 11.9333 3.09067 12.1827 3.11067C12.9367 3.17333 13.5 3.81533 13.5 4.572V11.5C13.5 11.8978 13.342 12.2794 13.0607 12.5607C12.7794 12.842 12.3978 13 12 13H10.5M5.5 6H3.25C2.836 6 2.5 6.336 2.5 6.75V14.25C2.5 14.664 2.836 15 3.25 15H9.75C10.164 15 10.5 14.664 10.5 14.25V13M5.5 6H9.75C10.164 6 10.5 6.336 10.5 6.75V13M5 11L6 12L8 9.5" stroke="#8DADE0" stroke-linecap="round" stroke-linejoin="round"/>
</svg>
