<svg width="16" height="17" viewBox="0 0 16 17" fill="none" xmlns="http://www.w3.org/2000/svg">
<path d="M10.5003 4.5C10.5003 5.16304 10.2369 5.79893 9.76808 6.26777C9.29924 6.73661 8.66335 7 8.00031 7C7.33727 7 6.70138 6.73661 6.23254 6.26777C5.7637 5.79893 5.50031 5.16304 5.50031 4.5C5.50031 3.83696 5.7637 3.20107 6.23254 2.73223C6.70138 2.26339 7.33727 2 8.00031 2C8.66335 2 9.29924 2.26339 9.76808 2.73223C10.2369 3.20107 10.5003 3.83696 10.5003 4.5V4.5ZM3.00098 13.912C3.0224 12.6002 3.55854 11.3494 4.49376 10.4294C5.42899 9.50929 6.68837 8.99365 8.00031 8.99365C9.31225 8.99365 10.5716 9.50929 11.5069 10.4294C12.4421 11.3494 12.9782 12.6002 12.9996 13.912C11.4312 14.6312 9.72574 15.0023 8.00031 15C6.21631 15 4.52298 14.6107 3.00098 13.912Z" stroke="#8DADE0" stroke-linecap="round" stroke-linejoin="round"/>
</svg>
