<svg width="53" height="37" viewBox="0 0 53 37" fill="none" xmlns="http://www.w3.org/2000/svg">
<rect width="53" height="37" fill="#E5E5E5"/>
<g id="home" clip-path="url(#clip0_0_1)">
<rect width="1440" height="4204" transform="translate(-1009 -3195)" fill="white"/>
<g id="review" clip-path="url(#clip1_0_1)">
<g id="asset">
</g>
<g id="Frame 427320925">
<g id="Frame 427320922">
<g id="Group 40">
<g id="Frame 427320924">
<rect x="-501.269" y="-257.151" width="578.784" height="309.485" rx="8" fill="#E5ECF8"/>
</g>
<g id="Quotemarks-right">
<path id="Vector" d="M11.5852 0.138672C5.20994 0.138672 0.0239258 5.30188 0.0239258 11.6492C0.0239258 17.7724 4.85037 22.7945 10.9146 23.1415C11.0196 24.2701 10.9409 27.3424 7.98387 31.6161C7.76034 31.9385 7.80091 32.3733 8.07854 32.6497C9.28856 33.8544 10.0364 34.6132 10.5598 35.1438C11.2448 35.8377 11.5574 36.1545 12.0148 36.5679C12.1699 36.7081 12.3656 36.7785 12.5622 36.7785C12.753 36.7785 12.9432 36.712 13.0967 36.5798C18.2493 32.1159 23.9732 22.8927 23.145 11.5906C22.6598 4.955 17.7983 0.138672 11.5852 0.138672ZM12.5701 34.8595C12.3482 34.6417 12.0952 34.3851 11.7221 34.0072C11.2687 33.5471 10.6465 32.9166 9.70304 31.9741C13.2917 26.4688 12.6138 22.5475 12.3171 21.9851C12.1763 21.7182 11.8875 21.5384 11.5852 21.5384C6.10887 21.5384 1.65316 17.1023 1.65316 11.6492C1.65316 6.19686 6.10887 1.76074 11.5852 1.76074C16.9201 1.76074 21.0981 5.94422 21.5205 11.7078C22.4513 24.4198 14.8628 32.6735 12.5701 34.8595Z" fill="#B6BECB"/>
<path id="Vector_2" d="M52.0768 11.5906V11.5898C51.5899 4.955 46.7277 0.138672 40.5163 0.138672C34.1409 0.138672 28.9541 5.30188 28.9541 11.6492C28.9541 17.7724 33.7814 22.7945 39.8464 23.1415C39.9514 24.2693 39.8718 27.34 36.9141 31.6161C36.6906 31.9385 36.7312 32.3733 37.0088 32.6497C38.214 33.8497 38.9602 34.6068 39.4837 35.1367C40.1718 35.8352 40.4861 36.1536 40.9458 36.5686C41.1009 36.7081 41.2974 36.7785 41.4932 36.7785C41.6841 36.7785 41.8742 36.712 42.0277 36.579C47.1803 32.1151 52.9042 22.892 52.0768 11.5906ZM41.5011 34.8595C41.2775 34.6401 41.0222 34.3819 40.6459 34.0002C40.1925 33.5407 39.5728 32.9119 38.6332 31.9741C42.2218 26.4679 41.5449 22.5475 41.2489 21.9851C41.1081 21.719 40.8186 21.5384 40.5163 21.5384C35.039 21.5384 30.5833 17.1023 30.5833 11.6492C30.5833 6.19686 35.039 1.76074 40.5163 1.76074C45.8502 1.76074 50.0291 5.94422 50.4523 11.7086V11.7078C51.3823 24.4182 43.7938 32.6735 41.5011 34.8595Z" fill="#B6BECB"/>
</g>
</g>
</g>
</g>
</g>
</g>
<defs>
<clipPath id="clip0_0_1">
<rect width="1440" height="4204" fill="white" transform="translate(-1009 -3195)"/>
</clipPath>
<clipPath id="clip1_0_1">
<rect width="1445" height="742" fill="white" transform="translate(-1014 -473)"/>
</clipPath>
</defs>
</svg>
