<svg width="82" height="57" viewBox="0 0 82 57" fill="none" xmlns="http://www.w3.org/2000/svg">
<path d="M63.5409 56.6975C73.4062 56.6975 81.4312 48.7078 81.4312 38.8858C81.4311 29.4107 73.9626 21.6392 64.5786 21.1023C64.4161 19.3558 64.538 14.6017 69.1137 7.9884C69.4596 7.48953 69.3968 6.81672 68.9672 6.38901C67.0948 4.52481 65.9376 3.35074 65.1277 2.52958C64.0677 1.45591 63.5839 0.965703 62.8761 0.325895C62.6361 0.109029 62.3333 -2.92365e-05 62.0291 -2.92161e-05C61.7338 -2.91963e-05 61.4395 0.102872 61.2019 0.307569C53.2286 7.21506 44.3714 21.4872 45.6529 38.9765C46.4038 49.2446 53.9266 56.6975 63.5409 56.6975ZM62.0169 2.96959C62.3603 3.30656 62.7518 3.70365 63.3291 4.28837C64.0307 5.00033 64.9934 5.97599 66.4534 7.43444C60.9003 15.9536 61.9492 22.0215 62.4083 22.8917C62.6262 23.3048 63.0731 23.583 63.5409 23.583C72.0151 23.583 78.91 30.4476 78.91 38.8858C78.91 47.3229 72.0151 54.1875 63.5409 54.1875C55.2856 54.1875 48.8203 47.7138 48.1667 38.7952C46.7264 19.1242 58.469 6.35223 62.0169 2.96959Z" fill="#E0E5EF"/>
<path d="M0.881842 38.9765L0.881842 38.9778C1.63528 49.2446 9.15919 56.6975 18.771 56.6975C28.6364 56.6975 36.6626 48.7078 36.6626 38.8858C36.6626 29.4107 29.1928 21.6392 19.8075 21.1023C19.645 19.3571 19.7682 14.6055 24.345 7.9884C24.6909 7.48953 24.6282 6.81672 24.1986 6.38901C22.3336 4.53221 21.1789 3.36053 20.3688 2.54063C19.304 1.45968 18.8177 0.966962 18.1063 0.324765C17.8663 0.109029 17.5622 -2.92364e-05 17.2593 -2.92161e-05C16.9638 -2.91962e-05 16.6696 0.102872 16.4321 0.308824C8.45881 7.21632 -0.398384 21.4884 0.881842 38.9765ZM17.2471 2.96959C17.593 3.30907 17.988 3.70854 18.5704 4.29928C19.272 5.01025 20.2309 5.98326 21.6849 7.43444C16.1317 15.9549 17.1792 22.0215 17.6372 22.8917C17.8552 23.3035 18.3032 23.583 18.771 23.583C27.2466 23.583 34.1415 30.4476 34.1415 38.8858C34.1415 47.3229 27.2466 54.1875 18.771 54.1875C10.5171 54.1875 4.05051 47.7138 3.39565 38.7939L3.39565 38.7952C1.95659 19.1267 13.6992 6.35223 17.2471 2.96959Z" fill="#E0E5EF"/>
</svg>
