<svg width="48" height="48" viewBox="0 0 48 48" fill="none" xmlns="http://www.w3.org/2000/svg">
<rect width="48" height="48" rx="24" fill="#2F5FAC"/>
<path d="M31.7627 19.1538C31.1795 19.4118 30.5611 19.5812 29.9279 19.6564C30.5953 19.2572 31.0949 18.629 31.3334 17.8888C30.707 18.2616 30.0203 18.5228 29.3045 18.6641C28.8237 18.1497 28.1865 17.8086 27.4918 17.6937C26.7971 17.5788 26.0839 17.6967 25.4631 18.0289C24.8423 18.3612 24.3487 18.8892 24.059 19.531C23.7693 20.1727 23.6997 20.8922 23.8611 21.5776C22.5908 21.5139 21.3481 21.1838 20.2137 20.6087C19.0793 20.0336 18.0785 19.2264 17.2763 18.2394C16.9924 18.7271 16.8432 19.2815 16.844 19.8459C16.844 20.9535 17.4077 21.9321 18.2648 22.505C17.7576 22.489 17.2615 22.352 16.818 22.1055V22.1452C16.8182 22.8829 17.0734 23.5978 17.5405 24.1688C18.0076 24.7397 18.6578 25.1316 19.3809 25.2779C18.91 25.4055 18.4163 25.4243 17.9371 25.3329C18.141 25.9679 18.5383 26.5232 19.0735 26.9211C19.6086 27.319 20.2548 27.5396 20.9216 27.552C20.2589 28.0724 19.5002 28.4572 18.6887 28.6842C17.8772 28.9112 17.0289 28.9761 16.1924 28.875C17.6527 29.8142 19.3527 30.3128 21.0889 30.3111C26.9655 30.3111 30.1792 25.4429 30.1792 21.2209C30.1792 21.0834 30.1754 20.9443 30.1693 20.8084C30.7948 20.3563 31.3346 19.7962 31.7635 19.1546L31.7627 19.1538Z" fill="white"/>
</svg>
